<?xml version="1.0" standalone="no"?><!DOCTYPE svg PUBLIC "-//W3C//DTD SVG 1.1//EN" "http://www.w3.org/Graphics/SVG/1.1/DTD/svg11.dtd"><svg t="1769159316595" class="icon" viewBox="0 0 1024 1024" version="1.1" xmlns="http://www.w3.org/2000/svg" p-id="25125" xmlns:xlink="http://www.w3.org/1999/xlink" width="200" height="200"><path d="M0 511.967a511.967 511.967 0 1 0 1023.934 0A511.967 511.967 0 1 0 0 511.967z" fill="#87a7d6" p-id="25126" data-spm-anchor-id="a313x.search_index.0.i100.22633a81cHUsIA" class="selected"></path><path d="M805.42 910.36c0-1.924-0.19-3.899-0.527-5.899v-0.22c0-4.511-1.494-8.798-4.17-12.68-26.86-58.534-165.77-138.159-284.485-138.159v-0.015c-123.994 0-269.672 84.192-286.997 142.834a20.952 20.952 0 0 0-1.673 8.02v2.39c-0.005 0.224-0.056 0.465-0.056 0.685l0.056 0.035v84.52c0 17.714 22.886 32.068 51.112 32.068h475.1c28.237 0 51.118-14.354 51.118-32.068v-81.164a24.707 24.707 0 0 1 0.521-0.348z" fill="#1A8EFF" p-id="25127"></path><path d="M458.502 830.362h115.457V700.47H458.502v129.892z" fill="#FDCC9B" p-id="25128"></path><path d="M458.502 715.1s48.595 29.688 115.457 22.818V700.45H458.502v14.65z" fill="#FCBC85" p-id="25129"></path><path d="M347.848 500.846c0 35.833-24.768 64.918-55.321 64.918-30.549 0-55.322-29.08-55.322-64.918 0-35.883 24.779-64.964 55.322-64.964s55.321 29.08 55.321 64.964z m447.413 0c0 35.833-24.774 64.918-55.317 64.918s-55.327-29.08-55.327-64.918c0-35.883 24.784-64.964 55.327-64.964s55.317 29.08 55.317 64.964z" fill="#FAC999" p-id="25130"></path><path d="M518.422 214.58c-154.363 0-223.48 68.898-223.48 162.998 0 94.111 33.57 342.135 223.48 342.135s223.481-247.978 223.481-342.135c0-94.126-69.122-162.998-223.48-162.998z" fill="#FFD9B4" p-id="25131"></path><path d="M487.362 573.058c0 9.075 5.637 21.577 31.27 21.577 25.643 0 31.27-12.497 31.27-21.577 0-9.1-11.766 4.885-31.27 4.885s-31.27-13.98-31.27-4.885z" fill="#FCBC85" p-id="25132"></path><path d="M444.072 508.033c0 18.61-13.99 33.679-31.25 33.679-17.253 0-31.29-15.07-31.29-33.679 0-18.604 14.037-33.674 31.29-33.674 17.254 0.005 31.25 15.08 31.25 33.674z" fill="#3B2519" p-id="25133"></path><path d="M410.393 491.204a12.031 12.031 0 0 1-24.052 0.025v-0.03a12.02 12.02 0 1 1 24.052 0.005z" fill="#FFFFFF" p-id="25134"></path><path d="M660.555 508.033c0 18.61-14.016 33.679-31.264 33.679-17.254 0-31.275-15.07-31.275-33.679 0-18.604 14.02-33.674 31.275-33.674 17.248 0 31.264 15.08 31.264 33.674z" fill="#3B2519" p-id="25135"></path><path d="M631.695 491.204a12.031 12.031 0 0 1-24.063 0 12.041 12.041 0 0 1 24.063 0z" fill="#FFFFFF" p-id="25136"></path><path d="M516.238 656.427c-9.023 0-14.435-6.266-14.435-3.243 0 3.018 2.603 8.793 14.435 8.793 11.842 0 14.435-5.775 14.435-8.793 0-3.018-5.442 3.243-14.435 3.243z" fill="#FCBC85" p-id="25137"></path><path d="M458.502 624.119c0 3.79 10.87 18.625 60.135 18.625 49.27 0 60.135-14.855 60.135-18.625s-22.614 11.105-60.135 11.105-60.135-14.87-60.135-11.105z" fill="#F7945E" p-id="25138"></path><path d="M661.7 883.284l51.312-79.839a11.346 11.346 0 0 0-3.96-16.016l-39.008-22.753a12.062 12.062 0 0 0-16.175 3.796l-42.717 66.468a35.884 35.884 0 0 1-30.221 16.276H454.19a35.878 35.878 0 0 1-30.206-16.276l-42.717-66.463a12.092 12.092 0 0 0-16.18-3.8l-39.004 22.752a11.387 11.387 0 0 0-4.261 15.525l0.297 0.496 51.316 79.84h-0.2v81.782h290.006V883.29h-1.566 0.026v-0.005z" fill="#FFFFFF" p-id="25139"></path><path d="M461.689 756.119c-11.806 1.928-23.351 4.128-32.058 6.45 0.21 0.26 33.234 57.424 87.257 57.424 50.037 0 81.317-50.14 86.12-55.997a690.704 690.704 0 0 0-30.911-7.898c1.708-1.586 2.522-2.614 2.522-2.614s-59.895-21.924-115.457 0c0 0 0.823 1.028 2.522 2.614v0.02h0.005z" fill="#FDCC9B" p-id="25140"></path><path d="M353.43 262.209s-4.615-73.246-68.198-77.236c-63.582-3.99-97.435 30.252-93.128 91.865 4.368 62.575 95.17-10.02 114.26 36.6 4.383 0.24 47.045-51.234 47.045-51.234h0.02v0.005z" fill="#3B2519" p-id="25141"></path><path d="M293.81 296.844a11.53 11.53 0 0 1-2.163-16.778l28.38-34.574a13.136 13.136 0 0 1 17.724-2.19 11.53 11.53 0 0 1 2.169 16.779l-28.385 34.574a13.13 13.13 0 0 1-17.724 2.19z" fill="#BD445A" p-id="25142"></path><path d="M683.165 262.209s4.608-73.246 68.201-77.236c63.578-3.99 97.436 30.252 93.124 91.865-4.369 62.58-95.175-10.02-114.26 36.605-4.384 0.235-47.045-51.24-47.045-51.24l-0.02 0.006z" fill="#3B2519" p-id="25143"></path><path d="M742.778 296.844a11.51 11.51 0 0 0 2.174-16.773l-28.39-34.574a13.136 13.136 0 0 0-17.724-2.19 11.53 11.53 0 0 0-2.164 16.779l28.39 34.574c4.291 5.233 12.22 6.215 17.714 2.184z" fill="#BD445A" p-id="25144"></path><path d="M260.06 484.227c5.653 43.633 17.198 72.304 25.797 84.412 8.598 12.097 26.977 53.408 80.918 90.504 83.01 57.046-140.358-106.561 34.277-318.256 0 0-30.164 51.874-28.543 95.353 0 0 37.848-12.941 140.194-12.941s140.2 12.941 140.2 12.941c1.642-43.48-28.523-95.353-28.523-95.353 181.648 171.74 15.79 330.922 36.564 318.256 20.758-12.675 91.103-54.922 108.75-141.954 17.689-87.046-13.524-336.282-256.99-336.282-243.462 0-258.301 259.686-252.67 303.32h0.026z" fill="#3B2519" p-id="25145"></path></svg>