<?xml version="1.0" standalone="no"?><!DOCTYPE svg PUBLIC "-//W3C//DTD SVG 1.1//EN" "http://www.w3.org/Graphics/SVG/1.1/DTD/svg11.dtd"><svg t="1769158329488" class="icon" viewBox="0 0 1024 1024" version="1.1" xmlns="http://www.w3.org/2000/svg" p-id="10660" xmlns:xlink="http://www.w3.org/1999/xlink" width="200" height="200"><path d="M469.523751 939.047503c259.302317 0 469.523751-210.221434 469.523752-469.523752 0-259.302317-210.221434-469.523751-469.523752-469.523751C210.221434 0 0 210.221434 0 469.523751c0 259.302317 210.221434 469.523751 469.523751 469.523752z" fill="#138D75" p-id="10661"></path><path d="M469.523751 939.047503c259.302317 0 469.523751-210.221434 469.523752-469.523752 0-259.302317-210.221434-469.523751-469.523752-469.523751C210.221434 0 0 210.221434 0 469.523751c0 259.302317 210.221434 469.523751 469.523751 469.523752z" fill="#e0620d" p-id="10662" data-spm-anchor-id="a313x.search_index.0.i24.22633a81cHUsIA" class="selected"></path><path d="M640.461698 514.911047l3.380571 217.921624 2.191111 125.237635-127.240936 57.845326-218.172037-59.692119-7.574983-345.193862 289.790059 20.815553 57.626215-16.965458z" fill="#EAB9B1" p-id="10663"></path><path d="M723.536101 464.390292c0 34.118726-22.349331 66.985389-49.926026 66.985388S623.68405 503.642477 623.68405 469.523751c0-34.118726 28.327933-61.820627 55.904628-61.820627s43.947423 22.53714 43.947423 56.687168zM316.208596 469.523751c0 34.150028-22.349331 61.820627-49.894724 61.820628-27.576695 0-50.80247-32.804059-50.80247-66.954087 0-34.118726 17.215871-56.655866 44.761264-56.655866 27.607997 0 55.93593 27.639298 55.93593 61.789325z" fill="#FDE9D1" p-id="10664"></path><path d="M469.523751 675.801186c109.336431 0 197.951214-107.990463 197.951214-241.147399S578.860182 193.53769 469.523751 193.53769s-197.951214 107.959161-197.951213 241.116097c0 133.188237 88.614783 241.116097 197.951213 241.116097z" fill="#F9D9D0" p-id="10665"></path><path d="M541.517393 447.581341c12.677141 0 23.006664-11.174665 23.006664-24.978663 0-13.803998-10.329523-24.978664-23.006664-24.978664-12.708443 0-23.006664 11.174665-23.006664 24.978664 0 13.772697 10.298221 24.978664 23.006664 24.978663z" fill="#271D1F" p-id="10666"></path><path d="M397.530109 447.581341c12.708443 0 23.006664-11.174665 23.006664-24.978663 0-13.803998-10.329523-24.978664-23.006664-24.978664-12.708443 0-22.975362 11.174665-22.975362 24.978664 0 13.772697 10.266919 24.978664 22.975362 24.978663z" fill="#271D1F" p-id="10667"></path><path d="M469.523751 575.823929c34.431742 0 62.352754-15.243871 62.352754-34.056123 0-18.78095-27.889711-34.056123-62.352754-34.056123-34.431742 0-62.321453 15.243871-62.321452 34.056123 0 18.78095 27.889711 34.056123 62.352754 34.056123z" fill="#EE8685" p-id="10668"></path><path d="M418.815186 527.556887c9.859999 3.568381 24.696949 4.288317 54.057835 4.288317 24.102219 0 37.374091-0.626032 47.985327-3.662285-7.731491-8.70184-22.693648-15.149966-40.598154-16.99676-3.349269 0.093905-6.886348 0.250413-10.767744 0.438222a427.955249 427.955249 0 0 0-10.799047-0.438222c-17.40368 1.846793-32.02152 7.981904-39.909518 16.370728z" fill="#FFFFFF" p-id="10669"></path><path d="M423.197408 560.141835c11.706792 7.074158 28.891361 11.988506 47.703613 11.988507 20.346029 0 33.242282-3.912698 44.949074-11.988507-3.75619-11.26857-21.15987-16.558538-45.700312-16.558537-25.761203 0-44.855169 4.476126-46.952375 16.558537z" fill="#E5415B" p-id="10670"></path><path d="M341.124656 548.841964a42.444947 42.444947 0 1 0 0-84.858593 42.444947 42.444947 0 0 0 0 84.858593zM597.922846 548.841964a42.444947 42.444947 0 1 0 0-84.858593 42.444947 42.444947 0 0 0 0 84.858593z" fill="#DE717E" p-id="10671"></path><path d="M389.141285 241.898637s100.22767-8.232316 148.369505-0.970349c57.438406 8.670539 88.771291 76.31326 104.985511 79.944244 33.242282 7.418475 3.16146 160.232806 20.471236 165.27236 17.278474 5.070857 10.611237-15.775998 12.771046-25.855108 2.159809-10.07911 15.682093-109.868558 17.309776-116.191477 12.520633-48.986978 22.380632-67.361008 12.990157-91.71364-9.390475-24.415235-85.891545-90.74329-104.547289-108.741701-18.687045-17.99841-91.588433-45.011677-131.967476-41.411995-40.379043 3.599682-80.66418 14.023109-95.782845 35.621202-15.149966 21.598093-24.008314 32.553647-24.008314 32.553647S280.336981 164.646329 257.299016 213.633307c-23.037965 48.986978-29.548695 48.986978-24.477839 77.0958 5.008253 28.07752 12.207618 53.275295 12.958856 82.104053 0.719936 28.797457 4.976952 48.23574 11.45638 65.545516 6.479428 17.278474 7.70019 34.275234 8.388824 44.385645 0.688635 10.141713 2.56673 14.774347 14.117014 13.334475 11.581586-1.439873 11.894602-13.209268 11.706792-20.033014-0.219111-9.797396-13.021459-84.702085 3.067555-134.941126 5.696888-17.841903 31.207679-48.955676 55.685517-61.225897 24.477838-12.207618 38.93917-37.968821 38.93917-37.968821z" fill="#351C14" p-id="10672"></path><path d="M582.397261 862.796845v155.224553l-241.272605 5.9473-7.668888-177.886898 248.941493 16.715045z" fill="#F2F2F2" p-id="10673"></path><path d="M374.492144 812.150883s49.894724 9.327872 83.731736 10.07911c33.80571 0.751238 80.632879-5.039555 80.632879-5.039555l16.62114 48.267042s-45.449899 15.337776-92.277068 14.930855c-39.878217-0.375619-80.820688-14.711744-94.530781-15.650791-29.861711-1.940698 5.822095-52.58666 5.822094-52.586661z" fill="#F2F2F2" p-id="10674"></path><path d="M820.320597 830.712722s-64.543865 88.896497-131.779667 110.995415c-67.2045 22.098918-177.761692 21.660696-177.761692 21.660696l22.53714-260.022254s49.550407 14.148316 78.28526 10.173015c28.734854-3.975301 53.995231-10.173015 53.995232-10.173015s11.487681 26.575044 10.173014 28.296632c-1.345968 1.690286 80.038149 66.766277 107.458336 76.062848 27.388885 9.265269 37.092376 23.006664 37.092377 23.006663zM286.159076 720.687657s-66.296754 52.993581-87.519228 60.50596c-21.222474 7.51238-53.995231 38.907868-53.995231 38.907869s44.229137 68.550468 82.698783 80.476371c38.500948 11.925903 164.959345 41.975423 173.786392 42.444947 8.858348 0.469524 11.080761 0 11.08076 0l-11.08076-239.676225s-30.04952 40.285138-57.469708 30.080822c-27.420187-10.204316-57.501009-12.739744-57.501008-12.739744z" fill="#E33733" p-id="10675"></path><path d="M533.34768 703.346579s109.649447-15.901204 114.094271-21.222473c4.382222-5.289968 0-16.339427 0-16.339427s21.222474-0.469524 24.728251 10.611237c3.568381 11.049459 4.444825 42.444947 2.660635 47.296693-1.752889 4.883047-27.858409 9.703491-48.642661 22.130219-20.784251 12.364125-41.568503 36.247234-61.038087 27.858409-19.406982-8.357523-31.802409-70.334658-31.802409-70.334658zM401.161093 703.346579s-7.950602 23.883108-13.271871 37.15498c-5.321269 13.24057-19.876505 37.5619-27.85841 34.901265-7.950602-2.660635-53.96393-26.543743-62.790976-34.024821-8.795745-7.51238-27.420187-11.957205-29.611298-17.716696-2.191111-5.72819-4.006603-46.420248 4.413524-50.833771 8.388824-4.444825 19.907807-7.105459 19.907807-7.10546s5.72819 16.80895 22.53714 19.469585c16.80895 2.629333 86.705386 18.154918 86.705386 18.154918z" fill="#E33733" p-id="10676"></path></svg>