<?xml version="1.0" standalone="no"?><!DOCTYPE svg PUBLIC "-//W3C//DTD SVG 1.1//EN" "http://www.w3.org/Graphics/SVG/1.1/DTD/svg11.dtd"><svg t="1769158639701" class="icon" viewBox="0 0 1024 1024" version="1.1" xmlns="http://www.w3.org/2000/svg" p-id="21328" xmlns:xlink="http://www.w3.org/1999/xlink" width="200" height="200"><path d="M1.843 510.26a510.191 510.191 0 1 0 1020.382 0 510.191 510.191 0 1 0-1020.382 0z" fill="#e0620d" p-id="21329" data-spm-anchor-id="a313x.search_index.0.i62.22633a81cHUsIA" class="selected"></path><path d="M511.83 880.035h-2.117a65.736 65.736 0 0 1-66.146-57.613h-0.546a147.514 147.514 0 0 0-144.988 150.006l0.034 1.229a491.965 491.965 0 0 0 227.756 46.486 527.7 527.7 0 0 0 202.397-47.51l-0.136-7.51a147.514 147.514 0 0 0-149.938-144.988l-1.945 0.034a65.736 65.736 0 0 1-64.372 59.866" fill="#F2AB2C" p-id="21330"></path><path d="M510.396 817.098c38.227-0.649 68.023-43.552 68.672-5.325a69.184 69.184 0 0 1-138.368 2.355c-0.682-38.227 31.503 3.618 69.696 2.97z" fill="#F1CDC2" p-id="21331"></path><path d="M201.169 401.927a245.744 245.744 0 0 1 245.743-245.743h115.124A245.744 245.744 0 0 1 807.78 401.927v199.565H201.169z" fill="#392A23" p-id="21332"></path><path d="M116.728 620.707a134.306 134.306 0 1 0 134.306-134.305 134.306 134.306 0 0 0-134.306 134.305M638.626 620.707a134.306 134.306 0 1 0 134.306-134.305 134.306 134.306 0 0 0-134.306 134.305" fill="#392A23" p-id="21333"></path><path d="M247.211 555.483A257.143 257.143 0 1 0 504.39 294.517a259.055 259.055 0 0 0-257.11 260.966" fill="#FDDECD" p-id="21334"></path><path d="M707.503 537.496a148.743 148.743 0 0 0-24.882-68.604H427.594l-11.502-72.903-7.68 72.903h-38.397l23.038-72.903-38.363 61.435h-30.718l-26.008 83.86a1.638 1.638 0 0 1-2.73 0.58 135.432 135.432 0 0 0-42.528-24.778 74.167 74.167 0 0 0-51.537 7.679c0-86.966 32.22-294.551 161.166-297.623s220.01-1.263 249.43 0l122.872 88.263c24.301 5.12 72.904 47.579 72.904 176.526l-7.68 13.652-23.038 11.503c-50.719-3.414-61.88 14.915-67.17 21.229-0.75 0.887-1.98 0.375-2.116-0.82" fill="#392A23" p-id="21335"></path><path d="M423.737 570.808a33.653 33.653 0 0 0 11.502 26.588 18.158 18.158 0 0 0 23.039 0 36.452 36.452 0 0 0 0-53.176 18.158 18.158 0 0 0-23.039 0 33.653 33.653 0 0 0-11.502 26.588M546.54 570.808a33.653 33.653 0 0 0 11.503 26.588 18.158 18.158 0 0 0 23.038 0 36.486 36.486 0 0 0 0-53.176 18.158 18.158 0 0 0-23.038 0 33.653 33.653 0 0 0-11.502 26.588" p-id="21336"></path><path d="M439.096 551.456a3.823 3.823 0 1 0 1.912-3.414 3.857 3.857 0 0 0-1.912 3.414M561.866 551.456a3.823 3.823 0 1 0 1.91-3.414 3.857 3.857 0 0 0-1.91 3.414M442.919 582.31a7.68 7.68 0 1 0 3.823-6.656 7.68 7.68 0 0 0-3.823 6.656M565.722 582.344a7.68 7.68 0 1 0 7.68-7.68 7.68 7.68 0 0 0-7.68 7.68" fill="#FFFFFF" p-id="21337"></path><path d="M523.502 651.391a19.182 19.182 0 1 1-38.363 0c0-10.58 8.601-26.86 19.182-26.86s19.181 16.28 19.181 26.86" fill="#EE8C72" p-id="21338"></path><path d="M546.507 721.428a43.312 43.312 0 0 1-84.406 0c0-18.533 11.502-16.314 42.22-16.314 34.54 0 42.22-2.253 42.22 16.314" fill="#CB674C" p-id="21339"></path><path d="M692.69 599.99a56.419 56.419 0 0 0 50.616 30.547 71.436 71.436 0 0 0 58.023-28.124 54.268 54.268 0 0 0-43.312-89.184 71.436 71.436 0 0 0-58.023 28.124 56.419 56.419 0 0 0-7.304 58.671M303.664 599.922a56.419 56.419 0 0 1-50.616 30.547 71.436 71.436 0 0 1-58.023-28.124 54.268 54.268 0 0 1 43.551-89.185 71.436 71.436 0 0 1 58.023 28.124 56.419 56.419 0 0 1 7.304 58.672" fill="#FDDECD" p-id="21340"></path></svg>