<?xml version="1.0" standalone="no"?><!DOCTYPE svg PUBLIC "-//W3C//DTD SVG 1.1//EN" "http://www.w3.org/Graphics/SVG/1.1/DTD/svg11.dtd"><svg t="1769158467733" class="icon" viewBox="0 0 1024 1024" version="1.1" xmlns="http://www.w3.org/2000/svg" p-id="13928" xmlns:xlink="http://www.w3.org/1999/xlink" width="200" height="200"><path d="M512 512m-512 0a512 512 0 1 0 1024 0 512 512 0 1 0-1024 0Z" fill="#e0620d" p-id="13929" data-spm-anchor-id="a313x.search_index.0.i46.22633a81cHUsIA" class="selected"></path><path d="M281.6 550.4h459.52v281.6H281.6z" fill="#753400" p-id="13930"></path><path d="M512 729.6c-144.64 0-264.96 72.96-298.24 198.4C298.24 988.16 400.64 1024 512 1024s213.76-35.84 298.24-96C776.96 802.56 656.64 729.6 512 729.6z" fill="#E84E75" p-id="13931"></path><path d="M627.2 746.24V870.4H396.8v-124.16c-23.04 7.68-44.8 16.64-64 28.16v217.6c56.32 20.48 116.48 32 179.2 32s122.88-11.52 179.2-32v-217.6c-19.2-11.52-40.96-20.48-64-28.16z" fill="#FFFFFF" p-id="13932"></path><path d="M512 729.6m-64 0a64 64 0 1 0 128 0 64 64 0 1 0-128 0Z" fill="#FFAA8A" p-id="13933"></path><path d="M716.8 512m-64 0a64 64 0 1 0 128 0 64 64 0 1 0-128 0Z" fill="#FFD8BF" p-id="13934"></path><path d="M307.2 512m-64 0a64 64 0 1 0 128 0 64 64 0 1 0-128 0Z" fill="#FFD8BF" p-id="13935"></path><path d="M307.2 512m-38.4 0a38.4 38.4 0 1 0 76.8 0 38.4 38.4 0 1 0-76.8 0Z" fill="#FFA56C" p-id="13936"></path><path d="M716.8 512m-38.4 0a38.4 38.4 0 1 0 76.8 0 38.4 38.4 0 1 0-76.8 0Z" fill="#FFA56C" p-id="13937"></path><path d="M512 294.4c-112.64 0-204.8 93.44-204.8 224S399.36 729.6 512 729.6s204.8-80.64 204.8-211.2S624.64 294.4 512 294.4z" fill="#FFDFCE" p-id="13938"></path><path d="M332.8 512c-8.96 0-17.92 2.56-25.6 7.68 0 35.84 7.68 67.84 19.2 94.72h6.4c28.16 0 51.2-23.04 51.2-51.2s-23.04-51.2-51.2-51.2z" fill="#FFB6BD" p-id="13939"></path><path d="M691.2 512c-28.16 0-51.2 23.04-51.2 51.2s23.04 51.2 51.2 51.2h6.4c12.8-26.88 19.2-58.88 19.2-94.72-7.68-5.12-16.64-7.68-25.6-7.68z" fill="#FFB6BD" p-id="13940"></path><path d="M396.8 492.8a32 25.6 90 1 0 51.2 0 32 25.6 90 1 0-51.2 0Z" p-id="13941"></path><path d="M576 492.8a32 25.6 90 1 0 51.2 0 32 25.6 90 1 0-51.2 0Z" p-id="13942"></path><path d="M436.48 614.4c6.4 35.84 37.12 64 75.52 64s69.12-28.16 75.52-64H436.48z" fill="#FFFFFF" p-id="13943"></path><path d="M578.56 431.36s17.92-16.64 47.36 0l-1.28 2.56s-24.32-11.52-43.52 0l-2.56-2.56z" p-id="13944"></path><path d="M512 140.8c-243.2 1.28-256 227.84-256 230.4 1.28 232.96 74.24 252.16 74.24 252.16-25.6-35.84-26.88-121.6-19.2-149.76 6.4-28.16 49.92-25.6 98.56-25.6 34.56 0 55.04-10.24 64-15.36 10.24-7.68 25.6-23.04 25.6-23.04l12.8 25.6c49.92-12.8 102.4-102.4 102.4-102.4 74.24 20.48 101.12 206.08 101.12 206.08L729.6 473.6h38.4v-102.4s-12.8-230.4-256-230.4z" fill="#753400" p-id="13945"></path></svg>