<?xml version="1.0" standalone="no"?><!DOCTYPE svg PUBLIC "-//W3C//DTD SVG 1.1//EN" "http://www.w3.org/Graphics/SVG/1.1/DTD/svg11.dtd"><svg t="1769159619141" class="icon" viewBox="0 0 1024 1024" version="1.1" xmlns="http://www.w3.org/2000/svg" p-id="32907" xmlns:xlink="http://www.w3.org/1999/xlink" width="200" height="200"><path d="M1013.316267 512a499.234133 499.234133 0 0 1-98.235734 297.984q-6.656 8.977067-13.9264 17.92c-8.635733 10.615467-17.5104 20.821333-26.999466 30.72a395.946667 395.946667 0 0 1-14.165334 14.165333 24.4736 24.4736 0 0 1-2.6624 2.423467 497.0496 497.0496 0 0 1-204.8 117.930667c-0.2048 0-0.4096 0.2048-0.648533 0a490.7008 490.7008 0 0 1-74.5472 15.701333c-11.0592 1.536-22.357333 2.423467-33.621333 3.413333-2.4576 0.238933-5.085867 0.238933-7.543467 0.443734-7.0656 0.238933-13.9264 0.443733-20.992 0.443733h-2.901333c-8.192 0-16.349867-0.2048-24.541867-0.648533a5.5296 5.5296 0 0 1-1.979733-0.238934 182.306133 182.306133 0 0 1-18.807467-1.092266c-8.430933-0.887467-16.827733-1.774933-25.224533-2.8672a512 512 0 0 1-69.666134-15.2576 493.6704 493.6704 0 0 1-221.457066-134.485334 396.765867 396.765867 0 0 1-26.965334-30.72 390.8608 390.8608 0 0 1-12.3904-15.701333A500.9408 500.9408 0 1 1 1013.316267 512z" fill="#87a7d6" p-id="32908" data-spm-anchor-id="a313x.search_index.0.i120.22633a81cHUsIA" class="selected"></path><path d="M915.080533 810.0864q-6.656 8.977067-13.9264 17.92c-8.635733 10.615467-17.5104 20.821333-26.999466 30.72a395.946667 395.946667 0 0 1-14.165334 14.165333 500.3264 500.3264 0 0 1-207.530666 120.388267c-0.2048 0-0.4096 0.2048-0.648534 0a500.736 500.736 0 0 1-501.316266-134.724267 396.765867 396.765867 0 0 1-26.965334-30.72 390.8608 390.8608 0 0 1-12.3904-15.701333c19.6608-29.422933 53.316267-51.2 94.0032-59.0848l134.9632-25.668267a118.237867 118.237867 0 0 1 19.899734-1.7408h308.394666a120.149333 120.149333 0 0 1 19.899734 1.7408l134.519466 25.668267c39.594667 7.509333 72.362667 28.603733 92.2624 57.0368z" fill="#FFFFFF" p-id="32909"></path><path d="M625.2544 704.580267l-89.156267 308.155733c-7.0656 0.238933-13.9264 0.443733-20.992 0.443733h-2.901333c-8.192 0-16.349867-0.2048-24.541867-0.648533a5.5296 5.5296 0 0 1-1.979733-0.238933L374.613333 709.973333l36.932267-25.873066 187.733333 3.413333z" fill="#A0DCF9" p-id="32910"></path><path d="M599.108267 651.195733v80.520534a82.773333 82.773333 0 0 1-28.2624 61.44 98.133333 98.133333 0 0 1-65.672534 24.610133c-51.882667 0-93.866667-38.468267-93.866666-86.050133v-80.520534a16.1792 16.1792 0 0 1 0-2.935466c1.570133-46.250667 42.939733-83.1488 93.696-83.1488a98.235733 98.235733 0 0 1 66.423466 25.1904 82.6368 82.6368 0 0 1 27.682134 60.893866z" fill="#FFC3BD" p-id="32911"></path><path d="M698.402133 413.764267s20.104533-22.8352 43.7248 4.5056c19.592533 22.698667 8.8064 104.448-59.528533 93.115733z" fill="#F4A4A2" p-id="32912"></path><path d="M306.858667 413.764267s-20.0704-22.8352-43.690667 4.5056c-19.592533 22.698667-8.840533 104.448 59.4944 93.115733z" fill="#FFC3BD" p-id="32913"></path><path d="M599.108267 565.111467v166.6048a82.773333 82.773333 0 0 1-28.2624 61.44l-7.9872-3.7888-89.429334-68.8128-61.917866-52.872534v-102.741333z" fill="#F4918C" p-id="32914"></path><path d="M707.003733 390.178133c-3.413333 103.936-35.1232 229.239467-142.711466 277.674667A219.784533 219.784533 0 0 1 518.826667 682.666667a65.7408 65.7408 0 0 1-27.067734 0c-224.392533-47.445333-196.164267-369.7664-174.08-438.5792 22.698667-69.973333 144.315733-78.165333 144.315734-78.165334h86.528S670.139733 174.08 692.906667 244.087467c7.816533 24.439467 16.452267 81.1008 14.097066 146.090666z" fill="#FFC3BD" p-id="32915"></path><path d="M551.185067 572.245333c-3.7888-15.906133-93.832533-17.066667-97.0752 0s13.653333 47.786667 48.5376 47.786667 52.5312-31.061333 48.5376-47.786667z" fill="#F4918C" p-id="32916"></path><path d="M707.003733 390.178133c-3.413333 103.936-35.1232 229.239467-142.711466 277.674667 50.7904-41.2672 118.306133-111.377067 122.88-278.391467z" fill="#F4A4A2" p-id="32917"></path><path d="M504.4224 701.3376l-7.304533 3.720533-4.096 11.741867 11.400533 13.0048v-28.4672z" fill="#FFC3BD" p-id="32918"></path><path d="M745.0624 284.5696c1.7408 24.7808-11.502933 91.136-19.933867 121.4464 0 0-24.541867-2.6624-32.085333 12.5952a150.391467 150.391467 0 0 0-6.178133 15.0528c-0.887467 2.6624-1.3312 4.437333-1.3312 4.437333s0.238933-5.085867 0.238933-13.073066c-0.238933-21.879467-2.218667-64.136533-16.622933-75.8784s-33.3824-15.2576-50.653867-57.070934v-0.2048a336.9984 336.9984 0 0 1-18.568533-67.037866c0 1.536-0.443733 38.058667-38.7072 68.266666-19.490133 15.496533-48.469333 29.422933-92.16 36.283734a140.288 140.288 0 0 1-14.370134 1.979733 2.628267 2.628267 0 0 1-1.3312 0.238933c-10.615467 1.092267-21.9136 1.979733-34.133333 2.218667s-25.873067 0.2048-40.277333-0.443733l-0.2048 0.2048c-4.437333 1.536-56.4224 21.230933-60.6208 79.189333 0.238933 1.1264 0.238933 2.218667 0.443733 3.413333L323.822933 467.626667c-2.423467-14.609067-10.615467-53.5552-30.958933-59.733334-36.283733-7.543467-105.813333-295.1168 205.277867-325.666133 7.099733-0.648533 14.165333-0.4096 21.026133-0.443733 99.908267-0.2048 117.384533 40.277333 130.7648 48.2304 6.0416 3.720533 32.3584 25.4976 67.003733-6.417067 0 0 1.1264 38.058667-11.946666 43.383467a13.277867 13.277867 0 0 0 0.887466 1.3312 58.538667 58.538667 0 0 1 4.642134 7.0656 52.667733 52.667733 0 0 1 6.280533 10.752 36.5568 36.5568 0 0 0 2.218667 3.959466 243.234133 243.234133 0 0 1 26.043733 94.481067z" fill="#262222" p-id="32919"></path><path d="M649.352533 356.1472l-82.397866-5.905067a49.288533 49.288533 0 0 0-47.4112 26.897067 91.784533 91.784533 0 0 0-28.501334 0 49.083733 49.083733 0 0 0-47.3088-26.8288l-82.397866 5.9392a31.607467 31.607467 0 0 0-29.252267 33.792l2.8672 39.6288a46.762667 46.762667 0 0 0 46.557867 43.349333h3.413333l55.3984-4.096a61.064533 61.064533 0 0 0 56.456533-65.2288l-0.580266-7.953066a46.865067 46.865067 0 0 0-1.2288-7.2704 78.984533 78.984533 0 0 1 20.8896-0.2048 48.2304 48.2304 0 0 0-1.262934 7.3728l-0.580266 7.9872a61.064533 61.064533 0 0 0 56.456533 65.194666l55.466667 3.9936h3.413333A46.762667 46.762667 0 0 0 675.84 429.602133l2.833067-39.662933a31.6416 31.6416 0 0 0-29.320534-33.792zM439.3984 457.386667l-55.466667 3.9936a35.157333 35.157333 0 0 1-37.546666-32.426667l-2.7648-39.8336a19.6608 19.6608 0 0 1 4.8128-14.472533 19.933867 19.933867 0 0 1 13.653333-6.826667l82.397867-6.007467h2.696533a37.546667 37.546667 0 0 1 37.307733 34.7136l0.580267 7.9872A49.390933 49.390933 0 0 1 439.3984 457.386667z m224.733867-28.535467a35.054933 35.054933 0 0 1-37.546667 32.4608L571.221333 457.386667A49.390933 49.390933 0 0 1 525.653333 404.445867l0.546134-7.953067a37.546667 37.546667 0 0 1 39.936-34.679467l82.397866 5.973334a19.968 19.968 0 0 1 18.466134 21.333333z" fill="#262222" p-id="32920"></path><path d="M470.698667 770.56s31.5392 11.298133 40.96 7.7824 38.536533 34.133333 38.536533 34.133333l-14.779733 32.699734-98.7136-13.9264z" fill="#A0DCF9" p-id="32921"></path><path d="M465.3056 811.4176c1.6384 5.358933 18.705067 37.034667 18.705067 37.034667l38.5024 3.413333 21.026133-53.418667s-5.290667-17.92-14.882133-17.954133-60.245333-5.188267-60.245334-5.188267z" fill="#00568F" p-id="32922"></path><path d="M411.101867 679.697067l87.620266 95.573333c-25.6 19.387733-46.250667 19.456-62.122666 56.149333l-51.746134-131.208533s21.947733-24.576 26.248534-20.514133zM621.226667 705.1264l-38.058667 94.890667-16.554667 40.482133c-11.0592-36.727467-29.661867-40.96-64.6144-60.177067l21.026134-21.674666 71.8848-74.103467c4.334933-3.9936 26.3168 20.5824 26.3168 20.5824z" fill="#C0EDFF" p-id="32923"></path><path d="M547.396267 994.816l-3.754667 17.476267c-9.5232 0.443733-19.0464 0.887467-28.535467 0.887466h-2.901333c-8.192 0-16.349867-0.2048-24.541867-0.648533-6.826667-0.238933-13.9264-0.682667-20.7872-1.3312l-5.768533-8.192 22.1184-153.088c10.615467-13.038933 38.7072 0 38.7072 0z" fill="#005D91" p-id="32924"></path><path d="M487.662933 1012.5312c-15.496533-0.682667-30.993067-2.218667-46.011733-4.1984L296.277333 821.828267l32.9728-37.546667L291.4304 754.346667l85.504-57.412267a13.1072 13.1072 0 0 1 19.456 7.304533zM679.0144 782.677333l30.549333 34.952534-12.3904 17.681066-119.9104 173.6704a518.826667 518.826667 0 0 1-62.1568 4.1984l68.266667-215.688533 27.648-87.825067a13.653333 13.653333 0 0 1 20.48-7.748266l81.92 54.203733z" fill="#E4EFF2" p-id="32925"></path><path d="M621.226667 705.1264l-38.058667 94.890667-59.938133-41.3696 76.0832-78.097067c4.130133-3.959467 21.9136 24.576 21.9136 24.576z" fill="#96D7EA" p-id="32926"></path><path d="M679.253333 782.779733l30.549334 34.952534-12.3904 17.681066-114.176-35.396266 0.238933-2.423467 22.562133-71.8848 6.826667-20.992a13.653333 13.653333 0 0 1 20.48-7.748267l23.415467 21.640534 10.6496 7.099733 45.9776 30.5152z" fill="#D1E1E5" p-id="32927"></path><path d="M915.080533 810.0864q-6.656 8.977067-13.9264 17.92c-8.635733 10.615467-17.5104 20.821333-26.999466 30.72a395.946667 395.946667 0 0 1-14.165334 14.165333 24.4736 24.4736 0 0 1-2.6624 2.423467l-160.1536-40.0384 12.3904-17.681067-30.549333-34.952533 34.133333-26.555733-46.011733-30.5152h1.092267a120.149333 120.149333 0 0 1 19.899733 1.7408l134.519467 25.668266c39.765333 7.5776 72.533333 28.672 92.433066 57.105067z" fill="#E9F2F4" p-id="32928"></path><path d="M704.989867 166.877867a93.969067 93.969067 0 0 1 5.5296 8.3968c-11.0592-13.653333-23.6544-14.370133-23.6544-14.370134 21.674667 0.887467 30.071467-37.546667 30.071466-37.546666s1.1264 38.1952-11.946666 43.52zM378.6752 333.243733l-0.2048 0.2048c-4.437333 1.536-56.4224 21.230933-60.6208 79.189334-5.973333-54.852267 11.400533-70.621867 20.855467-76.936534 12.0832-8.021333 39.970133-2.4576 39.970133-2.4576zM468.957867 329.250133a140.288 140.288 0 0 1-14.370134 1.979734 2.628267 2.628267 0 0 1-1.3312 0.238933c-10.615467 1.092267-21.9136 1.979733-34.133333 2.218667 0 0 98.986667-25.463467 101.102933-97.5872-0.170667 0 6.4512 79.6672-51.268266 93.149866zM618.496 291.874133a336.9984 336.9984 0 0 1-18.568533-67.037866c0 1.536-0.443733 38.058667-38.7072 68.266666A58.026667 58.026667 0 0 1 566.613333 285.013333s32.631467-56.32 24.917334-91.613866a146.773333 146.773333 0 0 1 26.965333 98.474666z" fill="#1C1716" p-id="32929"></path><path d="M745.0624 284.5696c1.7408 24.7808-11.502933 91.136-19.933867 121.4464 0 0-24.541867-2.6624-32.085333 12.5952a150.391467 150.391467 0 0 0-6.178133 15.0528l-1.092267-8.635733 21.230933-34.850134c52.155733-129.706667 2.6624-213.8112-1.1264-221.866666a58.538667 58.538667 0 0 1 4.642134 7.0656 52.667733 52.667733 0 0 1 6.280533 10.752 36.5568 36.5568 0 0 0 2.218667 3.959466 243.234133 243.234133 0 0 1 26.043733 94.481067z" fill="#1C1716" p-id="32930"></path><path d="M512 1024C229.717333 1024 0 794.4192 0 512S229.717333 0 512 0s512 229.717333 512 512-229.5808 512-512 512z m0-1001.8816C241.902933 22.1184 22.1184 241.902933 22.1184 512S241.902933 1002.018133 512 1002.018133 1002.018133 782.2336 1002.018133 512 782.2336 22.1184 512 22.1184z" fill="#FFFFFF" p-id="32931"></path></svg>