<?xml version="1.0" standalone="no"?><!DOCTYPE svg PUBLIC "-//W3C//DTD SVG 1.1//EN" "http://www.w3.org/Graphics/SVG/1.1/DTD/svg11.dtd"><svg t="1769158249114" class="icon" viewBox="0 0 1024 1024" version="1.1" xmlns="http://www.w3.org/2000/svg" p-id="9601" xmlns:xlink="http://www.w3.org/1999/xlink" width="200" height="200"><path d="M509.960159 509.960159m-509.960159 0a509.960159 509.960159 0 1 0 1019.920319 0 509.960159 509.960159 0 1 0-1019.920319 0Z" fill="#e0620d" p-id="9602" data-spm-anchor-id="a313x.search_index.0.i11.22633a81cHUsIA" class="selected"></path><path d="M630.514741 879.579283c1.223904 1.631873 2.855777 2.957769 4.487649 3.977689l-4.487649-3.977689z m131.671713 74.454183c-24.988048-21.724303-52.72988-39.980876-82.511554-54.361753l-93.934661 117.392829c62.215139-9.893227 122.186454-31.209562 176.548207-63.031076h-0.101992zM506.900398 856.3251c-93.628685 2.447809-183.687649 36.717131-255.388047 97.096414 77.207968 45.998406 165.431076 70.374502 255.388047 70.578486h6.01753l114.027092-145.848606c-38.552988-13.768924-79.043825-21.112351-120.044622-21.826294" fill="#FFAA1D" p-id="9603"></path><path d="M626.537052 878.151394c1.52988 1.325896 2.549801 2.651793 3.977689 3.97769-2.549801-2.651793-3.977689-3.977689-3.977689-3.97769m53.23984 21.622311c-14.584861-7.03745-29.475697-13.258964-44.774502-18.56255 15.604781 5.405578 30.189641 12.03506 44.774502 18.56255" fill="#5A545B" p-id="9604"></path><path d="M679.776892 899.773705c-14.584861-7.139442-29.475697-13.360956-44.774502-18.56255l-4.487649-1.52988-3.977689-1.529881-114.027092 145.848606c24.58008-0.50996 49.160159-2.549801 73.434263-6.01753l93.832669-118.208765z" fill="#5A545B" p-id="9605"></path><path d="M445.093227 797.169721h122.696414v96.076494H445.093227z" fill="#FDCC9B" p-id="9606"></path><path d="M445.093227 814.712351c36.717131 22.540239 79.859761 32.12749 122.594422 27.12988v-44.774502H445.093227v17.644622z" fill="#E8A16B" p-id="9607"></path><path d="M208.471713 567.279681c-0.713944 24.886056 10.505179 48.752191 30.189642 64.050996 17.746614 13.156972 42.122709 13.156972 59.869322 0 35.391235-29.883665 39.878884-82.81753 9.995219-118.106773-3.059761-3.569721-6.323506-6.935458-9.995219-9.995219-17.746614-13.156972-42.122709-13.156972-59.869322 0-19.684462 15.298805-30.903586 39.062948-30.189642 64.050996m476.404781 0c0 40.898805 26.823904 73.944223 59.869323 73.944223 33.045418 0 59.869323-33.555378 59.869322-73.944223s-26.823904-73.944223-59.869322-73.944223c-33.045418 0-59.869323 32.943426-59.869323 73.944223" fill="#FFCFAE" p-id="9608"></path><path d="M712.006375 567.279681c-1.835857 20.09243 12.647012 37.941036 32.739442 40.286853 19.990438-2.243825 34.575299-20.194422 32.739442-40.286853 0.305976-13.666932-5.915538-26.61992-16.726693-34.881275-9.689243-7.139442-22.948207-7.139442-32.739442 0-10.607171 8.465339-16.522709 21.316335-16.012749 34.881275m-476.404781 0c-0.305976 13.666932 5.915538 26.61992 16.726693 34.881275 9.689243 7.139442 22.948207 7.139442 32.739442 0 10.811155-8.261355 17.032669-21.214343 16.726693-34.881275 1.835857-20.09243-12.647012-37.941036-32.739442-40.286852-20.296414 1.835857-35.289243 19.888446-33.453386 40.286852" fill="#EDAF85" p-id="9609"></path><path d="M744.745817 426.428685c0-108.621514-73.434263-188.175299-238.253387-188.175299S268.239044 317.705179 268.239044 426.428685s-17.032669 394.811155 238.661354 394.811156 237.845418-286.189641 237.845419-394.811156" fill="#FFD6BA" p-id="9610"></path><path d="M364.723506 549.63506c-1.325896 15.196813 9.689243 28.761753 24.784064 30.699601 16.930677-3.059761 28.149801-19.276494 25.09004-36.309163-2.345817-12.749004-12.341036-22.744223-25.09004-25.09004-15.094821 1.937849-26.007968 15.502789-24.784064 30.699602" fill="#3B2519" p-id="9611"></path><path d="M371.760956 536.07012c0.50996 4.079681 4.385657 7.03745 8.465339 6.425498 4.181673-0.50996 7.03745-4.385657 6.425498-8.465339-0.50996-3.773705-3.671713-6.52749-7.445418-6.52749-4.283665 0.305976-7.649402 4.079681-7.445419 8.567331" fill="#FFFFFF" p-id="9612"></path><path d="M349.118725 473.650996c12.54502 7.03745 31.719522-22.132271 77.003984 3.059761 8.057371 4.487649 13.05498-39.266932-35.187251-39.266932-41.816733-0.305976-48.854183 33.249402-41.816733 36.207171" fill="#36221E" p-id="9613"></path><path d="M600.019124 549.63506c2.549801 14.0749 16.114741 23.458167 30.291633 20.908366 14.0749-2.549801 23.458167-16.114741 20.908367-30.291633-2.243825-12.341036-12.952988-21.214343-25.498008-21.316335-15.604781 1.52988-27.027888 15.196813-25.701992 30.699602" fill="#3B2519" p-id="9614"></path><path d="M607.566534 536.07012c0.50996 4.079681 4.385657 7.03745 8.465339 6.425498 4.079681-0.50996 7.03745-4.385657 6.425498-8.465339-0.50996-3.773705-3.671713-6.52749-7.445419-6.52749-4.385657 0.305976-7.751394 4.079681-7.445418 8.567331" fill="#FFFFFF" p-id="9615"></path><path d="M664.274104 473.650996c-12.03506 6.52749-31.719522-22.132271-76.494024 3.059761-8.057371 4.487649-13.05498-39.266932 35.187251-39.266932 41.306773-0.305976 47.834263 33.249402 41.306773 36.207171" fill="#36221E" p-id="9616"></path><path d="M506.900398 656.828685c-25.701992 0-40.796813-20.60239-40.796812-10.607171 0 10.097211 7.241434 28.659761 40.796812 28.659761s40.286853-19.786454 40.286853-28.659761c0-8.873307-15.094821 10.607171-40.286853 10.607171" fill="#EFAC7B" p-id="9617"></path><path d="M506.900398 748.315538c-9.077291 0-14.0749-7.03745-14.0749-3.467729 0 3.467729 2.549801 10.097211 14.0749 10.097211s14.0749-6.52749 14.074901-10.097211c0.101992-3.569721-5.50757 3.467729-14.074901 3.467729" fill="#FCBC85" p-id="9618"></path><path d="M506.900398 722.205578c-40.286853 0-64.866932-16.726693-64.866932-13.05498 0 3.671713 11.5251 22.132271 64.866932 22.132271s64.866932-16.726693 64.866933-22.132271c0.101992-5.405578-25.09004 13.05498-64.866933 13.05498" fill="#F7945E" p-id="9619"></path><path d="M506.900398 856.3251c-30.495618 0.305976-60.889243 4.283665-90.36494 12.035059 21.418327 28.557769 54.667729 45.896414 90.36494 46.916335 36.207171-1.631873 70.068526-18.05259 93.934662-45.284462-30.59761-8.465339-62.113147-13.05498-93.934662-13.666932" fill="#FF8613" p-id="9620"></path><path d="M445.093227 862.546614c14.992829 18.56255 38.043028 28.761753 61.909163 27.333864 23.560159 1.325896 46.304382-8.567331 61.399204-26.61992-39.878884-14.584861-83.429482-14.788845-123.308367-0.713944" fill="#FDCC9B" p-id="9621"></path><path d="M238.661355 327.80239c13.05498-145.848606 140.647012-209.287649 268.239043-209.287649s254.878088 63.337052 268.239044 209.287649c13.360956 145.848606-26.517928 222.342629-48.650199 208.26773s10.607171-165.023108-57.829482-153.396016c-106.989641 19.07251-287.413546-63.847012-287.413546-63.847012-0.713944 30.291633-16.522709 58.23745-42.122709 74.454183-82.511554 48.242231-25.701992 122.186454-47.834263 136.363347-21.928287 13.972908-66.192829-55.993625-52.627888-201.842232" fill="#342620" p-id="9622"></path><path d="M607.566534 981.265339l-31.209562-25.701992c-3.671713-3.161753-4.385657-8.669323-1.52988-12.54502l11.525099-16.726694c2.345817-3.569721 7.139442-4.487649 10.709164-2.141832 0.305976 0.203984 0.611952 0.407968 0.917928 0.713944l31.209562 25.701992c3.671713 3.161753 4.283665 8.669323 1.52988 12.54502L619.091633 979.735458c-2.753785 3.569721-7.853386 4.283665-11.525099 1.529881" fill="#CECEDB" p-id="9623"></path><path d="M612.462151 985.243028c-2.549801 0.203984-5.099602-0.713944-7.03745-2.549801l-31.311554-25.803984c-4.589641-3.875697-5.405578-10.607171-2.03984-15.604781l11.525099-16.726693c2.855777-4.589641 8.975299-6.01753 13.666933-3.161753 0.50996 0.305976 1.01992 0.713944 1.427888 1.121912l31.209562 25.701992c4.589641 3.875697 5.405578 10.607171 2.03984 15.604781l-11.525099 16.726693c-1.52988 2.447809-4.181673 4.181673-7.03745 4.48765l-0.917929 0.203984z m-4.895617-6.01753c1.325896 0.917928 2.855777 1.427888 4.487649 1.52988 1.631873-0.101992 3.161753-1.121912 3.97769-2.5498l11.525099-16.726694c2.039841-3.059761 1.52988-7.03745-1.01992-9.587251l-31.209562-25.701992c-1.325896-0.917928-2.855777-1.427888-4.487649-1.52988-1.631873 0.101992-3.161753 1.121912-3.97769 2.549801l-11.525099 16.726693c-2.039841 3.059761-1.52988 7.03745 1.01992 9.587251l31.209562 25.701992z" fill="#37354C" p-id="9624"></path><path d="M597.979283 993.810359l-31.209562-25.701992c-3.671713-3.161753-4.385657-8.669323-1.52988-12.54502l7.54741-10.097212c1.325896-1.937849 3.875697-2.447809 5.813546-1.121912 0.101992 0 0.101992 0.101992 0.203984 0.203984l37.737052 31.209562c1.835857 1.733865 2.243825 4.385657 1.01992 6.52749l-7.54741 10.097211c-2.855777 3.569721-8.261355 4.283665-12.03506 1.427889" fill="#CECEDB" p-id="9625"></path><path d="M603.486853 997.89004c-2.549801 0.203984-5.099602-0.713944-7.037451-2.549801l-31.209561-25.6c-4.589641-3.875697-5.405578-10.607171-2.039841-15.604781l7.54741-10.097211c0.917928-1.631873 2.651793-2.549801 4.48765-2.549801 1.733865 0 3.569721 0.50996 4.997609 1.529881l37.533068 30.699601c2.549801 2.549801 2.957769 6.52749 1.01992 9.587251l-7.03745 10.097211c-1.52988 2.447809-4.181673 4.181673-7.03745 4.48765-0.305976-0.101992-0.713944-0.101992-1.223904 0m-4.48765-6.119522c1.325896 0.917928 2.855777 1.427888 4.48765 1.52988 1.733865-0.203984 3.263745-1.325896 3.977689-2.855776l7.54741-10.097212c0.713944-1.01992 0.713944-2.447809 0-3.569721l-37.737052-31.209562c-0.50996-0.203984-1.01992-0.203984-1.52988 0-0.50996 0-1.01992 0.407968-1.01992 1.019921l-7.037451 10.097211c-2.039841 3.059761-1.52988 7.03745 1.019921 9.587251l30.291633 25.498008z" fill="#37354C" p-id="9626"></path><path d="M567.789641 787.58247c-27.333865 0-25.701992-21.112351-60.889243-21.11235s-33.555378 21.112351-60.889243 21.11235c-61.399203 0-130.141833-68.946614-121.064541-53.851793 12.54502 20.60239 54.871713 94.546614 182.463745 94.546614s169.816733-73.944223 182.463745-94.546614c8.057371-15.094821-61.399203 53.851793-122.084463 53.851793" fill="#5B504D" p-id="9627"></path></svg>