<?xml version="1.0" standalone="no"?><!DOCTYPE svg PUBLIC "-//W3C//DTD SVG 1.1//EN" "http://www.w3.org/Graphics/SVG/1.1/DTD/svg11.dtd"><svg t="1769158364419" class="icon" viewBox="0 0 1024 1024" version="1.1" xmlns="http://www.w3.org/2000/svg" p-id="11388" xmlns:xlink="http://www.w3.org/1999/xlink" width="200" height="200"><path d="M512 512m-512 0a512 512 0 1 0 1024 0 512 512 0 1 0-1024 0Z" fill="#e0620d" p-id="11389" data-spm-anchor-id="a313x.search_index.0.i32.22633a81cHUsIA" class="selected"></path><path d="M716.8 537.6m-64 0a64 64 0 1 0 128 0 64 64 0 1 0-128 0Z" fill="#FFC499" p-id="11390"></path><path d="M512 691.2c-145.92 0-266.24 101.12-298.24 236.8C296.96 988.16 400.64 1024 512 1024s215.04-35.84 298.24-96C778.24 792.32 657.92 691.2 512 691.2z" fill="#FFD1B8" p-id="11391"></path><path d="M634.88 716.8H389.12c-25.6 11.52-48.64 25.6-69.12 42.24v227.84C378.88 1011.2 444.16 1024 512 1024s133.12-12.8 192-37.12V759.04c-20.48-16.64-42.24-30.72-69.12-42.24z" fill="#FFFFFF" p-id="11392"></path><path d="M217.6 912.64l-3.84 15.36c14.08 10.24 33.28 23.04 49.92 32H320V759.04c-48.64 38.4-84.48 92.16-102.4 153.6z" fill="#515151" p-id="11393"></path><path d="M806.4 912.64c-17.92-61.44-53.76-115.2-102.4-153.6V960h56.32c10.24-5.12 25.6-15.36 35.84-21.76 6.4-5.12 8.96-6.4 15.36-10.24l-5.12-15.36z" fill="#515151" p-id="11394"></path><path d="M512 729.6m-89.6 0a89.6 89.6 0 1 0 179.2 0 89.6 89.6 0 1 0-179.2 0Z" fill="#FCE2CD" p-id="11395"></path><path d="M512 652.8c42.24 0 76.8 34.56 76.8 76.8s-34.56 76.8-76.8 76.8-76.8-34.56-76.8-76.8 34.56-76.8 76.8-76.8m0-25.6c-56.32 0-102.4 46.08-102.4 102.4s46.08 102.4 102.4 102.4 102.4-46.08 102.4-102.4-46.08-102.4-102.4-102.4z" p-id="11396"></path><path d="M307.2 537.6m-64 0a64 64 0 1 0 128 0 64 64 0 1 0-128 0Z" fill="#FFC499" p-id="11397"></path><path d="M307.2 537.6m-38.4 0a38.4 38.4 0 1 0 76.8 0 38.4 38.4 0 1 0-76.8 0Z" fill="#F37A6D" p-id="11398"></path><path d="M716.8 537.6m-38.4 0a38.4 38.4 0 1 0 76.8 0 38.4 38.4 0 1 0-76.8 0Z" fill="#F37A6D" p-id="11399"></path><path d="M512 320c-112.64 0-204.8 93.44-204.8 224S399.36 755.2 512 755.2s204.8-80.64 204.8-211.2S624.64 320 512 320z" fill="#FFD1B8" p-id="11400"></path><path d="M691.2 537.6c-28.16 0-51.2 23.04-51.2 51.2s23.04 51.2 51.2 51.2h6.4c12.8-26.88 19.2-58.88 19.2-94.72-7.68-5.12-16.64-7.68-25.6-7.68z" fill="#FDA1A5" p-id="11401"></path><path d="M332.8 537.6c-8.96 0-17.92 2.56-25.6 7.68 0 35.84 7.68 67.84 19.2 94.72h6.4c28.16 0 51.2-23.04 51.2-51.2s-23.04-51.2-51.2-51.2z" fill="#FDA1A5" p-id="11402"></path><path d="M396.8 358.4l-42.24 51.2 67.84-12.8s37.12 6.4 25.6 25.6 129.28-26.88 166.4-64H396.8z" fill="#753400" p-id="11403"></path><path d="M627.2 358.4l75.52 116.48h25.6L729.6 358.4z" fill="#753400" p-id="11404"></path><path d="M691.2 332.8h38.4v25.6h-38.4z" fill="#355EDE" p-id="11405"></path><path d="M396.8 448h51.2v12.8h-51.2z" fill="#B7643B" p-id="11406"></path><path d="M576 448h51.2v12.8h-51.2z" fill="#B7643B" p-id="11407"></path><path d="M396.8 531.2a32 25.6 90 1 0 51.2 0 32 25.6 90 1 0-51.2 0Z" p-id="11408"></path><path d="M576 531.2a32 25.6 90 1 0 51.2 0 32 25.6 90 1 0-51.2 0Z" p-id="11409"></path><path d="M435.2 627.2c0 42.24 34.56 76.8 76.8 76.8s76.8-34.56 76.8-76.8H435.2z" fill="#FFFFFF" p-id="11410"></path><path d="M499.2 140.8c-126.72 0-230.4 83.2-230.4 185.6 0 11.52 1.28 21.76 3.84 32H691.2v-25.6h38.4v-6.4c0-102.4-103.68-185.6-230.4-185.6z" fill="#FF3B47" p-id="11411"></path><path d="M272.64 358.4S243.2 433.92 179.2 448c0 0 96 83.2 217.6-89.6h-124.16z" fill="#D10030" p-id="11412"></path></svg>