<?xml version="1.0" standalone="no"?><!DOCTYPE svg PUBLIC "-//W3C//DTD SVG 1.1//EN" "http://www.w3.org/Graphics/SVG/1.1/DTD/svg11.dtd"><svg t="1769159644261" class="icon" viewBox="0 0 1024 1024" version="1.1" xmlns="http://www.w3.org/2000/svg" p-id="33139" xmlns:xlink="http://www.w3.org/1999/xlink" width="200" height="200"><path d="M0 512c0 282.624 229.376 512 512 512s512-229.376 512-512S794.624 0 512 0 0 229.376 0 512z" fill="#87a7d6" p-id="33140" data-spm-anchor-id="a313x.search_index.0.i123.22633a81cHUsIA" class="selected"></path><path d="M830.976 887.296c-45.056-28.16-203.776-23.04-218.112-70.144-4.096-16.384-6.144-32.768-6.144-49.664 0-28.672 2.048-57.344 6.144-85.504l-100.352-31.232-100.352 31.232c4.096 28.672 6.144 57.856 6.144 87.04 0 16.384-2.048 32.256-6.144 48.128-14.336 47.104-173.056 41.984-218.112 70.144-5.12 3.584-9.728 7.68-13.824 11.776 189.952 166.4 474.112 166.4 664.064 0-3.584-4.608-8.192-8.704-13.312-11.776z" fill="#FCCCA7" p-id="33141"></path><path d="M512 654.336l-103.936 30.72c5.632 31.744 8.192 63.488 8.192 95.744 18.432 20.48 93.184 23.552 94.72 23.552s77.312-4.096 96.768-25.088c0.512-31.232 3.072-62.464 7.68-93.696l-103.424-31.232z" fill="#EFAD7D" p-id="33142"></path><path d="M410.112 814.592c-14.848 47.616-176.64 41.984-222.208 71.168-5.12 3.072-9.728 7.168-13.312 11.776C268.288 978.944 388.096 1024 512 1024h1.024l-38.4-141.824c-50.688 0-61.44-74.752-64.512-67.584z m427.52 71.168c-46.08-28.672-205.824-19.968-220.672-67.584-2.048-7.168-15.36 64-65.536 64l-38.4 141.824c124.416 0 244.736-45.568 337.92-128-4.096-3.584-8.192-7.168-13.312-10.24z" fill="#96A53F" p-id="33143"></path><path d="M266.24 419.84c-28.16 8.192-21.504 50.688-21.504 66.56s23.552 71.68 39.424 77.824c40.448 15.36 40.448-43.008 40.448-43.008V453.12S294.912 411.648 266.24 419.84z" fill="#FCCCA7" p-id="33144"></path><path d="M757.248 419.84c-28.16-8.192-57.856 33.28-57.856 33.28v68.096s0 60.416 40.448 43.008c15.36-6.656 39.424-61.952 39.936-77.824-1.024-15.872 5.632-58.368-22.528-66.56z" fill="#FBC69A" p-id="33145"></path><path d="M647.168 202.24c-80.896-60.928-192-60.928-272.384 0C299.008 265.728 296.96 334.848 296.96 436.736c-1.536 43.52 0.512 87.04 6.656 130.048 5.12 32.768 15.36 64.512 29.184 94.72 23.552 25.088 49.664 48.128 76.8 68.608 25.6 27.648 61.44 42.496 99.328 41.472h5.12c33.792 0 55.808-3.584 99.328-41.472 27.136-20.992 53.248-44.032 76.8-68.608 14.336-30.208 24.064-61.952 29.184-94.72v-1.536c5.632-42.496 7.68-85.504 6.144-128.512-0.512-101.888-2.56-171.008-78.336-234.496z" fill="#FCCCA7" p-id="33146"></path><path d="M646.144 202.24c-38.912-30.208-87.04-46.592-136.192-45.568v613.888h3.072c33.792 0 55.808-3.584 99.328-41.472 27.136-20.992 53.248-44.032 76.8-68.608 14.336-30.208 24.064-61.952 29.184-94.72v-1.536c5.632-42.496 7.68-85.504 6.144-128.512-0.512-100.864-2.56-169.984-78.336-233.472z" fill="#FBC69A" p-id="33147"></path><path d="M416.256 449.536c-14.336 0-25.6 11.776-25.6 25.6s11.776 25.6 25.6 25.6 25.6-11.776 25.6-25.6c0-14.336-11.264-25.6-25.6-25.6z" fill="#683C11" p-id="33148"></path><path d="M611.328 393.216c-23.04 2.048-43.52 14.848-55.808 34.816-7.68 10.24 32.256-7.168 57.856-9.216 25.6 1.024 50.688 7.168 73.728 17.408-18.944-23.552-46.08-38.912-75.776-43.008z" fill="#3B2314" p-id="33149"></path><path d="M605.696 449.536c-14.336 0-25.6 11.776-25.6 25.6s11.776 25.6 25.6 25.6 25.6-11.776 25.6-25.6c0-14.336-11.264-25.6-25.6-25.6z" fill="#432918" p-id="33150"></path><path d="M410.624 392.704c-29.696 4.608-56.832 19.456-75.776 43.008 23.04-10.24 48.128-16.384 73.728-16.896 26.112 2.048 65.536 19.456 57.856 9.216-11.776-19.968-32.768-33.28-55.808-35.328z" fill="#3B2314" p-id="33151"></path><path d="M416.256 449.536c-14.336 0-25.6 11.776-25.6 25.6s11.776 25.6 25.6 25.6 25.6-11.776 25.6-25.6c0.512-14.336-11.264-25.6-25.6-25.6 0.512 0 0 0 0 0z" fill="#432918" p-id="33152"></path><path d="M512.512 619.008l-40.448-0.512-28.672-1.024v3.072l34.816 27.648 71.68 5.632 33.792-33.792-25.088-2.56-46.08 1.536z" fill="#FFFFFF" p-id="33153"></path><path d="M512 620.544l-50.176-2.56-4.096 1.536s-2.048 15.872 56.32 15.872c59.392-0.512 52.736-15.36 52.736-15.36l-54.784 0.512z" fill="#FFFFFF" p-id="33154"></path><path d="M515.584 615.424c-5.12 0.512-9.216-4.096-21.504-4.096-15.36 0.512-56.32 4.608-56.32 4.608s10.24 9.728 75.776 10.24c71.168 0.512 74.24-8.192 74.24-8.192-16.384-3.072-32.768-5.12-49.664-6.144-7.68 0-15.36 1.536-22.528 3.584z" fill="#EDA47E" p-id="33155"></path><path d="M513.536 648.704c-25.6-0.512-49.664-11.264-67.584-29.696l-8.192-3.072c14.848 28.672 43.52 47.104 75.776 48.64 32.256 1.536 62.464-17.408 74.752-47.104l-7.68 2.56c-16.896 18.944-41.472 29.184-67.072 28.672z" fill="#EDA47E" p-id="33156"></path><path d="M589.312 839.168l-77.824 12.8-71.68-18.432L302.08 891.392l-2.56 87.04c66.56 30.208 139.264 45.568 212.48 45.568s145.408-15.36 211.968-45.568l-1.536-87.04-133.12-52.224z" fill="#96A53F" p-id="33157"></path><path d="M494.592 926.208l-6.656 97.28c8.192 0.512 15.872 0.512 24.064 0.512 8.704 0 16.896 0 25.6-0.512l-8.192-97.28h-34.816z" fill="#30302E" p-id="33158"></path><path d="M511.488 848.896s-34.816 3.072-43.008 18.432c-18.432 34.816 26.112 64 26.112 64h34.816s37.376-26.624 26.624-52.736c-8.192-20.992-44.544-29.696-44.544-29.696z" fill="#1D1D1B" p-id="33159"></path><path d="M375.296 834.56l69.632 81.92 69.12-68.096L404.48 777.216 375.296 834.56z" fill="#AABF52" p-id="33160"></path><path d="M508.928 848.384L578.56 916.48l64-84.48-24.064-54.784-109.568 71.168z" fill="#AABF52" p-id="33161"></path><path d="M725.504 322.048c-0.512-5.632-1.024-11.264-1.536-15.872-2.56-29.696-6.656-88.576-27.648-118.784-30.208-49.664-82.432-80.384-140.288-82.944-189.44-17.408-285.696 97.792-285.696 97.792s29.696 10.24 26.624 121.856c-1.024 13.312-2.048 28.672-2.56 45.568v1.536c-1.024 37.888 0.512 76.288 3.584 114.176 0.512 5.632 13.312 22.528 16.896-9.728 4.096-43.52 10.24-86.528 18.432-129.536 3.584-15.36 25.088-89.6 90.112-76.288 28.16 8.192 57.856 12.8 87.04 13.824 66.048 2.048 74.752-14.848 111.104-11.776 24.064-0.512 46.08 13.824 55.808 35.84 15.872 54.784 25.6 111.104 29.184 167.936 3.584 32.768 16.384 15.36 16.896 9.728 5.12-53.248 5.12-107.008 1.024-160.768l1.024-2.56z" fill="#3B2314" p-id="33162"></path><path d="M709.632 439.808s-0.512 51.2-0.512 86.016c1.024 31.232-10.24 61.44-30.72 84.48-39.936 24.576-56.32-3.584-56.32-3.584-14.336-16.896-33.28-29.696-54.784-36.864-18.432-7.168-38.912-5.632-55.808 4.608-16.896-9.728-37.376-11.776-55.808-4.608-21.504 6.656-40.448 19.456-54.784 36.864 0 0-16.384 27.648-56.32 3.584-15.36-9.216-30.72-49.664-30.72-84.48s-0.512-86.016-0.512-86.016l-17.92 2.048s-12.8 139.264 16.384 197.632c30.72 53.76 74.24 99.328 125.952 133.12 45.568 26.112 101.376 26.112 146.432 0 51.712-33.792 95.232-79.36 125.952-133.12 29.184-58.368 16.384-197.632 16.384-197.632l-16.896-2.048z m-125.44 232.448c-25.088 21.504-40.96 30.72-56.32 18.432-6.656-5.12-12.288-11.264-16.384-18.432-4.096 7.168-9.728 13.312-16.384 18.432-15.36 12.288-30.72 3.584-56.32-18.432-25.088-21.504-16.384-62.464 12.288-64.512 66.56-4.608 60.416-15.36 60.416-15.36s-5.632 10.752 60.416 15.36c28.672 2.56 37.888 43.008 12.288 64.512z" fill="#3B2314" p-id="33163"></path><path d="M482.816 455.168c-8.192 3.584 5.632 21.504 5.632 21.504 13.824-6.656 30.208-6.144 43.52 1.536 6.656 5.12 9.216-21.504 9.216-21.504-18.944-8.192-39.936-8.704-58.368-1.536z" fill="#1D1D1B" p-id="33164"></path><path d="M487.936 457.216s-9.216-30.208-108.544-30.72c-98.816 0-95.744 35.328-95.744 35.328s-6.656 90.112 103.936 90.624c111.104 0 105.472-76.8 105.472-76.8l-5.12-18.432z m-102.912 86.528c-78.848 0-82.944-55.808-81.92-68.096 1.024-19.968 11.776-38.912 82.432-38.912 58.88 0 95.232 12.8 95.232 36.352 0 26.624-16.896 70.656-95.744 70.656z m257.536-116.224c-98.816 0-108.544 30.208-108.544 30.208l-5.12 18.944s-6.144 76.8 104.96 76.8c111.104 0.512 104.448-90.112 104.448-90.112s3.072-35.328-95.744-35.84z m-6.144 116.736c-78.848 0-95.232-44.544-95.232-70.656 0-23.04 36.352-35.84 95.232-35.84 70.656 0 81.408 18.432 82.432 39.424 0.512 11.776-3.072 67.072-82.432 67.072z" fill="#1D1D1B" p-id="33165"></path><path d="M386.56 436.736c-70.656 0-81.408 17.92-82.432 38.912-0.512 12.288 3.584 67.584 81.92 68.096 78.848 0 95.232-44.032 95.744-70.144 0-24.064-36.352-36.864-95.232-36.864z" fill="#FDD6BA" p-id="33166"></path><path d="M635.392 437.248c-58.88 0-95.232 12.288-95.232 35.84 0 26.112 15.872 70.656 95.232 70.656s82.944-55.296 82.432-67.584c-1.024-19.456-11.264-38.4-82.432-38.912z" fill="#FCD1B0" p-id="33167"></path><path d="M390.144 475.136c-0.512 14.336 10.752 26.624 25.6 27.136 14.336 0.512 26.624-10.752 27.136-25.6v-1.536c0.512-14.336-10.752-26.624-25.6-27.136-14.336-0.512-26.624 10.752-27.136 25.6v1.536zM579.584 476.16c-0.512 14.336 10.752 26.624 25.6 27.136 14.336 0.512 26.624-10.752 27.136-25.6V476.16c-0.512-14.336-12.8-26.112-27.136-25.6-14.336 0.512-25.6 11.776-25.6 25.6z" fill="#695447" p-id="33168"></path></svg>