<?xml version="1.0" standalone="no"?><!DOCTYPE svg PUBLIC "-//W3C//DTD SVG 1.1//EN" "http://www.w3.org/Graphics/SVG/1.1/DTD/svg11.dtd"><svg t="1769159488843" class="icon" viewBox="0 0 1024 1024" version="1.1" xmlns="http://www.w3.org/2000/svg" p-id="32666" xmlns:xlink="http://www.w3.org/1999/xlink" width="200" height="200"><path d="M511.999721 511.999721m-511.999721 0a511.999721 511.999721 0 1 0 1023.999441 0 511.999721 511.999721 0 1 0-1023.999441 0Z" fill="#87a7d6" p-id="32667" data-spm-anchor-id="a313x.search_index.0.i117.22633a81cHUsIA" class="selected"></path><path d="M511.999721 1023.999441a509.905176 509.905176 0 0 0 259.676949-70.655961c-19.921444-55.016697-40.12216-99.560673-77.032685-122.693751-83.5025-52.270517-133.725018-57.343969-182.970082-57.995605-50.362154-0.698181-99.700309 4.189089-182.597719 57.995605-36.445071 23.691623-56.785424 68.002872-76.753413 122.647206A509.486268 509.486268 0 0 0 511.999721 1023.999441z" fill="#00A99D" p-id="32668"></path><path d="M437.527034 651.636008v148.945374c0 28.299621 33.326527 51.199972 74.472687 51.199972s74.472687-22.900351 74.472686-51.199972v-148.945374z" fill="#E8B795" p-id="32669"></path><path d="M433.663763 800.581382h159.418095v70.609416H433.663763z" fill="#00A99D" p-id="32670"></path><path d="M586.472407 777.308667c0 12.846538-33.326527 23.272715-74.472686 23.272715s-74.472687-10.426176-74.472687-23.272715l-13.963629 69.818144 88.436316-41.890887 88.436315 41.890887z" fill="#017C7F" p-id="32671"></path><path d="M535.272435 800.581382h-46.545429v222.812969c7.726541 0.372363 15.453082 0.605091 23.272715 0.60509s15.546173-0.232727 23.272714-0.60509z" fill="#017C7F" p-id="32672"></path><path d="M511.999721 819.199553m-4.654543 0a4.654543 4.654543 0 1 0 9.309086 0 4.654543 4.654543 0 1 0-9.309086 0Z" fill="#FFFFFF" p-id="32673"></path><path d="M511.999721 907.635869m-4.654543 0a4.654543 4.654543 0 1 0 9.309086 0 4.654543 4.654543 0 1 0-9.309086 0Z" fill="#FFFFFF" p-id="32674"></path><path d="M511.999721 996.072184m-4.654543 0a4.654543 4.654543 0 1 0 9.309086 0 4.654543 4.654543 0 1 0-9.309086 0Z" fill="#FFFFFF" p-id="32675"></path><path d="M581.817864 893.67224v41.890886c0 18.013081 16.663264 32.5818 37.236344 32.5818s37.236343-14.568719 37.236343-32.5818v-41.890886z" fill="#017C7F" p-id="32676"></path><path d="M511.953175 488.727006m-279.272575 0a279.272575 279.272575 0 1 0 558.54515 0 279.272575 279.272575 0 1 0-558.54515 0Z" fill="#FFDEB9" p-id="32677"></path><path d="M745.238866 488.820097a51.199972 46.545429 90 1 0 93.090859 0 51.199972 46.545429 90 1 0-93.090859 0Z" fill="#F4D1AE" p-id="32678"></path><path d="M186.693716 488.820097a51.199972 46.545429 90 1 0 93.090859 0 51.199972 46.545429 90 1 0-93.090859 0Z" fill="#F4D1AE" p-id="32679"></path><path d="M411.927048 449.163391m-20.945443 0a20.945443 20.945443 0 1 0 41.890886 0 20.945443 20.945443 0 1 0-41.890886 0Z" fill="#515165" p-id="32680"></path><path d="M416.581591 444.508848m-6.981814 0a6.981814 6.981814 0 1 0 13.963628 0 6.981814 6.981814 0 1 0-13.963628 0Z" fill="#FFFFFF" p-id="32681"></path><path d="M612.072393 449.163391m-20.945443 0a20.945443 20.945443 0 1 0 41.890887 0 20.945443 20.945443 0 1 0-41.890887 0Z" fill="#515165" p-id="32682"></path><path d="M616.726936 444.508848m-6.981814 0a6.981814 6.981814 0 1 0 13.963629 0 6.981814 6.981814 0 1 0-13.963629 0Z" fill="#FFFFFF" p-id="32683"></path><path d="M512.604811 716.799609a70.795598 70.795598 0 0 0 69.818144-64.698147 4.654543 4.654543 0 0 0-4.654543-5.119997H447.627392a4.654543 4.654543 0 0 0-4.654543 5.119997 70.749052 70.749052 0 0 0 69.631962 64.698147z" fill="#E5916A" p-id="32684"></path><path d="M502.690635 600.436036h-27.927258a4.654543 4.654543 0 0 1-3.723634-1.815272 4.654543 4.654543 0 0 1-0.744727-4.095997l23.272715-83.781773a4.654543 4.654543 0 0 1 9.029813 2.047999L489.611369 586.472407H502.690635a4.654543 4.654543 0 0 1 4.654543 4.654543v4.654543a4.654543 4.654543 0 0 1-4.654543 4.654543z" fill="#F7C8A1" p-id="32685"></path><path d="M430.126311 536.34298a86.574498 86.574498 0 0 1-36.398526 6.795633c-28.858166 0-60.927967-10.379631-72.424688-31.045801-16.2909-29.32362-20.340353-88.436315 0.605091-100.910491 9.309086-5.39927 39.935978-9.029813 71.819597-7.540359 33.186891 1.535999 67.537418 8.610904 79.825411 25.041441 20.293807 27.042894-12.381084 92.997767-43.426885 107.659577z" fill="#FFFFFF" opacity=".15" p-id="32686"></path><path d="M744.726867 415.836864c-0.558545-9.309086-0.930909-10.28654-13.125812-13.963629-9.541813-3.071998-61.951966-7.586905-101.282853-5.445815l-7.959269 0.512c-35.886526 2.699635-78.708321 17.3149-110.824667 17.826899-13.684356 0.279273-69.818144-14.754901-109.847212-18.059626l-7.959269-0.512c-39.377433-2.14109-91.741041 2.373817-101.282854 5.445815-12.241448 3.909816-12.567266 4.933815-13.125811 13.963629s0.977454 17.268354 8.191996 19.688716c9.821086 3.25818 9.914176 15.68581 16.383991 51.199973 5.91127 32.5818 20.247262 58.135241 81.966501 62.836329 2.699635 0 5.306179 0.325818 7.866177 0.325818 54.458152 0.791272 73.262505-35.327981 79.546139-47.336702 11.682903-22.388351 8.098905-53.294516 38.679251-53.294516s27.554894 30.34762 39.237797 52.735971c6.237088 12.008721 24.575987 48.639973 79.12723 47.895247 2.513453 0 5.166543 0 7.866177-0.325818 61.719239-4.654543 76.055231-30.34762 81.966501-62.836329 6.469815-35.653799 6.562906-48.081428 16.383991-51.199973 7.074905-2.187635 8.610904-10.146904 8.191996-19.455989z m-315.57801 118.551208a83.781772 83.781772 0 0 1-35.281435 6.609451c-27.927257 0-59.06615-10.100358-70.143962-30.114893-15.7789-28.392712-19.735262-85.829771 0.558545-97.745401 8.797086-5.213088 38.679252-8.703995 69.818144-7.307632 32.162892 1.489454 65.442873 8.378177 77.358503 24.250168 19.269808 26.06544-12.381084 90.111951-42.449431 104.308307z m271.313306-23.272714c-11.124358 20.014535-42.216704 30.021802-70.143961 30.114892a83.781772 83.781772 0 0 1-35.281436-6.609451c-30.068347-13.963629-61.765784-78.10323-41.890886-104.354852 11.91563-15.871991 45.195612-22.760715 77.358503-24.250168 30.906165-1.396363 60.78833 2.094544 69.818144 7.307632 19.735262 11.729448 15.7789 69.166508 0 97.559219z" fill="#2E5966" p-id="32687"></path><path d="M702.556708 511.999721c-11.450176 20.666171-43.519976 30.999256-72.378143 31.045801a86.946862 86.946862 0 0 1-36.445071-6.795633c-30.999256-14.66181-63.674147-80.616683-43.38034-107.659577 12.287993-16.430536 46.545429-23.272715 79.825411-25.041441 31.883619-1.489454 62.696693 2.14109 71.819598 7.540359 20.898898 12.474175 16.849445 71.679961 0.558545 100.910491z" fill="#FFFFFF" opacity=".15" p-id="32688"></path><path d="M511.999721 744.726867c-182.271901 0-257.070405-123.950478-279.272575-255.999861v32.581801c0 154.251552 93.742494 293.236204 279.272575 293.236203s279.272575-138.984651 279.272575-293.236203v-32.581801c-22.155624 132.049383-97.093765 255.99986-279.272575 255.999861z" fill="#603813" p-id="32689"></path><path d="M637.113834 633.436745a5.166543 5.166543 0 0 0-2.932362-4.654543 5.352724 5.352724 0 0 0-5.445815 0.465455 27.927257 27.927257 0 0 1-38.120706-2.420363c-9.309086-10.472722-21.271261-32.5818-49.757064-31.045801-16.942536 0.977454-24.901805 8.378177-28.904712 17.128718-4.002907-8.750541-11.962175-16.197809-28.904711-17.128718-28.532348-1.62909-40.494523 20.57308-49.757064 31.045801a27.927257 27.927257 0 0 1-38.167252 2.420363 5.352724 5.352724 0 0 0-5.39927-0.465455 5.213088 5.213088 0 0 0-2.932362 4.654543 39.423978 39.423978 0 0 0 19.083626 35.793435c26.484349 16.430536 66.885782 20.433443 93.090859-2.559998a88.669043 88.669043 0 0 0 13.125811-18.618172 88.669043 88.669043 0 0 0 13.125811 18.618172c26.06544 22.993442 66.466873 18.990535 93.090858 2.559998a39.330888 39.330888 0 0 0 19.083626-35.793435zM511.999721 726.108695c-16.2909 0-36.072708 18.618172-51.199972 18.618172h102.399944c-15.127264 0-34.909072-18.618172-51.199972-18.618172z" fill="#603813" p-id="32690"></path><path d="M511.999721 107.054487c-183.2959 0-227.281331 73.681414-228.072603 130.327202-26.763622 6.423269-74.472687 19.781807-74.472687 172.218088a304.26747 304.26747 0 0 0 1.954908 34.024708A42.961431 42.961431 0 0 1 233.239146 437.527034a40.447978 40.447978 0 0 1 4.142543 0 278.574394 278.574394 0 0 1 75.263959-144.29083C394.379421 362.169984 479.41792 369.33798 530.617892 372.363433a97.000674 97.000674 0 0 1-18.618171-41.890886s23.645078 25.599986 127.581021 54.690879S791.272296 460.799749 791.272296 460.799749s-0.651636-8.65745-2.420363-22.993442h2.932362a42.775249 42.775249 0 0 1 20.852353 5.49236A307.199832 307.199832 0 0 0 814.54501 409.599777a302.54529 302.54529 0 0 0-302.545289-302.54529z" fill="#603813" p-id="32691"></path></svg>