<?xml version="1.0" encoding="utf-8" standalone="no"?>
<!DOCTYPE svg PUBLIC "-//W3C//DTD SVG 1.1//EN"
  "http://www.w3.org/Graphics/SVG/1.1/DTD/svg11.dtd">
<svg xmlns:xlink="http://www.w3.org/1999/xlink" width="252pt" height="216pt" viewBox="0 0 252 216" xmlns="http://www.w3.org/2000/svg" version="1.1">
 <metadata>
  <rdf:RDF xmlns:dc="http://purl.org/dc/elements/1.1/" xmlns:cc="http://creativecommons.org/ns#" xmlns:rdf="http://www.w3.org/1999/02/22-rdf-syntax-ns#">
   <cc:Work>
    <dc:type rdf:resource="http://purl.org/dc/dcmitype/StillImage"/>
    <dc:date>2025-12-18T11:01:41.220102</dc:date>
    <dc:format>image/svg+xml</dc:format>
    <dc:creator>
     <cc:Agent>
      <dc:title>Matplotlib v3.10.7, https://matplotlib.org/</dc:title>
     </cc:Agent>
    </dc:creator>
   </cc:Work>
  </rdf:RDF>
 </metadata>
 <defs>
  <style type="text/css">*{stroke-linejoin: round; stroke-linecap: butt}</style>
 </defs>
 <g id="figure_1">
  <g id="patch_1">
   <path d="M 0 216 
L 252 216 
L 252 0 
L 0 0 
z
" style="fill: #ffffff"/>
  </g>
  <g id="axes_1">
   <g id="patch_2">
    <path d="M 29.188212 186.624 
L 196.723275 186.624 
L 196.723275 42.149508 
L 29.188212 42.149508 
z
" style="fill: #ffffff"/>
   </g>
   <g id="matplotlib.axis_1">
    <g id="text_1">
     <!-- $q$ -->
     <g transform="translate(189.802998 172.693588) scale(0.16 -0.16)">
      <defs>
       <path id="CMMI12-71" d="M 2822 2759 
C 2822 2790 2797 2816 2765 2816 
C 2714 2816 2464 2585 2342 2362 
C 2227 2646 2029 2816 1754 2816 
C 1030 2816 250 1884 250 939 
C 250 307 621 -64 1056 -64 
C 1395 -64 1677 193 1811 339 
L 1818 333 
L 1574 -615 
L 1517 -842 
C 1459 -1031 1363 -1031 1062 -1031 
C 992 -1031 928 -1031 928 -1152 
C 928 -1197 966 -1216 1011 -1216 
C 1101 -1216 1216 -1216 1306 -1216 
L 1958 -1216 
C 2054 -1216 2163 -1216 2259 -1216 
C 2298 -1216 2374 -1216 2374 -1095 
C 2374 -1031 2323 -1031 2227 -1031 
C 1926 -1031 1907 -986 1907 -935 
C 1907 -904 1914 -898 1933 -815 
L 2822 2759 
z
M 1920 762 
C 1888 652 1888 640 1798 518 
C 1658 339 1376 64 1075 64 
C 813 64 666 301 666 678 
C 666 1030 864 1747 986 2016 
C 1203 2464 1504 2695 1754 2695 
C 2176 2695 2259 2170 2259 2119 
C 2259 2113 2240 2028 2234 2016 
L 1920 762 
z
" transform="scale(0.015625)"/>
      </defs>
      <use xlink:href="#CMMI12-71" transform="scale(0.996264)"/>
     </g>
    </g>
   </g>
   <g id="matplotlib.axis_2">
    <g id="text_2">
     <!-- $\tilde{C}$ -->
     <g transform="translate(45.669406 39.824912) scale(0.12 -0.12)">
      <defs>
       <path id="CMR17-7e" d="M 2400 4184 
C 2182 3980 2061 3865 1862 3865 
C 1722 3865 1626 3932 1491 4024 
C 1363 4111 1261 4184 1120 4184 
C 890 4184 730 4004 461 3718 
L 531 3648 
C 749 3850 870 3968 1069 3968 
C 1210 3968 1306 3900 1440 3808 
C 1568 3722 1670 3648 1811 3648 
C 2042 3648 2202 3828 2470 4114 
L 2400 4184 
z
" transform="scale(0.015625)"/>
       <path id="CMMI12-43" d="M 4781 4423 
C 4781 4480 4736 4480 4723 4480 
C 4710 4480 4685 4480 4634 4416 
L 4192 3882 
C 3968 4264 3616 4480 3136 4480 
C 1754 4480 320 3088 320 1595 
C 320 533 1069 -128 2003 -128 
C 2515 -128 2963 88 3334 400 
C 3891 863 4058 1481 4058 1531 
C 4058 1588 4006 1588 3987 1588 
C 3930 1588 3923 1550 3910 1524 
C 3616 534 2752 57 2112 57 
C 1434 57 845 489 845 1391 
C 845 1595 909 2700 1632 3532 
C 1984 3939 2586 4295 3194 4295 
C 3898 4295 4211 3717 4211 3068 
C 4211 2903 4192 2764 4192 2738 
C 4192 2681 4256 2681 4275 2681 
C 4346 2681 4352 2687 4378 2801 
L 4781 4423 
z
" transform="scale(0.015625)"/>
      </defs>
      <use xlink:href="#CMR17-7e" transform="translate(23.757346 25.189733) scale(0.996264)"/>
      <use xlink:href="#CMMI12-43" transform="scale(0.996264)"/>
     </g>
    </g>
   </g>
   <g id="line2d_1">
    <path d="M 193.501447 183.845644 
L 191.890532 183.845089 
L 190.279618 183.84495 
L 188.668704 183.844811 
L 187.05779 183.844672 
L 185.446876 183.844533 
L 183.835962 183.844394 
L 182.225048 183.844255 
L 180.614134 183.844116 
L 179.00322 183.843977 
L 177.392306 183.843838 
L 175.781392 183.8437 
L 174.170478 183.843422 
L 172.559564 183.843283 
L 170.94865 183.843005 
L 169.337736 183.842866 
L 167.726821 183.842588 
L 166.115907 183.84231 
L 164.504993 183.842033 
L 162.894079 183.841755 
L 161.283165 183.841477 
L 159.672251 183.84106 
L 158.061337 183.840504 
L 156.450423 183.840088 
L 154.839509 183.839393 
L 153.228595 183.838837 
L 151.617681 183.838143 
L 150.006767 183.837309 
L 148.395853 183.836198 
L 146.784939 183.835364 
L 145.174024 183.833975 
L 143.56311 183.832447 
L 141.952196 183.830502 
L 140.341282 183.828696 
L 138.730368 183.825918 
L 137.119454 183.823418 
L 135.50854 183.819528 
L 133.897626 183.813971 
L 132.286712 183.808275 
L 130.675798 183.800079 
L 129.064884 183.789244 
L 127.45397 183.774935 
L 125.843056 183.756737 
L 124.232142 183.723397 
L 122.621228 183.677415 
L 121.010313 183.602677 
L 119.399399 183.433475 
L 117.788485 183.12869 
L 116.177571 182.218639 
L 114.566657 177.676445 
L 112.955743 118.741965 
L 111.344829 82.77893 
L 109.733915 73.177905 
L 108.123001 67.469913 
L 106.512087 63.495892 
L 104.901173 60.459427 
L 103.290259 58.044202 
L 101.679345 56.108244 
L 100.068431 54.490408 
L 98.457516 53.146239 
L 96.846602 52.009892 
L 95.235688 51.04608 
L 93.624774 50.209517 
L 92.01386 49.484922 
L 90.402946 48.864238 
L 88.792032 48.325931 
L 87.181118 47.84986 
L 85.570204 47.448665 
L 83.95929 47.091925 
L 82.348376 46.781443 
L 80.737462 46.510554 
L 79.126548 46.276199 
L 77.515634 46.075046 
L 75.90472 45.89876 
L 74.293805 45.743866 
L 72.682891 45.610366 
L 71.071977 45.497704 
L 69.461063 45.399628 
L 67.850149 45.317806 
L 66.239235 45.243762 
L 64.628321 45.184445 
L 63.017407 45.135545 
L 61.406493 45.091509 
L 59.795579 45.056779 
L 58.184665 45.027329 
L 56.573751 45.004824 
L 54.962837 44.98482 
L 53.351923 44.970233 
L 51.741008 44.958009 
L 50.130094 44.949118 
L 48.51918 44.942172 
L 46.908266 44.937171 
L 45.297352 44.933698 
L 43.686438 44.931336 
L 42.075524 44.929669 
L 40.46461 44.928697 
L 38.853696 44.92828 
L 37.242782 44.928002 
L 35.631868 44.927863 
L 34.020954 44.927863 
L 32.41004 44.927863 
" clip-path="url(#p66e27349b3)" style="fill: none; stroke: #a23b72; stroke-width: 2; stroke-linecap: square"/>
   </g>
   <g id="line2d_2">
    <path d="M 193.501447 183.845644 
L 191.890532 183.84495 
L 190.279618 183.844811 
L 188.668704 183.844533 
L 187.05779 183.844394 
L 185.446876 183.844116 
L 183.835962 183.843838 
L 182.225048 183.8437 
L 180.614134 183.843422 
L 179.00322 183.843005 
L 177.392306 183.842727 
L 175.781392 183.842171 
L 174.170478 183.841755 
L 172.559564 183.841199 
L 170.94865 183.840504 
L 169.337736 183.839949 
L 167.726821 183.838976 
L 166.115907 183.837865 
L 164.504993 183.836754 
L 162.894079 183.834948 
L 161.283165 183.833281 
L 159.672251 183.831336 
L 158.061337 183.827863 
L 156.450423 183.82439 
L 154.839509 183.819945 
L 153.228595 183.812999 
L 151.617681 183.802858 
L 150.006767 183.789799 
L 148.395853 183.767712 
L 146.784939 183.735066 
L 145.174024 183.674081 
L 143.56311 183.566003 
L 141.952196 183.30317 
L 140.341282 182.480638 
L 138.730368 176.822378 
L 137.119454 98.176299 
L 135.50854 78.020024 
L 133.897626 70.011691 
L 132.286712 64.907019 
L 130.675798 61.308909 
L 129.064884 58.562505 
L 127.45397 56.413447 
L 125.843056 54.673362 
L 124.232142 53.240564 
L 122.621228 52.05115 
L 121.010313 51.046636 
L 119.399399 50.194653 
L 117.788485 49.477004 
L 116.177571 48.851874 
L 114.566657 48.321764 
L 112.955743 47.857362 
L 111.344829 47.455472 
L 109.733915 47.116652 
L 108.123001 46.813117 
L 106.512087 46.547367 
L 104.901173 46.325654 
L 103.290259 46.130336 
L 101.679345 45.957383 
L 100.068431 45.808463 
L 98.457516 45.680381 
L 96.846602 45.56758 
L 95.235688 45.472282 
L 93.624774 45.387959 
L 92.01386 45.317389 
L 90.402946 45.254737 
L 88.792032 45.200976 
L 87.181118 45.156939 
L 85.570204 45.117625 
L 83.95929 45.084146 
L 82.348376 45.057613 
L 80.737462 45.033163 
L 79.126548 45.013715 
L 77.515634 44.996211 
L 75.90472 44.983292 
L 74.293805 44.971622 
L 72.682891 44.962315 
L 71.071977 44.954952 
L 69.461063 44.948701 
L 67.850149 44.943978 
L 66.239235 44.939949 
L 64.628321 44.936893 
L 63.017407 44.934393 
L 61.406493 44.932726 
L 59.795579 44.931197 
L 58.184665 44.930225 
L 56.573751 44.929391 
L 54.962837 44.928836 
L 53.351923 44.928558 
L 51.741008 44.92828 
L 50.130094 44.928141 
L 48.51918 44.928002 
L 46.908266 44.928002 
L 45.297352 44.927863 
L 43.686438 44.927863 
L 42.075524 44.927863 
L 40.46461 44.927863 
L 38.853696 44.927863 
L 37.242782 44.927863 
L 35.631868 44.927863 
L 34.020954 44.927863 
L 32.41004 44.927863 
" clip-path="url(#p66e27349b3)" style="fill: none; stroke: #2e86ab; stroke-width: 2; stroke-linecap: square"/>
   </g>
   <g id="line2d_3">
    <path d="M 193.501447 183.845644 
L 191.890532 183.845367 
L 190.279618 183.845228 
L 188.668704 183.845228 
L 187.05779 183.845228 
L 185.446876 183.845228 
L 183.835962 183.845089 
L 182.225048 183.845089 
L 180.614134 183.84495 
L 179.00322 183.84495 
L 177.392306 183.84495 
L 175.781392 183.84495 
L 174.170478 183.844811 
L 172.559564 183.844811 
L 170.94865 183.844672 
L 169.337736 183.844672 
L 167.726821 183.844672 
L 166.115907 183.844533 
L 164.504993 183.844533 
L 162.894079 183.844394 
L 161.283165 183.844394 
L 159.672251 183.844255 
L 158.061337 183.844116 
L 156.450423 183.843977 
L 154.839509 183.843977 
L 153.228595 183.843838 
L 151.617681 183.8437 
L 150.006767 183.843561 
L 148.395853 183.843422 
L 146.784939 183.843283 
L 145.174024 183.843144 
L 143.56311 183.843005 
L 141.952196 183.842866 
L 140.341282 183.842588 
L 138.730368 183.84231 
L 137.119454 183.842033 
L 135.50854 183.841894 
L 133.897626 183.841616 
L 132.286712 183.841199 
L 130.675798 183.840782 
L 129.064884 183.840366 
L 127.45397 183.839949 
L 125.843056 183.839393 
L 124.232142 183.83856 
L 122.621228 183.838004 
L 121.010313 183.837309 
L 119.399399 183.836059 
L 117.788485 183.835087 
L 116.177571 183.833559 
L 114.566657 183.83203 
L 112.955743 183.830086 
L 111.344829 183.827863 
L 109.733915 183.824529 
L 108.123001 183.821056 
L 106.512087 183.815916 
L 104.901173 183.809109 
L 103.290259 183.801746 
L 101.679345 183.788688 
L 100.068431 183.771046 
L 98.457516 183.745068 
L 96.846602 183.702281 
L 95.235688 183.615458 
L 93.624774 183.434726 
L 92.01386 182.996023 
L 90.402946 181.24552 
L 88.792032 154.546217 
L 87.181118 85.402253 
L 85.570204 73.645642 
L 83.95929 67.033711 
L 82.348376 62.6271 
L 80.737462 59.40254 
L 79.126548 56.869514 
L 77.515634 54.833118 
L 75.90472 53.185136 
L 74.293805 51.832911 
L 72.682891 50.692118 
L 71.071977 49.740114 
L 69.461063 48.934113 
L 67.850149 48.254527 
L 66.239235 47.687604 
L 64.628321 47.202225 
L 63.017407 46.793807 
L 61.406493 46.442345 
L 59.795579 46.151868 
L 58.184665 45.907512 
L 56.573751 45.705942 
L 54.962837 45.534517 
L 53.351923 45.395322 
L 51.741008 45.28252 
L 50.130094 45.19139 
L 48.51918 45.119153 
L 46.908266 45.061919 
L 45.297352 45.01941 
L 43.686438 44.98732 
L 42.075524 44.963982 
L 40.46461 44.948284 
L 38.853696 44.938004 
L 37.242782 44.931892 
L 35.631868 44.928975 
L 34.020954 44.928002 
L 32.41004 44.927863 
" clip-path="url(#p66e27349b3)" style="fill: none; stroke: #f18f01; stroke-width: 2; stroke-linecap: square"/>
   </g>
   <g id="line2d_4">
    <path d="M 112.955743 186.624 
L 112.955743 42.149508 
" clip-path="url(#p66e27349b3)" style="fill: none; stroke-dasharray: 7.4,3.2; stroke-dashoffset: 0; stroke: #a23b72; stroke-opacity: 0.5; stroke-width: 2"/>
   </g>
   <g id="line2d_5">
    <path d="M 137.554401 186.624 
L 137.554401 42.149508 
" clip-path="url(#p66e27349b3)" style="fill: none; stroke-dasharray: 7.4,3.2; stroke-dashoffset: 0; stroke: #2e86ab; stroke-opacity: 0.5; stroke-width: 2"/>
   </g>
   <g id="line2d_6">
    <path d="M 88.357085 186.624 
L 88.357085 42.149508 
" clip-path="url(#p66e27349b3)" style="fill: none; stroke-dasharray: 7.4,3.2; stroke-dashoffset: 0; stroke: #f18f01; stroke-opacity: 0.5; stroke-width: 2"/>
   </g>
   <g id="patch_3">
    <path d="M 29.188212 186.624 
L 29.188212 42.149508 
" style="fill: none; stroke: #000000; stroke-width: 0.8; stroke-linejoin: miter; stroke-linecap: square"/>
   </g>
   <g id="patch_4">
    <path d="M 29.188212 186.624 
L 196.723275 186.624 
" style="fill: none; stroke: #000000; stroke-width: 0.8; stroke-linejoin: miter; stroke-linecap: square"/>
   </g>
   <g id="patch_5">
    <path d="M 196.723275 186.624 
Q 205.100028 186.624 212.917764 186.624 
" style="fill: none; stroke: #000000; stroke-width: 0.5; stroke-linecap: round"/>
    <path d="M 203.317764 181.824 
L 212.917764 186.624 
L 203.317764 191.424 
" style="fill: none; stroke: #000000; stroke-width: 0.5; stroke-linecap: round"/>
   </g>
   <g id="patch_6">
    <path d="M 29.349303 42.149508 
Q 29.349303 34.925783 29.349303 28.261076 
" style="fill: none; stroke: #000000; stroke-width: 0.5; stroke-linecap: round"/>
    <path d="M 24.549303 37.861076 
L 29.349303 28.261076 
L 34.149303 37.861076 
" style="fill: none; stroke: #000000; stroke-width: 0.5; stroke-linecap: round"/>
   </g>
   <g id="text_3">
    <!-- $q_c^{\mathrm{squ}} = 1/2$ -->
    <g style="fill: #a23b72" transform="translate(144.980182 156.062088) scale(0.12 -0.12)">
     <defs>
      <path id="CMR17-73" d="M 1978 2697 
C 1978 2813 1971 2819 1933 2819 
C 1907 2819 1901 2813 1824 2717 
C 1805 2691 1747 2626 1728 2601 
C 1523 2819 1235 2819 1126 2819 
C 416 2819 160 2447 160 2076 
C 160 1498 813 1365 998 1325 
C 1402 1243 1542 1217 1677 1101 
C 1760 1025 1901 884 1901 654 
C 1901 384 1747 38 1158 38 
C 602 38 403 460 288 1021 
C 269 1110 269 1117 218 1117 
C 166 1117 160 1110 160 983 
L 160 63 
C 160 -51 166 -58 205 -58 
C 237 -58 243 -51 275 0 
C 314 57 410 211 448 276 
C 576 103 800 -64 1158 -64 
C 1792 -64 2131 283 2131 784 
C 2131 1112 1958 1285 1875 1362 
C 1683 1561 1459 1606 1190 1657 
C 838 1735 390 1825 390 2217 
C 390 2383 480 2737 1126 2737 
C 1811 2737 1850 2094 1862 1888 
C 1869 1856 1901 1849 1920 1849 
C 1978 1849 1978 1869 1978 1978 
L 1978 2697 
z
" transform="scale(0.015625)"/>
      <path id="CMR17-71" d="M 2630 2802 
L 2528 2802 
L 2336 2172 
C 2189 2509 1920 2802 1491 2802 
C 838 2802 211 2223 211 1383 
C 211 548 800 -38 1440 -38 
C 1933 -38 2208 338 2291 478 
L 2291 -789 
C 2291 -1031 2266 -1063 1856 -1063 
L 1856 -1228 
C 2010 -1216 2291 -1216 2458 -1216 
C 2624 -1216 2912 -1216 3066 -1228 
L 3066 -1063 
C 2656 -1063 2630 -1037 2630 -789 
L 2630 2802 
z
M 2304 886 
C 2304 612 2074 357 2054 338 
C 1856 115 1626 64 1472 64 
C 992 64 621 669 621 1375 
C 621 2121 1043 2688 1536 2688 
C 2048 2688 2304 2108 2304 1777 
L 2304 886 
z
" transform="scale(0.015625)"/>
      <path id="CMR17-75" d="M 1882 2693 
L 1882 2528 
C 2259 2528 2317 2489 2317 2186 
L 2317 1032 
C 2317 500 2029 38 1555 38 
C 1030 38 986 348 986 678 
L 986 2763 
L 211 2693 
L 211 2528 
C 467 2528 640 2528 646 2274 
L 646 1058 
C 646 633 646 361 813 183 
C 896 101 1056 -64 1517 -64 
C 2061 -64 2272 377 2323 506 
L 2330 506 
L 2330 -63 
L 3091 -63 
L 3091 128 
C 2714 128 2656 166 2656 473 
L 2656 2763 
L 1882 2693 
z
" transform="scale(0.015625)"/>
      <path id="CMMI12-63" d="M 2502 2431 
C 2381 2431 2323 2431 2234 2355 
C 2195 2323 2125 2227 2125 2125 
C 2125 1997 2221 1920 2342 1920 
C 2496 1920 2669 2044 2669 2292 
C 2669 2588 2374 2816 1933 2816 
C 1094 2816 256 1903 256 996 
C 256 441 602 -64 1254 -64 
C 2125 -64 2675 622 2675 706 
C 2675 744 2637 776 2611 776 
C 2592 776 2586 770 2528 713 
C 2118 162 1510 64 1267 64 
C 826 64 685 446 685 764 
C 685 988 794 1605 1024 2039 
C 1190 2338 1536 2682 1939 2682 
C 2022 2682 2374 2682 2502 2431 
z
" transform="scale(0.015625)"/>
      <path id="CMR17-3d" d="M 4115 2017 
C 4211 2017 4307 2017 4307 2125 
C 4307 2240 4198 2240 4090 2240 
L 512 2240 
C 403 2240 294 2240 294 2125 
C 294 2017 390 2017 486 2017 
L 4115 2017 
z
M 4090 896 
C 4198 896 4307 896 4307 1011 
C 4307 1119 4211 1119 4115 1119 
L 486 1119 
C 390 1119 294 1119 294 1011 
C 294 896 403 896 512 896 
L 4090 896 
z
" transform="scale(0.015625)"/>
      <path id="CMR17-31" d="M 1702 4058 
C 1702 4192 1696 4192 1606 4192 
C 1357 3916 979 3827 621 3827 
C 602 3827 570 3827 563 3808 
C 557 3795 557 3782 557 3648 
C 755 3648 1088 3686 1344 3839 
L 1344 461 
C 1344 236 1331 160 781 160 
L 589 160 
L 589 0 
C 896 0 1216 0 1523 0 
C 1830 0 2150 0 2458 0 
L 2458 160 
L 2266 160 
C 1715 160 1702 230 1702 458 
L 1702 4058 
z
" transform="scale(0.015625)"/>
      <path id="CMMI12-3d" d="M 2746 4562 
C 2746 4569 2784 4666 2784 4678 
C 2784 4755 2720 4800 2669 4800 
C 2637 4800 2579 4800 2528 4659 
L 384 -1363 
C 384 -1370 346 -1465 346 -1478 
C 346 -1555 410 -1600 461 -1600 
C 499 -1600 557 -1593 602 -1459 
L 2746 4562 
z
" transform="scale(0.015625)"/>
      <path id="CMR17-32" d="M 2669 989 
L 2554 989 
C 2490 536 2438 459 2413 420 
C 2381 369 1920 369 1830 369 
L 602 369 
C 832 619 1280 1072 1824 1597 
C 2214 1967 2669 2402 2669 3035 
C 2669 3790 2067 4224 1395 4224 
C 691 4224 262 3604 262 3030 
C 262 2780 448 2748 525 2748 
C 589 2748 781 2787 781 3010 
C 781 3207 614 3264 525 3264 
C 486 3264 448 3258 422 3245 
C 544 3790 915 4058 1306 4058 
C 1862 4058 2227 3617 2227 3035 
C 2227 2479 1901 2000 1536 1584 
L 262 146 
L 262 0 
L 2515 0 
L 2669 989 
z
" transform="scale(0.015625)"/>
     </defs>
     <use xlink:href="#CMMI12-71" transform="scale(0.996264)"/>
     <use xlink:href="#CMR17-73" transform="translate(46.826324 36.153639) scale(0.697382)"/>
     <use xlink:href="#CMR17-71" transform="translate(71.887146 36.153639) scale(0.697382)"/>
     <use xlink:href="#CMR17-75" transform="translate(105.692034 36.153639) scale(0.697382)"/>
     <use xlink:href="#CMMI12-63" transform="translate(43.251731 -24.62935) scale(0.697382)"/>
     <use xlink:href="#CMR17-3d" transform="translate(169.490783 0) scale(0.996264)"/>
     <use xlink:href="#CMR17-31" transform="translate(268.87958 0) scale(0.996264)"/>
     <use xlink:href="#CMMI12-3d" transform="translate(314.570057 0) scale(0.996264)"/>
     <use xlink:href="#CMR17-32" transform="translate(363.344976 0) scale(0.996264)"/>
    </g>
   </g>
   <g id="text_4">
    <!-- $q_c^{\mathrm{tri}} = 1-q_c^{\mathrm{hex}}$ -->
    <g style="fill: #2e86ab" transform="translate(145.698589 142.17031) scale(0.12 -0.12)">
     <defs>
      <path id="CMR17-74" d="M 966 2560 
L 1862 2560 
L 1862 2725 
L 966 2725 
L 966 3904 
L 851 3904 
C 838 3245 614 2668 70 2668 
L 70 2560 
L 627 2560 
L 627 771 
C 627 650 627 -64 1370 -64 
C 1747 -64 1965 306 1965 777 
L 1965 1140 
L 1850 1140 
L 1850 783 
C 1850 344 1677 51 1408 51 
C 1222 51 966 178 966 758 
L 966 2560 
z
" transform="scale(0.015625)"/>
      <path id="CMR17-72" d="M 960 1497 
C 960 2112 1222 2688 1702 2688 
C 1747 2688 1792 2682 1837 2662 
C 1837 2662 1696 2617 1696 2452 
C 1696 2298 1818 2234 1914 2234 
C 1990 2234 2131 2279 2131 2458 
C 2131 2663 1926 2790 1709 2790 
C 1222 2790 1011 2317 947 2093 
L 941 2093 
L 941 2790 
L 198 2720 
L 198 2554 
C 576 2554 634 2515 634 2208 
L 634 428 
C 634 184 608 153 198 153 
L 198 -13 
C 352 0 646 0 813 0 
C 998 0 1325 0 1498 -13 
L 1498 153 
C 1037 153 960 153 960 440 
L 960 1497 
z
" transform="scale(0.015625)"/>
      <path id="CMR17-69" d="M 992 3909 
C 992 4049 877 4170 730 4170 
C 589 4170 467 4056 467 3909 
C 467 3769 582 3648 730 3648 
C 870 3648 992 3763 992 3909 
z
M 243 2706 
L 243 2541 
C 602 2541 653 2502 653 2197 
L 653 427 
C 653 184 627 153 218 153 
L 218 -13 
C 371 0 646 0 806 0 
C 960 0 1222 0 1370 -13 
L 1370 153 
C 992 153 979 191 979 420 
L 979 2776 
L 243 2706 
z
" transform="scale(0.015625)"/>
      <path id="CMSY10-0" d="M 4218 1472 
C 4326 1472 4442 1472 4442 1600 
C 4442 1728 4326 1728 4218 1728 
L 755 1728 
C 646 1728 531 1728 531 1600 
C 531 1472 646 1472 755 1472 
L 4218 1472 
z
" transform="scale(0.015625)"/>
      <path id="CMR17-68" d="M 2656 1933 
C 2656 2259 2592 2790 1837 2790 
C 1312 2790 1056 2368 979 2157 
L 973 2157 
L 973 4396 
L 211 4326 
L 211 4160 
C 589 4160 646 4122 646 3817 
L 646 426 
C 646 184 621 153 211 153 
L 211 -13 
C 365 0 646 0 813 0 
C 979 0 1267 0 1421 -13 
L 1421 153 
C 1011 153 986 178 986 428 
L 986 1658 
C 986 2247 1344 2688 1792 2688 
C 2266 2688 2317 2266 2317 1958 
L 2317 428 
C 2317 184 2291 153 1882 153 
L 1882 -13 
C 2035 0 2317 0 2483 0 
C 2650 0 2938 0 3091 -13 
L 3091 153 
C 2682 153 2656 178 2656 428 
L 2656 1933 
z
" transform="scale(0.015625)"/>
      <path id="CMR17-65" d="M 2438 1472 
C 2464 1498 2464 1511 2464 1576 
C 2464 2238 2118 2816 1389 2816 
C 710 2816 173 2169 173 1383 
C 173 551 781 -64 1459 -64 
C 2176 -64 2458 607 2458 740 
C 2458 784 2419 784 2406 784 
C 2362 784 2355 771 2330 696 
C 2189 265 1837 51 1504 51 
C 1229 51 954 203 781 480 
C 582 803 582 1176 582 1472 
L 2438 1472 
z
M 589 1568 
C 634 2505 1126 2714 1382 2714 
C 1818 2714 2112 2297 2118 1568 
L 589 1568 
z
" transform="scale(0.015625)"/>
      <path id="CMR17-78" d="M 1664 1477 
C 1856 1726 2074 2006 2253 2216 
C 2464 2458 2707 2560 2989 2560 
L 2989 2726 
C 2880 2726 2656 2726 2541 2726 
C 2368 2726 2170 2726 2022 2732 
L 2022 2566 
C 2112 2553 2163 2489 2163 2400 
C 2163 2285 2099 2215 2067 2171 
L 1594 1573 
L 1030 2306 
C 973 2376 973 2388 973 2420 
C 973 2497 1037 2560 1146 2560 
L 1146 2732 
C 992 2726 717 2726 557 2726 
C 384 2726 179 2726 38 2732 
L 38 2560 
C 384 2560 461 2534 614 2343 
L 1350 1395 
C 1363 1382 1395 1344 1395 1325 
C 1395 1299 838 619 768 530 
C 480 185 179 160 6 160 
L 6 0 
C 115 0 339 0 454 0 
C 582 0 864 0 979 -6 
L 979 160 
C 941 166 838 179 838 325 
C 838 440 890 510 947 586 
L 1478 1236 
L 2035 512 
C 2086 442 2163 346 2163 301 
C 2163 211 2086 160 1984 160 
L 1984 -6 
C 2138 0 2413 0 2573 0 
C 2746 0 2950 0 3091 -6 
L 3091 160 
C 2771 160 2675 172 2522 370 
L 1664 1477 
z
" transform="scale(0.015625)"/>
     </defs>
     <use xlink:href="#CMMI12-71" transform="scale(0.996264)"/>
     <use xlink:href="#CMR17-74" transform="translate(46.826324 36.153639) scale(0.697382)"/>
     <use xlink:href="#CMR17-72" transform="translate(71.522744 36.153639) scale(0.697382)"/>
     <use xlink:href="#CMR17-69" transform="translate(96.219165 36.153639) scale(0.697382)"/>
     <use xlink:href="#CMMI12-63" transform="translate(43.251731 -24.62935) scale(0.697382)"/>
     <use xlink:href="#CMR17-3d" transform="translate(141.800964 0) scale(0.996264)"/>
     <use xlink:href="#CMR17-31" transform="translate(241.189761 0) scale(0.996264)"/>
     <use xlink:href="#CMSY10-0" transform="translate(309.019446 0) scale(0.996264)"/>
     <use xlink:href="#CMMI12-71" transform="translate(408.64612 0) scale(0.996264)"/>
     <use xlink:href="#CMR17-68" transform="translate(455.472444 36.153639) scale(0.697382)"/>
     <use xlink:href="#CMR17-65" transform="translate(491.099052 36.153639) scale(0.697382)"/>
     <use xlink:href="#CMR17-78" transform="translate(519.438884 36.153639) scale(0.697382)"/>
     <use xlink:href="#CMMI12-63" transform="translate(451.897851 -24.62935) scale(0.697382)"/>
    </g>
   </g>
   <g id="text_5">
    <!-- $q_c^{\mathrm{hex}} = 2\mathrm{sin}(\pi/18)$ -->
    <g style="fill: #f18f01" transform="translate(139.45616 128.278532) scale(0.12 -0.12)">
     <defs>
      <path id="CMR17-6e" d="M 2656 1933 
C 2656 2259 2592 2790 1837 2790 
C 1331 2790 1069 2400 973 2144 
L 966 2144 
L 966 2790 
L 211 2720 
L 211 2554 
C 589 2554 646 2515 646 2208 
L 646 428 
C 646 184 621 153 211 153 
L 211 -13 
C 365 0 646 0 813 0 
C 979 0 1267 0 1421 -13 
L 1421 153 
C 1011 153 986 178 986 428 
L 986 1658 
C 986 2247 1344 2688 1792 2688 
C 2266 2688 2317 2266 2317 1958 
L 2317 428 
C 2317 184 2291 153 1882 153 
L 1882 -13 
C 2035 0 2317 0 2483 0 
C 2650 0 2938 0 3091 -13 
L 3091 153 
C 2682 153 2656 178 2656 428 
L 2656 1933 
z
" transform="scale(0.015625)"/>
      <path id="CMR17-28" d="M 1958 -1561 
C 1958 -1555 1958 -1542 1939 -1523 
C 1645 -1224 858 -407 858 1581 
C 858 3569 1632 4379 1946 4697 
C 1946 4704 1958 4717 1958 4736 
C 1958 4755 1939 4768 1914 4768 
C 1843 4768 1299 4296 986 3594 
C 666 2887 576 2199 576 1588 
C 576 1128 621 351 1005 -471 
C 1312 -1135 1837 -1600 1914 -1600 
C 1946 -1600 1958 -1587 1958 -1561 
z
" transform="scale(0.015625)"/>
      <path id="CMMI12-19" d="M 1658 2408 
L 2381 2408 
C 2208 1692 2099 1226 2099 716 
C 2099 626 2099 -64 2362 -64 
C 2496 -64 2611 57 2611 166 
C 2611 197 2611 210 2566 306 
C 2394 747 2394 1296 2394 1341 
C 2394 1379 2394 1832 2528 2408 
L 3245 2408 
C 3328 2408 3539 2408 3539 2612 
C 3539 2752 3418 2752 3302 2752 
L 1197 2752 
C 1050 2752 832 2752 538 2440 
C 371 2254 166 1916 166 1878 
C 166 1840 198 1827 237 1827 
C 282 1827 288 1846 320 1884 
C 653 2408 986 2408 1146 2408 
L 1510 2408 
C 1370 1929 1210 1373 685 256 
C 634 154 634 140 634 102 
C 634 -32 749 -64 806 -64 
C 992 -64 1043 102 1120 370 
C 1222 696 1222 709 1286 964 
L 1658 2408 
z
" transform="scale(0.015625)"/>
      <path id="CMR17-38" d="M 1741 2264 
C 2144 2467 2554 2773 2554 3263 
C 2554 3841 1990 4179 1472 4179 
C 890 4179 378 3759 378 3180 
C 378 3021 416 2747 666 2505 
C 730 2442 998 2251 1171 2130 
C 883 1983 211 1634 211 934 
C 211 279 838 -128 1459 -128 
C 2144 -128 2720 362 2720 1010 
C 2720 1590 2330 1857 2074 2029 
L 1741 2264 
z
M 902 2822 
C 851 2854 595 3051 595 3351 
C 595 3739 998 4032 1459 4032 
C 1965 4032 2336 3676 2336 3262 
C 2336 2669 1670 2331 1638 2331 
C 1632 2331 1626 2331 1574 2370 
L 902 2822 
z
M 2080 1519 
C 2176 1449 2483 1240 2483 851 
C 2483 381 2010 25 1472 25 
C 890 25 448 438 448 940 
C 448 1443 838 1862 1280 2060 
L 2080 1519 
z
" transform="scale(0.015625)"/>
      <path id="CMR17-29" d="M 1683 1581 
C 1683 2040 1638 2817 1254 3639 
C 947 4303 422 4768 346 4768 
C 326 4768 301 4761 301 4729 
C 301 4717 307 4710 314 4697 
C 621 4378 1402 3568 1402 1584 
C 1402 -407 627 -1217 314 -1537 
C 307 -1549 301 -1556 301 -1568 
C 301 -1600 326 -1600 346 -1600 
C 416 -1600 960 -1128 1274 -426 
C 1594 281 1683 969 1683 1581 
z
" transform="scale(0.015625)"/>
     </defs>
     <use xlink:href="#CMMI12-71" transform="scale(0.996264)"/>
     <use xlink:href="#CMR17-68" transform="translate(46.826324 36.153639) scale(0.697382)"/>
     <use xlink:href="#CMR17-65" transform="translate(82.452932 36.153639) scale(0.697382)"/>
     <use xlink:href="#CMR17-78" transform="translate(110.792764 36.153639) scale(0.697382)"/>
     <use xlink:href="#CMMI12-63" transform="translate(43.251731 -24.62935) scale(0.697382)"/>
     <use xlink:href="#CMR17-3d" transform="translate(172.769792 0) scale(0.996264)"/>
     <use xlink:href="#CMR17-32" transform="translate(272.158589 0) scale(0.996264)"/>
     <use xlink:href="#CMR17-73" transform="translate(317.849066 0) scale(0.996264)"/>
     <use xlink:href="#CMR17-69" transform="translate(353.650404 0) scale(0.996264)"/>
     <use xlink:href="#CMR17-6e" transform="translate(378.521462 0) scale(0.996264)"/>
     <use xlink:href="#CMR17-28" transform="translate(429.416832 0) scale(0.996264)"/>
     <use xlink:href="#CMMI12-19" transform="translate(464.6976 0) scale(0.996264)"/>
     <use xlink:href="#CMMI12-3d" transform="translate(523.608201 0) scale(0.996264)"/>
     <use xlink:href="#CMR17-31" transform="translate(572.38312 0) scale(0.996264)"/>
     <use xlink:href="#CMR17-38" transform="translate(618.073597 0) scale(0.996264)"/>
     <use xlink:href="#CMR17-29" transform="translate(663.764074 0) scale(0.996264)"/>
    </g>
   </g>
   <g id="text_6">
    <!-- $\beta = 5/36$ -->
    <g transform="translate(152.566621 65.765531) scale(0.12 -0.12)">
     <defs>
      <path id="CMMI12-c" d="M 3622 3701 
C 3622 4081 3296 4480 2714 4480 
C 1888 4480 1363 3477 1197 2816 
L 186 -1172 
C 173 -1223 211 -1236 243 -1236 
C 288 -1236 320 -1230 326 -1198 
L 774 586 
C 838 229 1190 -64 1568 -64 
C 2483 -64 3347 650 3347 1599 
C 3347 1841 3290 2083 3155 2287 
C 3078 2408 2982 2497 2880 2574 
C 3341 2815 3622 3200 3622 3701 
z
M 2509 2580 
C 2406 2542 2304 2529 2182 2529 
C 2093 2529 2010 2523 1894 2561 
C 1958 2606 2054 2618 2189 2618 
C 2304 2618 2419 2606 2509 2580 
z
M 3290 3758 
C 3290 3410 3117 2903 2701 2669 
C 2579 2718 2413 2752 2272 2752 
C 2138 2752 1754 2752 1754 2555 
C 1754 2389 2106 2389 2214 2389 
C 2381 2389 2528 2432 2682 2484 
C 2886 2318 2976 2101 2976 1783 
C 2976 1413 2874 1115 2752 841 
C 2541 369 2042 64 1600 64 
C 1133 64 890 432 890 864 
C 890 922 890 1005 915 1099 
L 1331 2771 
C 1542 3603 2080 4353 2701 4353 
C 3162 4353 3290 4036 3290 3758 
z
" transform="scale(0.015625)"/>
      <path id="CMR17-35" d="M 730 3692 
C 794 3666 1056 3584 1325 3584 
C 1920 3584 2246 3911 2432 4100 
C 2432 4157 2432 4192 2394 4192 
C 2387 4192 2374 4192 2323 4163 
C 2099 4058 1837 3973 1517 3973 
C 1325 3973 1037 3999 723 4139 
C 653 4171 640 4171 634 4171 
C 602 4171 595 4164 595 4037 
L 595 2203 
C 595 2089 595 2057 659 2057 
C 691 2057 704 2070 736 2114 
C 941 2401 1222 2522 1542 2522 
C 1766 2522 2246 2382 2246 1289 
C 2246 1085 2246 715 2054 421 
C 1894 159 1645 25 1370 25 
C 947 25 518 320 403 814 
C 429 807 480 795 506 795 
C 589 795 749 840 749 1038 
C 749 1210 627 1280 506 1280 
C 358 1280 262 1190 262 1011 
C 262 454 704 -128 1382 -128 
C 2042 -128 2669 440 2669 1264 
C 2669 2030 2170 2624 1549 2624 
C 1222 2624 947 2503 730 2274 
L 730 3692 
z
" transform="scale(0.015625)"/>
      <path id="CMR17-33" d="M 1414 2157 
C 1984 2157 2234 1662 2234 1090 
C 2234 320 1824 25 1453 25 
C 1114 25 563 194 390 693 
C 422 680 454 680 486 680 
C 640 680 755 782 755 948 
C 755 1133 614 1216 486 1216 
C 378 1216 211 1165 211 926 
C 211 335 787 -128 1466 -128 
C 2176 -128 2720 430 2720 1085 
C 2720 1707 2208 2157 1600 2227 
C 2086 2328 2554 2756 2554 3329 
C 2554 3820 2048 4179 1472 4179 
C 890 4179 378 3829 378 3329 
C 378 3110 544 3072 627 3072 
C 762 3072 877 3155 877 3321 
C 877 3486 762 3569 627 3569 
C 602 3569 570 3569 544 3557 
C 730 3959 1235 4032 1459 4032 
C 1683 4032 2106 3925 2106 3320 
C 2106 3143 2080 2828 1862 2550 
C 1670 2304 1453 2304 1242 2284 
C 1210 2284 1062 2269 1037 2269 
C 992 2263 966 2257 966 2208 
C 966 2163 973 2157 1101 2157 
L 1414 2157 
z
" transform="scale(0.015625)"/>
      <path id="CMR17-36" d="M 678 2176 
C 678 3690 1395 4032 1811 4032 
C 1946 4032 2272 4009 2400 3776 
C 2298 3776 2106 3776 2106 3553 
C 2106 3381 2246 3323 2336 3323 
C 2394 3323 2566 3348 2566 3560 
C 2566 3954 2246 4179 1805 4179 
C 1043 4179 243 3390 243 1984 
C 243 253 966 -128 1478 -128 
C 2099 -128 2688 427 2688 1283 
C 2688 2081 2170 2662 1517 2662 
C 1126 2662 838 2407 678 1960 
L 678 2176 
z
M 1478 25 
C 691 25 691 1200 691 1436 
C 691 1896 909 2560 1504 2560 
C 1613 2560 1926 2560 2138 2120 
C 2253 1870 2253 1609 2253 1289 
C 2253 944 2253 690 2118 434 
C 1978 171 1773 25 1478 25 
z
" transform="scale(0.015625)"/>
     </defs>
     <use xlink:href="#CMMI12-c" transform="scale(0.996264)"/>
     <use xlink:href="#CMR17-3d" transform="translate(88.268024 0) scale(0.996264)"/>
     <use xlink:href="#CMR17-35" transform="translate(187.656822 0) scale(0.996264)"/>
     <use xlink:href="#CMMI12-3d" transform="translate(233.347299 0) scale(0.996264)"/>
     <use xlink:href="#CMR17-33" transform="translate(282.122217 0) scale(0.996264)"/>
     <use xlink:href="#CMR17-36" transform="translate(327.812695 0) scale(0.996264)"/>
    </g>
   </g>
   <g id="text_7">
    <!-- $\nu = 4/3$ -->
    <g transform="translate(154.248876 79.657309) scale(0.12 -0.12)">
     <defs>
      <path id="CMMI12-17" d="M 1408 2753 
C 1408 2778 1389 2816 1338 2816 
C 1293 2816 691 2751 595 2751 
C 525 2744 461 2738 461 2623 
C 461 2560 512 2560 602 2560 
C 902 2560 922 2515 922 2445 
C 922 2419 909 2343 902 2318 
L 339 64 
C 339 38 358 0 403 0 
L 538 0 
C 627 0 1600 230 2349 996 
C 3174 1846 3290 2632 3290 2657 
C 3290 2759 3206 2816 3123 2816 
C 2938 2816 2893 2644 2880 2599 
C 2502 1264 1626 473 774 192 
L 1408 2753 
z
" transform="scale(0.015625)"/>
      <path id="CMR17-34" d="M 2150 4122 
C 2150 4256 2144 4256 2029 4256 
L 128 1254 
L 128 1088 
L 1779 1088 
L 1779 457 
C 1779 224 1766 160 1318 160 
L 1197 160 
L 1197 0 
C 1402 0 1747 0 1965 0 
C 2182 0 2528 0 2733 0 
L 2733 160 
L 2611 160 
C 2163 160 2150 224 2150 457 
L 2150 1088 
L 2803 1088 
L 2803 1254 
L 2150 1254 
L 2150 4122 
z
M 1798 3703 
L 1798 1254 
L 256 1254 
L 1798 3703 
z
" transform="scale(0.015625)"/>
     </defs>
     <use xlink:href="#CMMI12-17" transform="scale(0.996264)"/>
     <use xlink:href="#CMR17-3d" transform="translate(82.156802 0) scale(0.996264)"/>
     <use xlink:href="#CMR17-34" transform="translate(181.545599 0) scale(0.996264)"/>
     <use xlink:href="#CMMI12-3d" transform="translate(227.236076 0) scale(0.996264)"/>
     <use xlink:href="#CMR17-33" transform="translate(276.010995 0) scale(0.996264)"/>
    </g>
   </g>
   <g id="text_8">
    <!-- $\beta/\nu = 5/48$ -->
    <g transform="translate(141.538422 93.549087) scale(0.12 -0.12)">
     <use xlink:href="#CMMI12-c" transform="scale(0.996264)"/>
     <use xlink:href="#CMMI12-3d" transform="translate(60.594016 0) scale(0.996264)"/>
     <use xlink:href="#CMMI12-17" transform="translate(109.368934 0) scale(0.996264)"/>
     <use xlink:href="#CMR17-3d" transform="translate(191.525736 0) scale(0.996264)"/>
     <use xlink:href="#CMR17-35" transform="translate(290.914533 0) scale(0.996264)"/>
     <use xlink:href="#CMMI12-3d" transform="translate(336.60501 0) scale(0.996264)"/>
     <use xlink:href="#CMR17-34" transform="translate(385.379929 0) scale(0.996264)"/>
     <use xlink:href="#CMR17-38" transform="translate(431.070406 0) scale(0.996264)"/>
    </g>
   </g>
   <g id="text_9">
    <!-- $\cdots$ $\cdots$ -->
    <g transform="translate(155.049987 107.440865) scale(0.12 -0.12)">
     <defs>
      <path id="CMSY10-1" d="M 1229 1619 
C 1229 1805 1075 1958 890 1958 
C 704 1958 550 1805 550 1619 
C 550 1433 704 1280 890 1280 
C 1075 1280 1229 1433 1229 1619 
z
" transform="scale(0.015625)"/>
     </defs>
     <use xlink:href="#CMSY10-1" transform="scale(0.996264)"/>
     <use xlink:href="#CMSY10-1" transform="translate(44.27849 0) scale(0.996264)"/>
     <use xlink:href="#CMSY10-1" transform="translate(88.55698 0) scale(0.996264)"/>
     <use xlink:href="#CMSY10-1" transform="translate(147.460177 0) scale(0.996264)"/>
     <use xlink:href="#CMSY10-1" transform="translate(191.738667 0) scale(0.996264)"/>
     <use xlink:href="#CMSY10-1" transform="translate(236.017157 0) scale(0.996264)"/>
    </g>
   </g>
  </g>
 </g>
 <defs>
  <clipPath id="p66e27349b3">
   <rect x="29.188212" y="42.149508" width="167.535063" height="144.474492"/>
  </clipPath>
 </defs>
</svg>
