<?xml version="1.0" encoding="utf-8" standalone="no"?>
<!DOCTYPE svg PUBLIC "-//W3C//DTD SVG 1.1//EN"
  "http://www.w3.org/Graphics/SVG/1.1/DTD/svg11.dtd">
<svg xmlns:xlink="http://www.w3.org/1999/xlink" width="252pt" height="216pt" viewBox="0 0 252 216" xmlns="http://www.w3.org/2000/svg" version="1.1">
 <metadata>
  <rdf:RDF xmlns:dc="http://purl.org/dc/elements/1.1/" xmlns:cc="http://creativecommons.org/ns#" xmlns:rdf="http://www.w3.org/1999/02/22-rdf-syntax-ns#">
   <cc:Work>
    <dc:type rdf:resource="http://purl.org/dc/dcmitype/StillImage"/>
    <dc:date>2025-12-18T14:50:11.403325</dc:date>
    <dc:format>image/svg+xml</dc:format>
    <dc:creator>
     <cc:Agent>
      <dc:title>Matplotlib v3.10.7, https://matplotlib.org/</dc:title>
     </cc:Agent>
    </dc:creator>
   </cc:Work>
  </rdf:RDF>
 </metadata>
 <defs>
  <style type="text/css">*{stroke-linejoin: round; stroke-linecap: butt}</style>
 </defs>
 <g id="figure_1">
  <g id="patch_1">
   <path d="M 0 216 
L 252 216 
L 252 0 
L 0 0 
z
" style="fill: #ffffff"/>
  </g>
  <g id="axes_1">
   <g id="patch_2">
    <path d="M 29.188212 186.624 
L 206.952492 186.624 
L 206.952492 42.149508 
L 29.188212 42.149508 
z
" style="fill: #ffffff"/>
   </g>
   <g id="matplotlib.axis_1">
    <g id="text_1">
     <!-- $q$ -->
     <g transform="translate(200.032215 172.693588) scale(0.16 -0.16)">
      <defs>
       <path id="CMMI12-71" d="M 2822 2759 
C 2822 2790 2797 2816 2765 2816 
C 2714 2816 2464 2585 2342 2362 
C 2227 2646 2029 2816 1754 2816 
C 1030 2816 250 1884 250 939 
C 250 307 621 -64 1056 -64 
C 1395 -64 1677 193 1811 339 
L 1818 333 
L 1574 -615 
L 1517 -842 
C 1459 -1031 1363 -1031 1062 -1031 
C 992 -1031 928 -1031 928 -1152 
C 928 -1197 966 -1216 1011 -1216 
C 1101 -1216 1216 -1216 1306 -1216 
L 1958 -1216 
C 2054 -1216 2163 -1216 2259 -1216 
C 2298 -1216 2374 -1216 2374 -1095 
C 2374 -1031 2323 -1031 2227 -1031 
C 1926 -1031 1907 -986 1907 -935 
C 1907 -904 1914 -898 1933 -815 
L 2822 2759 
z
M 1920 762 
C 1888 652 1888 640 1798 518 
C 1658 339 1376 64 1075 64 
C 813 64 666 301 666 678 
C 666 1030 864 1747 986 2016 
C 1203 2464 1504 2695 1754 2695 
C 2176 2695 2259 2170 2259 2119 
C 2259 2113 2240 2028 2234 2016 
L 1920 762 
z
" transform="scale(0.015625)"/>
      </defs>
      <use xlink:href="#CMMI12-71" transform="scale(0.996264)"/>
     </g>
    </g>
   </g>
   <g id="matplotlib.axis_2">
    <g id="text_2">
     <!-- $\tilde{C}$ -->
     <g transform="translate(45.669406 39.824912) scale(0.12 -0.12)">
      <defs>
       <path id="CMR17-7e" d="M 2400 4184 
C 2182 3980 2061 3865 1862 3865 
C 1722 3865 1626 3932 1491 4024 
C 1363 4111 1261 4184 1120 4184 
C 890 4184 730 4004 461 3718 
L 531 3648 
C 749 3850 870 3968 1069 3968 
C 1210 3968 1306 3900 1440 3808 
C 1568 3722 1670 3648 1811 3648 
C 2042 3648 2202 3828 2470 4114 
L 2400 4184 
z
" transform="scale(0.015625)"/>
       <path id="CMMI12-43" d="M 4781 4423 
C 4781 4480 4736 4480 4723 4480 
C 4710 4480 4685 4480 4634 4416 
L 4192 3882 
C 3968 4264 3616 4480 3136 4480 
C 1754 4480 320 3088 320 1595 
C 320 533 1069 -128 2003 -128 
C 2515 -128 2963 88 3334 400 
C 3891 863 4058 1481 4058 1531 
C 4058 1588 4006 1588 3987 1588 
C 3930 1588 3923 1550 3910 1524 
C 3616 534 2752 57 2112 57 
C 1434 57 845 489 845 1391 
C 845 1595 909 2700 1632 3532 
C 1984 3939 2586 4295 3194 4295 
C 3898 4295 4211 3717 4211 3068 
C 4211 2903 4192 2764 4192 2738 
C 4192 2681 4256 2681 4275 2681 
C 4346 2681 4352 2687 4378 2801 
L 4781 4423 
z
" transform="scale(0.015625)"/>
      </defs>
      <use xlink:href="#CMR17-7e" transform="translate(23.757346 25.189733) scale(0.996264)"/>
      <use xlink:href="#CMMI12-43" transform="scale(0.996264)"/>
     </g>
    </g>
   </g>
   <g id="line2d_1">
    <path d="M 146.558217 186.624 
L 146.558217 42.149508 
" clip-path="url(#p9e3960ca60)" style="fill: none; stroke-dasharray: 7.4,3.2; stroke-dashoffset: 0; stroke: #f18f01; stroke-opacity: 0.5; stroke-width: 2"/>
   </g>
   <g id="line2d_2">
    <path d="M 160.80215 186.624 
L 160.80215 42.149508 
" clip-path="url(#p9e3960ca60)" style="fill: none; stroke-dasharray: 7.4,3.2; stroke-dashoffset: 0; stroke: #a23b72; stroke-opacity: 0.5; stroke-width: 2"/>
   </g>
   <g id="line2d_3">
    <path d="M 175.046083 186.624 
L 175.046083 42.149508 
" clip-path="url(#p9e3960ca60)" style="fill: none; stroke-dasharray: 7.4,3.2; stroke-dashoffset: 0; stroke: #2e86ab; stroke-opacity: 0.5; stroke-width: 2"/>
   </g>
   <g id="patch_3">
    <path d="M 29.188212 186.624 
L 29.188212 42.149508 
" style="fill: none; stroke: #000000; stroke-width: 0.8; stroke-linejoin: miter; stroke-linecap: square"/>
   </g>
   <g id="patch_4">
    <path d="M 29.188212 186.624 
L 206.952492 186.624 
" style="fill: none; stroke: #000000; stroke-width: 0.8; stroke-linejoin: miter; stroke-linecap: square"/>
   </g>
   <g id="line2d_4">
    <path d="M 203.533948 183.845644 
L 146.558217 183.845643 
L 144.416273 173.902208 
L 142.274328 164.88039 
L 140.132383 156.671697 
L 137.562049 147.764741 
L 134.991716 139.759323 
L 132.421382 132.540895 
L 129.851048 126.012583 
L 127.280714 120.091985 
L 124.710381 114.708634 
L 122.140047 109.80197 
L 119.569713 105.319701 
L 116.570991 100.56661 
L 113.572268 96.267624 
L 110.573545 92.369664 
L 107.574822 88.827108 
L 104.5761 85.60057 
L 101.148988 82.256454 
L 97.721877 79.236649 
L 94.294765 76.503431 
L 90.439264 73.730832 
L 86.583764 71.240223 
L 82.728263 68.997689 
L 78.444374 66.761688 
L 73.732095 64.573848 
L 69.019817 62.63359 
L 63.879149 60.761361 
L 58.310093 58.981233 
L 52.312647 57.311017 
L 45.886813 55.762742 
L 39.03259 54.343309 
L 32.606755 53.196279 
L 32.606755 53.196279 
" clip-path="url(#p9e3960ca60)" style="fill: none; stroke: #f18f01; stroke-opacity: 0.9; stroke-width: 3; stroke-linecap: square"/>
   </g>
   <g id="line2d_5">
    <path d="M 203.533948 183.845644 
L 161.123442 183.845644 
L 160.695053 183.151635 
L 158.553108 170.189347 
L 156.411163 158.786675 
L 154.269219 148.707594 
L 152.127274 139.759323 
L 149.985329 131.783069 
L 147.843384 124.647028 
L 145.701439 118.241018 
L 143.559495 112.472328 
L 141.41755 107.262476 
L 139.275605 102.54465 
L 136.705271 97.452815 
L 134.134938 92.903764 
L 131.564604 88.827108 
L 128.99427 85.163383 
L 126.423937 81.862072 
L 123.853603 78.880037 
L 120.85488 75.755432 
L 117.856157 72.965105 
L 114.857435 70.466676 
L 111.430323 67.922774 
L 108.003211 65.667729 
L 104.5761 63.663295 
L 100.720599 61.667817 
L 96.865099 59.91 
L 92.581209 58.196324 
L 87.868931 56.55988 
L 82.728263 55.025585 
L 77.159207 53.610569 
L 71.161761 52.324952 
L 64.735927 51.172855 
L 57.453315 50.09602 
L 49.313925 49.122631 
L 39.889368 48.232796 
L 32.606755 47.682242 
L 32.606755 47.682242 
" clip-path="url(#p9e3960ca60)" style="fill: none; stroke: #a23b72; stroke-opacity: 0.9; stroke-width: 3; stroke-linecap: square"/>
   </g>
   <g id="line2d_6">
    <path d="M 203.533948 183.845644 
L 175.260277 183.845644 
L 174.831888 181.777415 
L 173.118333 166.616476 
L 171.404777 153.594627 
L 169.691221 142.335094 
L 167.977665 132.540895 
L 166.264109 123.97523 
L 164.550553 116.447313 
L 162.836998 109.80197 
L 161.123442 103.911905 
L 159.409886 98.671865 
L 157.267941 92.903764 
L 155.125996 87.874578 
L 152.984052 83.470279 
L 150.842107 79.597732 
L 148.700162 76.18026 
L 146.558217 73.154271 
L 144.416273 70.466676 
L 141.845939 67.625945 
L 139.275605 65.14448 
L 136.705271 62.969482 
L 134.134938 61.05719 
L 131.136215 59.109863 
L 128.137492 57.422664 
L 124.710381 55.762742 
L 121.283269 54.343309 
L 117.427768 52.985721 
L 113.143879 51.722567 
L 108.4316 50.575618 
L 103.290933 49.556849 
L 97.293488 48.609652 
L 90.439264 47.771926 
L 82.728263 47.062834 
L 73.732095 46.461745 
L 62.593982 45.951083 
L 48.457147 45.543182 
L 32.606755 45.277445 
L 32.606755 45.277445 
" clip-path="url(#p9e3960ca60)" style="fill: none; stroke: #2e86ab; stroke-opacity: 0.9; stroke-width: 3; stroke-linecap: square"/>
   </g>
   <g id="patch_5">
    <path d="M 206.952492 186.624 
Q 215.840706 186.624 224.169903 186.624 
" style="fill: none; stroke: #000000; stroke-width: 0.5; stroke-linecap: round"/>
    <path d="M 214.569903 181.824 
L 224.169903 186.624 
L 214.569903 191.424 
" style="fill: none; stroke: #000000; stroke-width: 0.5; stroke-linecap: round"/>
   </g>
   <g id="patch_6">
    <path d="M 29.359139 42.149508 
Q 29.359139 34.925783 29.359139 28.261076 
" style="fill: none; stroke: #000000; stroke-width: 0.5; stroke-linecap: round"/>
    <path d="M 24.559139 37.861076 
L 29.359139 28.261076 
L 34.159139 37.861076 
" style="fill: none; stroke: #000000; stroke-width: 0.5; stroke-linecap: round"/>
   </g>
   <g id="text_3">
    <!-- $q_c^{\langle k \rangle =3} = 2/3$ -->
    <g style="fill: #f18f01" transform="translate(36.066503 176.899755) scale(0.12 -0.12)">
     <defs>
      <path id="CMSY10-68" d="M 2099 4557 
C 2131 4627 2131 4640 2131 4672 
C 2131 4742 2074 4800 2003 4800 
C 1946 4800 1901 4768 1856 4653 
L 736 1715 
C 723 1677 704 1638 704 1600 
C 704 1581 704 1568 736 1491 
L 1856 -1446 
C 1882 -1517 1914 -1600 2003 -1600 
C 2074 -1600 2131 -1542 2131 -1472 
C 2131 -1453 2131 -1440 2099 -1370 
L 966 1600 
L 2099 4557 
z
" transform="scale(0.015625)"/>
      <path id="CMMI12-6b" d="M 1798 4257 
C 1805 4283 1818 4321 1818 4352 
C 1818 4416 1754 4416 1741 4416 
C 1734 4416 1504 4393 1389 4377 
C 1280 4377 1184 4358 1069 4358 
C 915 4345 870 4339 870 4224 
C 870 4160 934 4160 998 4160 
C 1325 4160 1325 4103 1325 4040 
C 1325 4015 1325 4002 1293 3888 
L 378 248 
C 352 152 352 140 352 101 
C 352 -38 461 -64 525 -64 
C 704 -64 742 77 794 275 
L 1094 1469 
C 1555 1418 1830 1226 1830 920 
C 1830 881 1830 856 1811 760 
C 1786 664 1786 588 1786 556 
C 1786 185 2029 -64 2355 -64 
C 2650 -64 2803 204 2854 294 
C 2989 530 3072 888 3072 913 
C 3072 945 3046 971 3008 971 
C 2950 971 2944 945 2918 843 
C 2829 511 2694 64 2368 64 
C 2240 64 2157 128 2157 370 
C 2157 492 2182 632 2208 728 
C 2234 843 2234 849 2234 926 
C 2234 1303 1894 1514 1306 1590 
C 1536 1731 1766 1980 1856 2076 
C 2221 2484 2470 2689 2765 2689 
C 2912 2689 2950 2650 2995 2612 
C 2758 2586 2669 2420 2669 2293 
C 2669 2139 2790 2088 2880 2088 
C 3053 2088 3206 2235 3206 2440 
C 3206 2625 3059 2816 2771 2816 
C 2419 2816 2131 2567 1677 2056 
C 1613 1980 1376 1737 1139 1648 
L 1798 4257 
z
" transform="scale(0.015625)"/>
      <path id="CMSY10-69" d="M 1747 1491 
C 1779 1568 1779 1581 1779 1600 
C 1779 1619 1779 1632 1747 1709 
L 627 4653 
C 589 4762 550 4800 480 4800 
C 410 4800 352 4742 352 4672 
C 352 4653 352 4640 384 4570 
L 1517 1600 
L 384 -1357 
C 352 -1427 352 -1440 352 -1472 
C 352 -1542 410 -1600 480 -1600 
C 563 -1600 589 -1536 614 -1472 
L 1747 1491 
z
" transform="scale(0.015625)"/>
      <path id="CMR17-3d" d="M 4115 2017 
C 4211 2017 4307 2017 4307 2125 
C 4307 2240 4198 2240 4090 2240 
L 512 2240 
C 403 2240 294 2240 294 2125 
C 294 2017 390 2017 486 2017 
L 4115 2017 
z
M 4090 896 
C 4198 896 4307 896 4307 1011 
C 4307 1119 4211 1119 4115 1119 
L 486 1119 
C 390 1119 294 1119 294 1011 
C 294 896 403 896 512 896 
L 4090 896 
z
" transform="scale(0.015625)"/>
      <path id="CMR17-33" d="M 1414 2157 
C 1984 2157 2234 1662 2234 1090 
C 2234 320 1824 25 1453 25 
C 1114 25 563 194 390 693 
C 422 680 454 680 486 680 
C 640 680 755 782 755 948 
C 755 1133 614 1216 486 1216 
C 378 1216 211 1165 211 926 
C 211 335 787 -128 1466 -128 
C 2176 -128 2720 430 2720 1085 
C 2720 1707 2208 2157 1600 2227 
C 2086 2328 2554 2756 2554 3329 
C 2554 3820 2048 4179 1472 4179 
C 890 4179 378 3829 378 3329 
C 378 3110 544 3072 627 3072 
C 762 3072 877 3155 877 3321 
C 877 3486 762 3569 627 3569 
C 602 3569 570 3569 544 3557 
C 730 3959 1235 4032 1459 4032 
C 1683 4032 2106 3925 2106 3320 
C 2106 3143 2080 2828 1862 2550 
C 1670 2304 1453 2304 1242 2284 
C 1210 2284 1062 2269 1037 2269 
C 992 2263 966 2257 966 2208 
C 966 2163 973 2157 1101 2157 
L 1414 2157 
z
" transform="scale(0.015625)"/>
      <path id="CMMI12-63" d="M 2502 2431 
C 2381 2431 2323 2431 2234 2355 
C 2195 2323 2125 2227 2125 2125 
C 2125 1997 2221 1920 2342 1920 
C 2496 1920 2669 2044 2669 2292 
C 2669 2588 2374 2816 1933 2816 
C 1094 2816 256 1903 256 996 
C 256 441 602 -64 1254 -64 
C 2125 -64 2675 622 2675 706 
C 2675 744 2637 776 2611 776 
C 2592 776 2586 770 2528 713 
C 2118 162 1510 64 1267 64 
C 826 64 685 446 685 764 
C 685 988 794 1605 1024 2039 
C 1190 2338 1536 2682 1939 2682 
C 2022 2682 2374 2682 2502 2431 
z
" transform="scale(0.015625)"/>
      <path id="CMR17-32" d="M 2669 989 
L 2554 989 
C 2490 536 2438 459 2413 420 
C 2381 369 1920 369 1830 369 
L 602 369 
C 832 619 1280 1072 1824 1597 
C 2214 1967 2669 2402 2669 3035 
C 2669 3790 2067 4224 1395 4224 
C 691 4224 262 3604 262 3030 
C 262 2780 448 2748 525 2748 
C 589 2748 781 2787 781 3010 
C 781 3207 614 3264 525 3264 
C 486 3264 448 3258 422 3245 
C 544 3790 915 4058 1306 4058 
C 1862 4058 2227 3617 2227 3035 
C 2227 2479 1901 2000 1536 1584 
L 262 146 
L 262 0 
L 2515 0 
L 2669 989 
z
" transform="scale(0.015625)"/>
      <path id="CMMI12-3d" d="M 2746 4562 
C 2746 4569 2784 4666 2784 4678 
C 2784 4755 2720 4800 2669 4800 
C 2637 4800 2579 4800 2528 4659 
L 384 -1363 
C 384 -1370 346 -1465 346 -1478 
C 346 -1555 410 -1600 461 -1600 
C 499 -1600 557 -1593 602 -1459 
L 2746 4562 
z
" transform="scale(0.015625)"/>
     </defs>
     <use xlink:href="#CMMI12-71" transform="scale(0.996264)"/>
     <use xlink:href="#CMSY10-68" transform="translate(46.826324 51.750272) scale(0.697382)"/>
     <use xlink:href="#CMMI12-6b" transform="translate(73.946821 51.750272) scale(0.697382)"/>
     <use xlink:href="#CMSY10-69" transform="translate(111.802071 51.750272) scale(0.697382)"/>
     <use xlink:href="#CMR17-3d" transform="translate(138.922568 51.750272) scale(0.697382)"/>
     <use xlink:href="#CMR17-33" transform="translate(189.122699 51.750272) scale(0.697382)"/>
     <use xlink:href="#CMMI12-63" transform="translate(43.251731 -11.650281) scale(0.697382)"/>
     <use xlink:href="#CMR17-3d" transform="translate(249.278022 0) scale(0.996264)"/>
     <use xlink:href="#CMR17-32" transform="translate(348.666819 0) scale(0.996264)"/>
     <use xlink:href="#CMMI12-3d" transform="translate(394.357296 0) scale(0.996264)"/>
     <use xlink:href="#CMR17-33" transform="translate(443.132215 0) scale(0.996264)"/>
    </g>
   </g>
   <g id="text_4">
    <!-- $q_c^{\langle k \rangle =4} = 3/4$ -->
    <g style="fill: #a23b72" transform="translate(36.066503 163.007977) scale(0.12 -0.12)">
     <defs>
      <path id="CMR17-34" d="M 2150 4122 
C 2150 4256 2144 4256 2029 4256 
L 128 1254 
L 128 1088 
L 1779 1088 
L 1779 457 
C 1779 224 1766 160 1318 160 
L 1197 160 
L 1197 0 
C 1402 0 1747 0 1965 0 
C 2182 0 2528 0 2733 0 
L 2733 160 
L 2611 160 
C 2163 160 2150 224 2150 457 
L 2150 1088 
L 2803 1088 
L 2803 1254 
L 2150 1254 
L 2150 4122 
z
M 1798 3703 
L 1798 1254 
L 256 1254 
L 1798 3703 
z
" transform="scale(0.015625)"/>
     </defs>
     <use xlink:href="#CMMI12-71" transform="scale(0.996264)"/>
     <use xlink:href="#CMSY10-68" transform="translate(46.826324 51.750272) scale(0.697382)"/>
     <use xlink:href="#CMMI12-6b" transform="translate(73.946821 51.750272) scale(0.697382)"/>
     <use xlink:href="#CMSY10-69" transform="translate(111.802071 51.750272) scale(0.697382)"/>
     <use xlink:href="#CMR17-3d" transform="translate(138.922568 51.750272) scale(0.697382)"/>
     <use xlink:href="#CMR17-34" transform="translate(189.122699 51.750272) scale(0.697382)"/>
     <use xlink:href="#CMMI12-63" transform="translate(43.251731 -11.650281) scale(0.697382)"/>
     <use xlink:href="#CMR17-3d" transform="translate(249.278022 0) scale(0.996264)"/>
     <use xlink:href="#CMR17-33" transform="translate(348.666819 0) scale(0.996264)"/>
     <use xlink:href="#CMMI12-3d" transform="translate(394.357296 0) scale(0.996264)"/>
     <use xlink:href="#CMR17-34" transform="translate(443.132215 0) scale(0.996264)"/>
    </g>
   </g>
   <g id="text_5">
    <!-- $q_c^{\langle k \rangle =6} = 5/6$ -->
    <g style="fill: #2e86ab" transform="translate(36.066503 149.116199) scale(0.12 -0.12)">
     <defs>
      <path id="CMR17-36" d="M 678 2176 
C 678 3690 1395 4032 1811 4032 
C 1946 4032 2272 4009 2400 3776 
C 2298 3776 2106 3776 2106 3553 
C 2106 3381 2246 3323 2336 3323 
C 2394 3323 2566 3348 2566 3560 
C 2566 3954 2246 4179 1805 4179 
C 1043 4179 243 3390 243 1984 
C 243 253 966 -128 1478 -128 
C 2099 -128 2688 427 2688 1283 
C 2688 2081 2170 2662 1517 2662 
C 1126 2662 838 2407 678 1960 
L 678 2176 
z
M 1478 25 
C 691 25 691 1200 691 1436 
C 691 1896 909 2560 1504 2560 
C 1613 2560 1926 2560 2138 2120 
C 2253 1870 2253 1609 2253 1289 
C 2253 944 2253 690 2118 434 
C 1978 171 1773 25 1478 25 
z
" transform="scale(0.015625)"/>
      <path id="CMR17-35" d="M 730 3692 
C 794 3666 1056 3584 1325 3584 
C 1920 3584 2246 3911 2432 4100 
C 2432 4157 2432 4192 2394 4192 
C 2387 4192 2374 4192 2323 4163 
C 2099 4058 1837 3973 1517 3973 
C 1325 3973 1037 3999 723 4139 
C 653 4171 640 4171 634 4171 
C 602 4171 595 4164 595 4037 
L 595 2203 
C 595 2089 595 2057 659 2057 
C 691 2057 704 2070 736 2114 
C 941 2401 1222 2522 1542 2522 
C 1766 2522 2246 2382 2246 1289 
C 2246 1085 2246 715 2054 421 
C 1894 159 1645 25 1370 25 
C 947 25 518 320 403 814 
C 429 807 480 795 506 795 
C 589 795 749 840 749 1038 
C 749 1210 627 1280 506 1280 
C 358 1280 262 1190 262 1011 
C 262 454 704 -128 1382 -128 
C 2042 -128 2669 440 2669 1264 
C 2669 2030 2170 2624 1549 2624 
C 1222 2624 947 2503 730 2274 
L 730 3692 
z
" transform="scale(0.015625)"/>
     </defs>
     <use xlink:href="#CMMI12-71" transform="scale(0.996264)"/>
     <use xlink:href="#CMSY10-68" transform="translate(46.826324 51.750272) scale(0.697382)"/>
     <use xlink:href="#CMMI12-6b" transform="translate(73.946821 51.750272) scale(0.697382)"/>
     <use xlink:href="#CMSY10-69" transform="translate(111.802071 51.750272) scale(0.697382)"/>
     <use xlink:href="#CMR17-3d" transform="translate(138.922568 51.750272) scale(0.697382)"/>
     <use xlink:href="#CMR17-36" transform="translate(189.122699 51.750272) scale(0.697382)"/>
     <use xlink:href="#CMMI12-63" transform="translate(43.251731 -11.650281) scale(0.697382)"/>
     <use xlink:href="#CMR17-3d" transform="translate(249.278022 0) scale(0.996264)"/>
     <use xlink:href="#CMR17-35" transform="translate(348.666819 0) scale(0.996264)"/>
     <use xlink:href="#CMMI12-3d" transform="translate(394.357296 0) scale(0.996264)"/>
     <use xlink:href="#CMR17-36" transform="translate(443.132215 0) scale(0.996264)"/>
    </g>
   </g>
   <g id="text_6">
    <!-- $\beta = 1$ -->
    <g transform="translate(57.484724 93.549087) scale(0.12 -0.12)">
     <defs>
      <path id="CMMI12-c" d="M 3622 3701 
C 3622 4081 3296 4480 2714 4480 
C 1888 4480 1363 3477 1197 2816 
L 186 -1172 
C 173 -1223 211 -1236 243 -1236 
C 288 -1236 320 -1230 326 -1198 
L 774 586 
C 838 229 1190 -64 1568 -64 
C 2483 -64 3347 650 3347 1599 
C 3347 1841 3290 2083 3155 2287 
C 3078 2408 2982 2497 2880 2574 
C 3341 2815 3622 3200 3622 3701 
z
M 2509 2580 
C 2406 2542 2304 2529 2182 2529 
C 2093 2529 2010 2523 1894 2561 
C 1958 2606 2054 2618 2189 2618 
C 2304 2618 2419 2606 2509 2580 
z
M 3290 3758 
C 3290 3410 3117 2903 2701 2669 
C 2579 2718 2413 2752 2272 2752 
C 2138 2752 1754 2752 1754 2555 
C 1754 2389 2106 2389 2214 2389 
C 2381 2389 2528 2432 2682 2484 
C 2886 2318 2976 2101 2976 1783 
C 2976 1413 2874 1115 2752 841 
C 2541 369 2042 64 1600 64 
C 1133 64 890 432 890 864 
C 890 922 890 1005 915 1099 
L 1331 2771 
C 1542 3603 2080 4353 2701 4353 
C 3162 4353 3290 4036 3290 3758 
z
" transform="scale(0.015625)"/>
      <path id="CMR17-31" d="M 1702 4058 
C 1702 4192 1696 4192 1606 4192 
C 1357 3916 979 3827 621 3827 
C 602 3827 570 3827 563 3808 
C 557 3795 557 3782 557 3648 
C 755 3648 1088 3686 1344 3839 
L 1344 461 
C 1344 236 1331 160 781 160 
L 589 160 
L 589 0 
C 896 0 1216 0 1523 0 
C 1830 0 2150 0 2458 0 
L 2458 160 
L 2266 160 
C 1715 160 1702 230 1702 458 
L 1702 4058 
z
" transform="scale(0.015625)"/>
     </defs>
     <use xlink:href="#CMMI12-c" transform="scale(0.996264)"/>
     <use xlink:href="#CMR17-3d" transform="translate(88.268024 0) scale(0.996264)"/>
     <use xlink:href="#CMR17-31" transform="translate(187.656822 0) scale(0.996264)"/>
    </g>
   </g>
   <g id="text_7">
    <!-- $\nu =   3$ -->
    <g transform="translate(57.851399 107.440865) scale(0.12 -0.12)">
     <defs>
      <path id="CMMI12-17" d="M 1408 2753 
C 1408 2778 1389 2816 1338 2816 
C 1293 2816 691 2751 595 2751 
C 525 2744 461 2738 461 2623 
C 461 2560 512 2560 602 2560 
C 902 2560 922 2515 922 2445 
C 922 2419 909 2343 902 2318 
L 339 64 
C 339 38 358 0 403 0 
L 538 0 
C 627 0 1600 230 2349 996 
C 3174 1846 3290 2632 3290 2657 
C 3290 2759 3206 2816 3123 2816 
C 2938 2816 2893 2644 2880 2599 
C 2502 1264 1626 473 774 192 
L 1408 2753 
z
" transform="scale(0.015625)"/>
     </defs>
     <use xlink:href="#CMMI12-17" transform="scale(0.996264)"/>
     <use xlink:href="#CMR17-3d" transform="translate(82.156802 0) scale(0.996264)"/>
     <use xlink:href="#CMR17-33" transform="translate(181.545599 0) scale(0.996264)"/>
    </g>
   </g>
   <g id="text_8">
    <!-- $\beta/\nu = 1/3$ -->
    <g transform="translate(45.436278 121.332643) scale(0.12 -0.12)">
     <use xlink:href="#CMMI12-c" transform="scale(0.996264)"/>
     <use xlink:href="#CMMI12-3d" transform="translate(60.594016 0) scale(0.996264)"/>
     <use xlink:href="#CMMI12-17" transform="translate(109.368934 0) scale(0.996264)"/>
     <use xlink:href="#CMR17-3d" transform="translate(191.525736 0) scale(0.996264)"/>
     <use xlink:href="#CMR17-31" transform="translate(290.914533 0) scale(0.996264)"/>
     <use xlink:href="#CMMI12-3d" transform="translate(336.60501 0) scale(0.996264)"/>
     <use xlink:href="#CMR17-33" transform="translate(385.379929 0) scale(0.996264)"/>
    </g>
   </g>
   <g id="text_9">
    <!-- $\cdots$ $\cdots$ -->
    <g transform="translate(56.021347 135.224421) scale(0.12 -0.12)">
     <defs>
      <path id="CMSY10-1" d="M 1229 1619 
C 1229 1805 1075 1958 890 1958 
C 704 1958 550 1805 550 1619 
C 550 1433 704 1280 890 1280 
C 1075 1280 1229 1433 1229 1619 
z
" transform="scale(0.015625)"/>
     </defs>
     <use xlink:href="#CMSY10-1" transform="scale(0.996264)"/>
     <use xlink:href="#CMSY10-1" transform="translate(44.27849 0) scale(0.996264)"/>
     <use xlink:href="#CMSY10-1" transform="translate(88.55698 0) scale(0.996264)"/>
     <use xlink:href="#CMSY10-1" transform="translate(147.460177 0) scale(0.996264)"/>
     <use xlink:href="#CMSY10-1" transform="translate(191.738667 0) scale(0.996264)"/>
     <use xlink:href="#CMSY10-1" transform="translate(236.017157 0) scale(0.996264)"/>
    </g>
   </g>
  </g>
 </g>
 <defs>
  <clipPath id="p9e3960ca60">
   <rect x="29.188212" y="42.149508" width="177.764281" height="144.474492"/>
  </clipPath>
 </defs>
</svg>
