<?xml version="1.0" encoding="utf-8" standalone="no"?>
<!DOCTYPE svg PUBLIC "-//W3C//DTD SVG 1.1//EN"
  "http://www.w3.org/Graphics/SVG/1.1/DTD/svg11.dtd">
<svg xmlns:xlink="http://www.w3.org/1999/xlink" width="252pt" height="216pt" viewBox="0 0 252 216" xmlns="http://www.w3.org/2000/svg" version="1.1">
 <metadata>
  <rdf:RDF xmlns:dc="http://purl.org/dc/elements/1.1/" xmlns:cc="http://creativecommons.org/ns#" xmlns:rdf="http://www.w3.org/1999/02/22-rdf-syntax-ns#">
   <cc:Work>
    <dc:type rdf:resource="http://purl.org/dc/dcmitype/StillImage"/>
    <dc:date>2025-12-19T16:17:28.080607</dc:date>
    <dc:format>image/svg+xml</dc:format>
    <dc:creator>
     <cc:Agent>
      <dc:title>Matplotlib v3.10.7, https://matplotlib.org/</dc:title>
     </cc:Agent>
    </dc:creator>
   </cc:Work>
  </rdf:RDF>
 </metadata>
 <defs>
  <style type="text/css">*{stroke-linejoin: round; stroke-linecap: butt}</style>
 </defs>
 <g id="figure_1">
  <g id="patch_1">
   <path d="M 0 216 
L 252 216 
L 252 0 
L 0 0 
z
" style="fill: #ffffff"/>
  </g>
  <g id="axes_1">
   <g id="patch_2">
    <path d="M 29.188212 186.624 
L 206.952492 186.624 
L 206.952492 42.149508 
L 29.188212 42.149508 
z
" style="fill: #ffffff"/>
   </g>
   <g id="matplotlib.axis_1"/>
   <g id="matplotlib.axis_2">
    <g id="text_1">
     <!-- $\tilde{C}$ -->
     <g transform="translate(45.669406 39.824912) scale(0.12 -0.12)">
      <defs>
       <path id="CMR17-7e" d="M 2400 4184 
C 2182 3980 2061 3865 1862 3865 
C 1722 3865 1626 3932 1491 4024 
C 1363 4111 1261 4184 1120 4184 
C 890 4184 730 4004 461 3718 
L 531 3648 
C 749 3850 870 3968 1069 3968 
C 1210 3968 1306 3900 1440 3808 
C 1568 3722 1670 3648 1811 3648 
C 2042 3648 2202 3828 2470 4114 
L 2400 4184 
z
" transform="scale(0.015625)"/>
       <path id="CMMI12-43" d="M 4781 4423 
C 4781 4480 4736 4480 4723 4480 
C 4710 4480 4685 4480 4634 4416 
L 4192 3882 
C 3968 4264 3616 4480 3136 4480 
C 1754 4480 320 3088 320 1595 
C 320 533 1069 -128 2003 -128 
C 2515 -128 2963 88 3334 400 
C 3891 863 4058 1481 4058 1531 
C 4058 1588 4006 1588 3987 1588 
C 3930 1588 3923 1550 3910 1524 
C 3616 534 2752 57 2112 57 
C 1434 57 845 489 845 1391 
C 845 1595 909 2700 1632 3532 
C 1984 3939 2586 4295 3194 4295 
C 3898 4295 4211 3717 4211 3068 
C 4211 2903 4192 2764 4192 2738 
C 4192 2681 4256 2681 4275 2681 
C 4346 2681 4352 2687 4378 2801 
L 4781 4423 
z
" transform="scale(0.015625)"/>
      </defs>
      <use xlink:href="#CMR17-7e" transform="translate(23.757346 25.189733) scale(0.996264)"/>
      <use xlink:href="#CMMI12-43" transform="scale(0.996264)"/>
     </g>
    </g>
   </g>
   <g id="patch_3">
    <path d="M 29.188212 186.624 
L 29.188212 42.149508 
" style="fill: none; stroke: #000000; stroke-width: 0.8; stroke-linejoin: miter; stroke-linecap: square"/>
   </g>
   <g id="patch_4">
    <path d="M 29.188212 186.624 
L 206.952492 186.624 
" style="fill: none; stroke: #000000; stroke-width: 0.8; stroke-linejoin: miter; stroke-linecap: square"/>
   </g>
   <g id="line2d_1">
    <path d="M 203.413176 183.837254 
L 200.756179 183.695365 
L 200.152316 183.46857 
L 199.789998 183.034223 
L 199.548453 182.3303 
L 199.306907 180.919346 
L 198.582272 173.827811 
L 196.64991 156.062515 
L 195.079867 143.658576 
L 193.630595 133.949927 
L 192.181324 125.699859 
L 190.732053 118.652216 
L 189.162009 112.113584 
L 187.591965 106.49665 
L 185.901149 101.281848 
L 184.210333 96.760783 
L 182.398744 92.547487 
L 180.587155 88.864733 
L 178.654793 85.418834 
L 176.601659 82.204009 
L 174.427752 79.21538 
L 172.133073 76.443947 
L 169.717621 73.876872 
L 167.181396 71.503525 
L 164.403627 69.216631 
L 161.505084 67.120425 
L 158.364997 65.1257 
L 154.983364 63.241089 
L 151.360186 61.473722 
L 147.253918 59.730042 
L 142.785332 58.088803 
L 137.833655 56.522085 
L 132.398888 55.048302 
L 126.360258 53.65258 
L 119.717766 52.349028 
L 112.592182 51.165777 
L 104.258873 50.004614 
L 94.717838 48.903789 
L 83.727532 47.865986 
L 71.287954 46.91436 
L 55.949834 45.983043 
L 38.437807 45.158135 
L 33.244586 44.952092 
L 33.244586 44.952092 
" clip-path="url(#p5aa3a789c5)" style="fill: none; stroke: #f18f01; stroke-opacity: 0.9; stroke-width: 3; stroke-linecap: square"/>
   </g>
   <g id="line2d_2">
    <path d="M 203.505508 183.683461 
L 203.477067 181.404985 
L 203.306425 113.934601 
L 203.050461 90.762186 
L 202.709175 79.226438 
L 202.311009 72.680892 
L 201.827521 68.257202 
L 201.287153 65.239504 
L 200.661463 62.952183 
L 199.950451 61.164449 
L 199.125678 59.689616 
L 198.187143 58.464058 
L 197.134847 57.434736 
L 195.883467 56.501407 
L 194.319242 55.613003 
L 192.356851 54.770503 
L 189.939412 53.986945 
L 187.010046 53.271721 
L 183.369668 52.601594 
L 178.762315 51.968266 
L 172.676058 51.349253 
L 164.65585 50.756198 
L 153.30811 50.16001 
L 141.704405 49.721092 
L 122.649303 49.20602 
L 100.607952 48.789109 
L 71.54181 48.398343 
L 32.606831 48.027842 
L 32.606831 48.027842 
" clip-path="url(#p5aa3a789c5)" style="fill: none; stroke: #a23b72; stroke-opacity: 0.9; stroke-width: 3; stroke-linecap: square"/>
   </g>
   <g id="line2d_3">
    <path d="M 203.479265 183.845501 
L 77.270977 183.669136 
L 67.37336 183.3539 
L 57.366377 182.786388 
L 52.663642 182.396028 
L 50.640372 182.009485 
L 48.9452 181.43517 
L 48.015589 180.93433 
L 46.92193 180.089984 
L 46.101686 179.171592 
L 45.390807 178.09863 
L 44.843977 176.9989 
L 44.351831 175.667719 
L 43.805001 173.465015 
L 43.312854 170.567575 
L 42.766025 165.687769 
L 42.273878 159.053965 
L 41.836414 150.037587 
L 41.344267 134.447595 
L 39.813144 80.646597 
L 39.211632 71.40131 
L 38.555436 64.907959 
L 37.735192 59.147252 
L 36.96963 55.237973 
L 36.149385 52.087942 
L 35.219775 49.381279 
L 34.290165 47.31102 
L 33.360554 45.798684 
L 32.649676 44.969042 
L 32.649676 44.969042 
" clip-path="url(#p5aa3a789c5)" style="fill: none; stroke: #2e86ab; stroke-opacity: 0.9; stroke-width: 3; stroke-linecap: square"/>
   </g>
   <g id="text_2">
    <!-- $q$ -->
    <g transform="translate(215.840706 176.022414) scale(0.16 -0.16)">
     <defs>
      <path id="CMMI12-71" d="M 2822 2759 
C 2822 2790 2797 2816 2765 2816 
C 2714 2816 2464 2585 2342 2362 
C 2227 2646 2029 2816 1754 2816 
C 1030 2816 250 1884 250 939 
C 250 307 621 -64 1056 -64 
C 1395 -64 1677 193 1811 339 
L 1818 333 
L 1574 -615 
L 1517 -842 
C 1459 -1031 1363 -1031 1062 -1031 
C 992 -1031 928 -1031 928 -1152 
C 928 -1197 966 -1216 1011 -1216 
C 1101 -1216 1216 -1216 1306 -1216 
L 1958 -1216 
C 2054 -1216 2163 -1216 2259 -1216 
C 2298 -1216 2374 -1216 2374 -1095 
C 2374 -1031 2323 -1031 2227 -1031 
C 1926 -1031 1907 -986 1907 -935 
C 1907 -904 1914 -898 1933 -815 
L 2822 2759 
z
M 1920 762 
C 1888 652 1888 640 1798 518 
C 1658 339 1376 64 1075 64 
C 813 64 666 301 666 678 
C 666 1030 864 1747 986 2016 
C 1203 2464 1504 2695 1754 2695 
C 2176 2695 2259 2170 2259 2119 
C 2259 2113 2240 2028 2234 2016 
L 1920 762 
z
" transform="scale(0.015625)"/>
     </defs>
     <use xlink:href="#CMMI12-71" transform="scale(0.996264)"/>
    </g>
   </g>
   <g id="patch_5">
    <path d="M 206.952492 186.624 
Q 215.840706 186.624 224.169903 186.624 
" style="fill: none; stroke: #000000; stroke-width: 0.5; stroke-linecap: round"/>
    <path d="M 214.569903 181.824 
L 224.169903 186.624 
L 214.569903 191.424 
" style="fill: none; stroke: #000000; stroke-width: 0.5; stroke-linecap: round"/>
   </g>
   <g id="patch_6">
    <path d="M 29.359139 42.149508 
Q 29.359139 34.925783 29.359139 28.261076 
" style="fill: none; stroke: #000000; stroke-width: 0.5; stroke-linecap: round"/>
    <path d="M 24.559139 37.861076 
L 29.359139 28.261076 
L 34.159139 37.861076 
" style="fill: none; stroke: #000000; stroke-width: 0.5; stroke-linecap: round"/>
   </g>
   <g id="text_3">
    <!-- $q_c^{ \mathrm{Social}}  = $? -->
    <g style="fill: #f18f01" transform="translate(50.655679 169.953866) scale(0.12 -0.12)">
     <defs>
      <path id="CMR17-53" d="M 2803 4290 
C 2803 4404 2797 4411 2758 4411 
C 2720 4411 2707 4385 2682 4328 
L 2490 3907 
C 2246 4257 1875 4416 1472 4416 
C 819 4416 294 3901 294 3253 
C 294 3056 339 2776 557 2510 
C 794 2218 1018 2167 1530 2033 
C 1722 1982 2042 1899 2106 1874 
C 2470 1722 2662 1341 2662 985 
C 2662 527 2336 38 1779 38 
C 1094 38 454 419 410 1311 
C 403 1413 397 1419 352 1419 
C 301 1419 294 1413 294 1285 
L 294 -1 
C 294 -115 301 -122 339 -122 
C 384 -122 397 -90 486 108 
C 493 127 493 140 614 381 
C 934 -39 1472 -128 1779 -128 
C 2477 -128 2970 451 2970 1124 
C 2970 1454 2848 1708 2778 1823 
C 2509 2230 2221 2306 1914 2382 
C 1869 2402 1856 2402 1498 2490 
C 1152 2579 1005 2624 845 2796 
C 666 2992 602 3196 602 3399 
C 602 3812 934 4263 1478 4263 
C 2157 4263 2579 3786 2675 2993 
C 2694 2878 2701 2872 2746 2872 
C 2803 2872 2803 2891 2803 2999 
L 2803 4290 
z
" transform="scale(0.015625)"/>
      <path id="CMR17-6f" d="M 2758 1356 
C 2758 2176 2163 2816 1466 2816 
C 768 2816 173 2176 173 1356 
C 173 551 768 -64 1466 -64 
C 2163 -64 2758 551 2758 1356 
z
M 1466 51 
C 1165 51 909 230 762 480 
C 602 767 582 1126 582 1408 
C 582 1677 595 2010 762 2298 
C 890 2509 1139 2714 1466 2714 
C 1754 2714 1997 2554 2150 2330 
C 2349 2029 2349 1607 2349 1408 
C 2349 1158 2336 775 2163 467 
C 1984 173 1709 51 1466 51 
z
" transform="scale(0.015625)"/>
      <path id="CMR17-63" d="M 2234 2240 
C 2112 2240 1933 2240 1933 2017 
C 1933 1838 2080 1787 2163 1787 
C 2208 1787 2394 1807 2394 2024 
C 2394 2467 1958 2803 1466 2803 
C 787 2803 211 2178 211 1363 
C 211 516 813 -64 1466 -64 
C 2259 -64 2458 677 2458 748 
C 2458 774 2451 793 2406 793 
C 2362 793 2355 787 2330 703 
C 2163 180 1798 51 1523 51 
C 1114 51 621 427 621 1369 
C 621 2338 1094 2688 1472 2688 
C 1722 2688 2093 2573 2234 2240 
z
" transform="scale(0.015625)"/>
      <path id="CMR17-69" d="M 992 3909 
C 992 4049 877 4170 730 4170 
C 589 4170 467 4056 467 3909 
C 467 3769 582 3648 730 3648 
C 870 3648 992 3763 992 3909 
z
M 243 2706 
L 243 2541 
C 602 2541 653 2502 653 2197 
L 653 427 
C 653 184 627 153 218 153 
L 218 -13 
C 371 0 646 0 806 0 
C 960 0 1222 0 1370 -13 
L 1370 153 
C 992 153 979 191 979 420 
L 979 2776 
L 243 2706 
z
" transform="scale(0.015625)"/>
      <path id="CMR17-61" d="M 2304 1653 
C 2304 2072 2304 2294 2035 2543 
C 1798 2752 1523 2816 1306 2816 
C 800 2816 435 2407 435 1971 
C 435 1728 627 1728 666 1728 
C 749 1728 896 1778 896 1954 
C 896 2112 774 2181 666 2181 
C 640 2181 608 2174 589 2168 
C 723 2592 1069 2714 1293 2714 
C 1613 2714 1965 2429 1965 1885 
L 1965 1600 
C 1587 1600 1133 1549 774 1357 
C 371 1133 256 813 256 570 
C 256 77 832 -64 1171 -64 
C 1523 -64 1850 139 1990 511 
C 2003 233 2182 -18 2464 -18 
C 2598 -18 2938 70 2938 567 
L 2938 920 
L 2822 920 
L 2822 562 
C 2822 178 2650 128 2566 128 
C 2304 128 2304 458 2304 738 
L 2304 1653 
z
M 1965 870 
C 1965 317 1568 38 1216 38 
C 896 38 646 275 646 570 
C 646 761 730 1100 1101 1305 
C 1408 1478 1760 1504 1965 1504 
L 1965 870 
z
" transform="scale(0.015625)"/>
      <path id="CMR17-6c" d="M 979 4396 
L 218 4326 
L 218 4160 
C 595 4160 653 4122 653 3817 
L 653 426 
C 653 184 627 153 218 153 
L 218 -13 
C 371 0 653 0 813 0 
C 979 0 1261 0 1414 -13 
L 1414 153 
C 1005 153 979 178 979 426 
L 979 4396 
z
" transform="scale(0.015625)"/>
      <path id="CMMI12-63" d="M 2502 2431 
C 2381 2431 2323 2431 2234 2355 
C 2195 2323 2125 2227 2125 2125 
C 2125 1997 2221 1920 2342 1920 
C 2496 1920 2669 2044 2669 2292 
C 2669 2588 2374 2816 1933 2816 
C 1094 2816 256 1903 256 996 
C 256 441 602 -64 1254 -64 
C 2125 -64 2675 622 2675 706 
C 2675 744 2637 776 2611 776 
C 2592 776 2586 770 2528 713 
C 2118 162 1510 64 1267 64 
C 826 64 685 446 685 764 
C 685 988 794 1605 1024 2039 
C 1190 2338 1536 2682 1939 2682 
C 2022 2682 2374 2682 2502 2431 
z
" transform="scale(0.015625)"/>
      <path id="CMR17-3d" d="M 4115 2017 
C 4211 2017 4307 2017 4307 2125 
C 4307 2240 4198 2240 4090 2240 
L 512 2240 
C 403 2240 294 2240 294 2125 
C 294 2017 390 2017 486 2017 
L 4115 2017 
z
M 4090 896 
C 4198 896 4307 896 4307 1011 
C 4307 1119 4211 1119 4115 1119 
L 486 1119 
C 390 1119 294 1119 294 1011 
C 294 896 403 896 512 896 
L 4090 896 
z
" transform="scale(0.015625)"/>
      <path id="CMSS17-3f" d="M 1536 1384 
C 1536 2073 1939 2527 2170 2724 
C 2285 2827 2502 3031 2502 3484 
C 2502 4027 2163 4480 1344 4480 
C 992 4480 653 4378 333 4143 
L 474 3747 
C 781 4028 1094 4092 1344 4092 
C 1677 4092 2016 4009 2016 3498 
C 2016 3204 1888 3083 1830 3026 
C 1216 2444 1126 1800 1126 1410 
L 1126 1078 
L 1536 1078 
L 1536 1384 
z
M 1075 0 
L 1587 0 
L 1587 510 
L 1075 510 
L 1075 0 
z
" transform="scale(0.015625)"/>
     </defs>
     <use xlink:href="#CMMI12-71" transform="scale(0.996264)"/>
     <use xlink:href="#CMR17-53" transform="translate(46.826324 36.153639) scale(0.697382)"/>
     <use xlink:href="#CMR17-6f" transform="translate(82.452932 36.153639) scale(0.697382)"/>
     <use xlink:href="#CMR17-63" transform="translate(116.25782 36.153639) scale(0.697382)"/>
     <use xlink:href="#CMR17-69" transform="translate(144.597651 36.153639) scale(0.697382)"/>
     <use xlink:href="#CMR17-61" transform="translate(162.00731 36.153639) scale(0.697382)"/>
     <use xlink:href="#CMR17-6c" transform="translate(193.990492 36.153639) scale(0.697382)"/>
     <use xlink:href="#CMMI12-63" transform="translate(43.251731 -24.62935) scale(0.697382)"/>
     <use xlink:href="#CMR17-3d" transform="translate(239.572292 0) scale(0.996264)"/>
     <use xlink:href="#CMSS17-3f" transform="translate(311.28708 0) scale(0.996264)"/>
    </g>
   </g>
   <g id="text_4">
    <!-- $q_c^{ \mathrm{Biology}} = $? -->
    <g style="fill: #a23b72" transform="translate(45.890461 156.062088) scale(0.12 -0.12)">
     <defs>
      <path id="CMR17-42" d="M 333 4352 
L 333 4186 
C 774 4186 845 4186 845 3900 
L 845 452 
C 845 166 774 166 333 166 
L 333 0 
L 2534 0 
C 3354 0 3885 583 3885 1164 
C 3885 1741 3360 2233 2675 2233 
C 3290 2356 3718 2771 3718 3264 
C 3718 3802 3194 4352 2368 4352 
L 333 4352 
z
M 1248 2304 
L 1248 3937 
C 1248 4155 1261 4186 1517 4186 
L 2336 4186 
C 2970 4186 3251 3674 3251 3277 
C 3251 2791 2861 2304 2170 2304 
L 1248 2304 
z
M 1517 166 
C 1261 166 1248 197 1248 413 
L 1248 2202 
L 2432 2202 
C 3091 2202 3411 1625 3411 1162 
C 3411 699 3046 166 2349 166 
L 1517 166 
z
" transform="scale(0.015625)"/>
      <path id="CMR17-67" d="M 710 1164 
C 832 1068 1043 960 1299 960 
C 1805 960 2240 1357 2240 1888 
C 2240 2054 2189 2310 1997 2509 
C 2176 2692 2438 2752 2586 2752 
C 2611 2752 2650 2752 2682 2734 
C 2656 2728 2598 2703 2598 2605 
C 2598 2527 2656 2471 2739 2471 
C 2835 2471 2886 2533 2886 2614 
C 2886 2731 2790 2854 2586 2854 
C 2330 2854 2106 2738 1926 2580 
C 1734 2753 1504 2816 1299 2816 
C 794 2816 358 2419 358 1888 
C 358 1522 570 1292 634 1228 
C 442 1004 442 743 442 711 
C 442 545 506 302 723 168 
C 390 85 128 -169 128 -486 
C 128 -943 736 -1280 1466 -1280 
C 2170 -1280 2803 -956 2803 -479 
C 2803 384 1856 384 1363 384 
C 1216 384 954 384 922 391 
C 723 423 589 602 589 826 
C 589 883 589 1024 710 1164 
z
M 1299 1068 
C 736 1068 736 1760 736 1889 
C 736 2016 736 2708 1299 2708 
C 1862 2708 1862 2016 1862 1889 
C 1862 1760 1862 1068 1299 1068 
z
M 1466 -1171 
C 826 -1171 384 -835 384 -486 
C 384 -289 493 -105 634 -4 
C 794 104 858 104 1293 104 
C 1818 104 2547 104 2547 -486 
C 2547 -835 2106 -1171 1466 -1171 
z
" transform="scale(0.015625)"/>
      <path id="CMR17-79" d="M 2496 2197 
C 2656 2586 2944 2586 3034 2586 
L 3034 2752 
C 2912 2752 2752 2752 2630 2752 
C 2496 2752 2285 2752 2157 2758 
L 2157 2592 
C 2400 2573 2406 2394 2406 2343 
C 2406 2280 2394 2248 2362 2171 
L 1664 449 
L 902 2306 
C 870 2382 870 2426 870 2433 
C 870 2573 1018 2586 1171 2586 
L 1171 2758 
C 1018 2752 742 2752 582 2752 
C 410 2752 205 2752 64 2758 
L 64 2586 
C 410 2586 448 2554 531 2350 
L 1485 15 
C 1197 -738 1030 -1178 627 -1178 
C 557 -1178 397 -1159 282 -1044 
C 429 -1031 493 -942 493 -833 
C 493 -725 416 -629 288 -629 
C 147 -629 77 -725 77 -840 
C 77 -1095 339 -1280 627 -1280 
C 998 -1280 1229 -922 1357 -604 
L 2496 2197 
z
" transform="scale(0.015625)"/>
     </defs>
     <use xlink:href="#CMMI12-71" transform="scale(0.996264)"/>
     <use xlink:href="#CMR17-42" transform="translate(46.826324 36.153639) scale(0.697382)"/>
     <use xlink:href="#CMR17-69" transform="translate(92.458244 36.153639) scale(0.697382)"/>
     <use xlink:href="#CMR17-6f" transform="translate(109.867903 36.153639) scale(0.697382)"/>
     <use xlink:href="#CMR17-6c" transform="translate(141.851085 36.153639) scale(0.697382)"/>
     <use xlink:href="#CMR17-6f" transform="translate(159.260743 36.153639) scale(0.697382)"/>
     <use xlink:href="#CMR17-67" transform="translate(191.243925 36.153639) scale(0.697382)"/>
     <use xlink:href="#CMR17-79" transform="translate(223.227107 36.153639) scale(0.697382)"/>
     <use xlink:href="#CMMI12-63" transform="translate(43.251731 -24.62935) scale(0.697382)"/>
     <use xlink:href="#CMR17-3d" transform="translate(286.11495 0) scale(0.996264)"/>
     <use xlink:href="#CMSS17-3f" transform="translate(357.829739 0) scale(0.996264)"/>
    </g>
   </g>
   <g id="text_5">
    <!-- $q_c^{ \mathrm{Road}}    = $? -->
    <g style="fill: #2e86ab" transform="translate(53.601996 142.17031) scale(0.12 -0.12)">
     <defs>
      <path id="CMR17-52" d="M 2509 2146 
C 3117 2268 3629 2676 3629 3186 
C 3629 3785 2950 4326 2054 4326 
L 333 4326 
L 333 4160 
C 774 4160 845 4160 845 3873 
L 845 415 
C 845 128 774 128 333 128 
L 333 -26 
C 518 -26 851 -26 1050 -26 
C 1248 -26 1581 -26 1766 -26 
L 1766 128 
C 1325 128 1254 128 1254 417 
L 1254 2112 
L 2003 2112 
C 2368 2112 2573 1964 2662 1881 
C 2918 1632 2918 1459 2918 1024 
C 2918 595 2918 377 3110 160 
C 3354 -102 3680 -128 3821 -128 
C 4294 -128 4365 396 4365 503 
C 4365 540 4365 585 4307 585 
C 4256 585 4250 547 4250 522 
C 4218 112 4032 -26 3834 -26 
C 3482 -26 3443 375 3405 764 
C 3386 898 3373 993 3360 1133 
C 3322 1452 3270 1917 2509 2146 
z
M 1984 2214 
L 1254 2214 
L 1254 3913 
C 1254 4129 1267 4160 1523 4160 
L 1990 4160 
C 2522 4160 3142 3977 3142 3190 
C 3142 2372 2464 2214 1984 2214 
z
" transform="scale(0.015625)"/>
      <path id="CMR17-64" d="M 1869 4326 
L 1869 4160 
C 2246 4160 2304 4122 2304 3820 
L 2304 2345 
C 2278 2377 2016 2790 1498 2790 
C 845 2790 211 2208 211 1364 
C 211 525 806 -64 1434 -64 
C 1978 -64 2259 337 2291 380 
L 2291 -63 
L 3066 -63 
L 3066 128 
C 2688 128 2630 166 2630 473 
L 2630 4396 
L 1869 4326 
z
M 2291 755 
C 2291 563 2176 390 2029 262 
C 1811 70 1594 38 1472 38 
C 1286 38 621 134 621 1356 
C 621 2612 1363 2688 1530 2688 
C 1824 2688 2061 2522 2208 2291 
C 2291 2157 2291 2138 2291 2023 
L 2291 755 
z
" transform="scale(0.015625)"/>
     </defs>
     <use xlink:href="#CMMI12-71" transform="scale(0.996264)"/>
     <use xlink:href="#CMR17-52" transform="translate(46.826324 36.153639) scale(0.697382)"/>
     <use xlink:href="#CMR17-6f" transform="translate(94.279889 36.153639) scale(0.697382)"/>
     <use xlink:href="#CMR17-61" transform="translate(126.26307 36.153639) scale(0.697382)"/>
     <use xlink:href="#CMR17-64" transform="translate(158.246252 36.153639) scale(0.697382)"/>
     <use xlink:href="#CMMI12-63" transform="translate(43.251731 -24.62935) scale(0.697382)"/>
     <use xlink:href="#CMR17-3d" transform="translate(222.045002 0) scale(0.996264)"/>
     <use xlink:href="#CMSS17-3f" transform="translate(293.75979 0) scale(0.996264)"/>
    </g>
   </g>
   <g id="text_6">
    <!-- $\beta = $? -->
    <g transform="translate(67.854081 86.603198) scale(0.12 -0.12)">
     <defs>
      <path id="CMMI12-c" d="M 3622 3701 
C 3622 4081 3296 4480 2714 4480 
C 1888 4480 1363 3477 1197 2816 
L 186 -1172 
C 173 -1223 211 -1236 243 -1236 
C 288 -1236 320 -1230 326 -1198 
L 774 586 
C 838 229 1190 -64 1568 -64 
C 2483 -64 3347 650 3347 1599 
C 3347 1841 3290 2083 3155 2287 
C 3078 2408 2982 2497 2880 2574 
C 3341 2815 3622 3200 3622 3701 
z
M 2509 2580 
C 2406 2542 2304 2529 2182 2529 
C 2093 2529 2010 2523 1894 2561 
C 1958 2606 2054 2618 2189 2618 
C 2304 2618 2419 2606 2509 2580 
z
M 3290 3758 
C 3290 3410 3117 2903 2701 2669 
C 2579 2718 2413 2752 2272 2752 
C 2138 2752 1754 2752 1754 2555 
C 1754 2389 2106 2389 2214 2389 
C 2381 2389 2528 2432 2682 2484 
C 2886 2318 2976 2101 2976 1783 
C 2976 1413 2874 1115 2752 841 
C 2541 369 2042 64 1600 64 
C 1133 64 890 432 890 864 
C 890 922 890 1005 915 1099 
L 1331 2771 
C 1542 3603 2080 4353 2701 4353 
C 3162 4353 3290 4036 3290 3758 
z
" transform="scale(0.015625)"/>
     </defs>
     <use xlink:href="#CMMI12-c" transform="scale(0.996264)"/>
     <use xlink:href="#CMR17-3d" transform="translate(88.268024 0) scale(0.996264)"/>
     <use xlink:href="#CMSS17-3f" transform="translate(159.982813 0) scale(0.996264)"/>
    </g>
   </g>
   <g id="text_7">
    <!-- $\nu =   $? -->
    <g transform="translate(68.220756 100.494976) scale(0.12 -0.12)">
     <defs>
      <path id="CMMI12-17" d="M 1408 2753 
C 1408 2778 1389 2816 1338 2816 
C 1293 2816 691 2751 595 2751 
C 525 2744 461 2738 461 2623 
C 461 2560 512 2560 602 2560 
C 902 2560 922 2515 922 2445 
C 922 2419 909 2343 902 2318 
L 339 64 
C 339 38 358 0 403 0 
L 538 0 
C 627 0 1600 230 2349 996 
C 3174 1846 3290 2632 3290 2657 
C 3290 2759 3206 2816 3123 2816 
C 2938 2816 2893 2644 2880 2599 
C 2502 1264 1626 473 774 192 
L 1408 2753 
z
" transform="scale(0.015625)"/>
     </defs>
     <use xlink:href="#CMMI12-17" transform="scale(0.996264)"/>
     <use xlink:href="#CMR17-3d" transform="translate(82.156802 0) scale(0.996264)"/>
     <use xlink:href="#CMSS17-3f" transform="translate(153.87159 0) scale(0.996264)"/>
    </g>
   </g>
   <g id="text_8">
    <!-- $\beta/\nu = $? -->
    <g transform="translate(56.53081 114.386754) scale(0.12 -0.12)">
     <defs>
      <path id="CMMI12-3d" d="M 2746 4562 
C 2746 4569 2784 4666 2784 4678 
C 2784 4755 2720 4800 2669 4800 
C 2637 4800 2579 4800 2528 4659 
L 384 -1363 
C 384 -1370 346 -1465 346 -1478 
C 346 -1555 410 -1600 461 -1600 
C 499 -1600 557 -1593 602 -1459 
L 2746 4562 
z
" transform="scale(0.015625)"/>
     </defs>
     <use xlink:href="#CMMI12-c" transform="scale(0.996264)"/>
     <use xlink:href="#CMMI12-3d" transform="translate(60.594016 0) scale(0.996264)"/>
     <use xlink:href="#CMMI12-17" transform="translate(109.368934 0) scale(0.996264)"/>
     <use xlink:href="#CMR17-3d" transform="translate(191.525736 0) scale(0.996264)"/>
     <use xlink:href="#CMSS17-3f" transform="translate(263.240524 0) scale(0.996264)"/>
    </g>
   </g>
   <g id="text_9">
    <!-- $\cdots$ $\cdots$ -->
    <g transform="translate(59.439891 128.278532) scale(0.12 -0.12)">
     <defs>
      <path id="CMSY10-1" d="M 1229 1619 
C 1229 1805 1075 1958 890 1958 
C 704 1958 550 1805 550 1619 
C 550 1433 704 1280 890 1280 
C 1075 1280 1229 1433 1229 1619 
z
" transform="scale(0.015625)"/>
     </defs>
     <use xlink:href="#CMSY10-1" transform="scale(0.996264)"/>
     <use xlink:href="#CMSY10-1" transform="translate(44.27849 0) scale(0.996264)"/>
     <use xlink:href="#CMSY10-1" transform="translate(88.55698 0) scale(0.996264)"/>
     <use xlink:href="#CMSY10-1" transform="translate(147.460177 0) scale(0.996264)"/>
     <use xlink:href="#CMSY10-1" transform="translate(191.738667 0) scale(0.996264)"/>
     <use xlink:href="#CMSY10-1" transform="translate(236.017157 0) scale(0.996264)"/>
    </g>
   </g>
  </g>
 </g>
 <defs>
  <clipPath id="p5aa3a789c5">
   <rect x="29.188212" y="42.149508" width="177.764281" height="144.474492"/>
  </clipPath>
 </defs>
</svg>
