<?xml version="1.0" encoding="utf-8" standalone="no"?>
<!DOCTYPE svg PUBLIC "-//W3C//DTD SVG 1.1//EN"
  "http://www.w3.org/Graphics/SVG/1.1/DTD/svg11.dtd">
<svg xmlns:xlink="http://www.w3.org/1999/xlink" width="252pt" height="216pt" viewBox="0 0 252 216" xmlns="http://www.w3.org/2000/svg" version="1.1">
 <metadata>
  <rdf:RDF xmlns:dc="http://purl.org/dc/elements/1.1/" xmlns:cc="http://creativecommons.org/ns#" xmlns:rdf="http://www.w3.org/1999/02/22-rdf-syntax-ns#">
   <cc:Work>
    <dc:type rdf:resource="http://purl.org/dc/dcmitype/StillImage"/>
    <dc:date>2025-12-18T11:07:23.398548</dc:date>
    <dc:format>image/svg+xml</dc:format>
    <dc:creator>
     <cc:Agent>
      <dc:title>Matplotlib v3.10.7, https://matplotlib.org/</dc:title>
     </cc:Agent>
    </dc:creator>
   </cc:Work>
  </rdf:RDF>
 </metadata>
 <defs>
  <style type="text/css">*{stroke-linejoin: round; stroke-linecap: butt}</style>
 </defs>
 <g id="figure_1">
  <g id="patch_1">
   <path d="M 0 216 
L 252 216 
L 252 0 
L 0 0 
z
" style="fill: #ffffff"/>
  </g>
  <g id="axes_1">
   <g id="patch_2">
    <path d="M 29.188212 186.624 
L 206.952492 186.624 
L 206.952492 42.149508 
L 29.188212 42.149508 
z
" style="fill: #ffffff"/>
   </g>
   <g id="matplotlib.axis_1">
    <g id="text_1">
     <!-- $q$ -->
     <g transform="translate(200.032215 172.693588) scale(0.16 -0.16)">
      <defs>
       <path id="CMMI12-71" d="M 2822 2759 
C 2822 2790 2797 2816 2765 2816 
C 2714 2816 2464 2585 2342 2362 
C 2227 2646 2029 2816 1754 2816 
C 1030 2816 250 1884 250 939 
C 250 307 621 -64 1056 -64 
C 1395 -64 1677 193 1811 339 
L 1818 333 
L 1574 -615 
L 1517 -842 
C 1459 -1031 1363 -1031 1062 -1031 
C 992 -1031 928 -1031 928 -1152 
C 928 -1197 966 -1216 1011 -1216 
C 1101 -1216 1216 -1216 1306 -1216 
L 1958 -1216 
C 2054 -1216 2163 -1216 2259 -1216 
C 2298 -1216 2374 -1216 2374 -1095 
C 2374 -1031 2323 -1031 2227 -1031 
C 1926 -1031 1907 -986 1907 -935 
C 1907 -904 1914 -898 1933 -815 
L 2822 2759 
z
M 1920 762 
C 1888 652 1888 640 1798 518 
C 1658 339 1376 64 1075 64 
C 813 64 666 301 666 678 
C 666 1030 864 1747 986 2016 
C 1203 2464 1504 2695 1754 2695 
C 2176 2695 2259 2170 2259 2119 
C 2259 2113 2240 2028 2234 2016 
L 1920 762 
z
" transform="scale(0.015625)"/>
      </defs>
      <use xlink:href="#CMMI12-71" transform="scale(0.996264)"/>
     </g>
    </g>
   </g>
   <g id="matplotlib.axis_2">
    <g id="text_2">
     <!-- $\tilde{C}$ -->
     <g transform="translate(45.669406 39.824912) scale(0.12 -0.12)">
      <defs>
       <path id="CMR17-7e" d="M 2400 4184 
C 2182 3980 2061 3865 1862 3865 
C 1722 3865 1626 3932 1491 4024 
C 1363 4111 1261 4184 1120 4184 
C 890 4184 730 4004 461 3718 
L 531 3648 
C 749 3850 870 3968 1069 3968 
C 1210 3968 1306 3900 1440 3808 
C 1568 3722 1670 3648 1811 3648 
C 2042 3648 2202 3828 2470 4114 
L 2400 4184 
z
" transform="scale(0.015625)"/>
       <path id="CMMI12-43" d="M 4781 4423 
C 4781 4480 4736 4480 4723 4480 
C 4710 4480 4685 4480 4634 4416 
L 4192 3882 
C 3968 4264 3616 4480 3136 4480 
C 1754 4480 320 3088 320 1595 
C 320 533 1069 -128 2003 -128 
C 2515 -128 2963 88 3334 400 
C 3891 863 4058 1481 4058 1531 
C 4058 1588 4006 1588 3987 1588 
C 3930 1588 3923 1550 3910 1524 
C 3616 534 2752 57 2112 57 
C 1434 57 845 489 845 1391 
C 845 1595 909 2700 1632 3532 
C 1984 3939 2586 4295 3194 4295 
C 3898 4295 4211 3717 4211 3068 
C 4211 2903 4192 2764 4192 2738 
C 4192 2681 4256 2681 4275 2681 
C 4346 2681 4352 2687 4378 2801 
L 4781 4423 
z
" transform="scale(0.015625)"/>
      </defs>
      <use xlink:href="#CMR17-7e" transform="translate(23.757346 25.189733) scale(0.996264)"/>
      <use xlink:href="#CMMI12-43" transform="scale(0.996264)"/>
     </g>
    </g>
   </g>
   <g id="line2d_1">
    <path d="M 149.192791 186.624 
L 149.192791 42.149508 
" clip-path="url(#p7d81eacab1)" style="fill: none; stroke-dasharray: 7.4,3.2; stroke-dashoffset: 0; stroke: #f18f01; stroke-opacity: 0.5; stroke-width: 2"/>
   </g>
   <g id="line2d_2">
    <path d="M 172.21339 186.624 
L 172.21339 42.149508 
" clip-path="url(#p7d81eacab1)" style="fill: none; stroke-dasharray: 7.4,3.2; stroke-dashoffset: 0; stroke: #a23b72; stroke-opacity: 0.5; stroke-width: 2"/>
   </g>
   <g id="line2d_3">
    <path d="M 181.27051 186.624 
L 181.27051 42.149508 
" clip-path="url(#p7d81eacab1)" style="fill: none; stroke-dasharray: 7.4,3.2; stroke-dashoffset: 0; stroke: #2e86ab; stroke-opacity: 0.5; stroke-width: 2"/>
   </g>
   <g id="patch_3">
    <path d="M 29.188212 186.624 
L 29.188212 42.149508 
" style="fill: none; stroke: #000000; stroke-width: 0.8; stroke-linejoin: miter; stroke-linecap: square"/>
   </g>
   <g id="patch_4">
    <path d="M 29.188212 186.624 
L 206.952492 186.624 
" style="fill: none; stroke: #000000; stroke-width: 0.8; stroke-linejoin: miter; stroke-linecap: square"/>
   </g>
   <g id="line2d_4">
    <path d="M 32.606755 44.927863 
L 35.605478 45.056511 
L 38.604201 45.442094 
L 41.602923 46.083899 
L 44.601646 46.980962 
L 47.600369 48.132041 
L 50.599092 49.535588 
L 53.597814 51.189724 
L 56.596537 53.092197 
L 59.59526 55.240354 
L 63.022371 57.992225 
L 66.449483 61.055498 
L 69.876594 64.423814 
L 73.303706 68.089766 
L 77.159207 72.558996 
L 81.014707 77.379809 
L 85.298597 83.128331 
L 89.582486 89.263594 
L 94.294765 96.421279 
L 99.435432 104.661011 
L 105.432878 114.740903 
L 113.143879 128.201258 
L 126.852325 152.229391 
L 131.992993 160.733493 
L 136.276882 167.372336 
L 139.703994 172.302357 
L 143.131106 176.83995 
L 146.129828 180.467953 
L 149.128551 183.778093 
L 149.985329 183.845644 
L 203.533948 183.845644 
L 203.533948 183.845644 
" clip-path="url(#p7d81eacab1)" style="fill: none; stroke: #f18f01; stroke-opacity: 0.9; stroke-width: 3; stroke-linecap: square"/>
   </g>
   <g id="line2d_5">
    <path d="M 32.606755 44.927863 
L 50.599092 45.034504 
L 59.166871 45.300024 
L 66.021094 45.719741 
L 72.018539 46.306086 
L 77.159207 47.023147 
L 81.871485 47.897979 
L 86.155375 48.911074 
L 90.010875 50.031414 
L 93.866376 51.380189 
L 97.293488 52.797444 
L 100.720599 54.44652 
L 104.147711 56.354886 
L 107.146434 58.260654 
L 110.145156 60.408822 
L 113.143879 62.821836 
L 116.142602 65.523283 
L 119.141324 68.537739 
L 122.140047 71.890536 
L 125.13877 75.607419 
L 128.137492 79.714059 
L 131.136215 84.235364 
L 134.134938 89.194547 
L 137.13366 94.611853 
L 140.132383 100.50285 
L 143.131106 106.87616 
L 146.129828 113.73046 
L 149.55694 122.132601 
L 153.412441 132.243093 
L 158.124719 145.331758 
L 167.977665 173.042041 
L 171.404777 181.867135 
L 172.261555 183.845644 
L 203.533948 183.845644 
L 203.533948 183.845644 
" clip-path="url(#p7d81eacab1)" style="fill: none; stroke: #a23b72; stroke-opacity: 0.9; stroke-width: 3; stroke-linecap: square"/>
   </g>
   <g id="line2d_6">
    <path d="M 32.606755 44.927863 
L 66.021094 45.035495 
L 77.159207 45.292613 
L 85.298597 45.684394 
L 92.15282 46.230332 
L 97.721877 46.880722 
L 102.862544 47.700514 
L 107.574822 48.688502 
L 111.858712 49.831247 
L 115.714213 51.1021 
L 119.141324 52.461276 
L 122.568436 54.074008 
L 125.567159 55.725851 
L 128.565881 57.63574 
L 131.564604 59.839906 
L 134.134938 61.994287 
L 136.705271 64.423607 
L 139.275605 67.159603 
L 141.845939 70.237152 
L 144.416273 73.694357 
L 146.986606 77.572514 
L 149.55694 81.91588 
L 152.127274 86.771134 
L 154.697608 92.186355 
L 157.267941 98.209292 
L 159.838275 104.88453 
L 162.408609 112.249087 
L 164.978942 120.32569 
L 167.549276 129.112941 
L 170.547999 140.207814 
L 173.97511 153.795971 
L 181.257723 183.793788 
L 182.54289 183.845644 
L 203.533948 183.845644 
L 203.533948 183.845644 
" clip-path="url(#p7d81eacab1)" style="fill: none; stroke: #2e86ab; stroke-opacity: 0.9; stroke-width: 3; stroke-linecap: square"/>
   </g>
   <g id="patch_5">
    <path d="M 206.952492 186.624 
Q 215.840706 186.624 224.169903 186.624 
" style="fill: none; stroke: #000000; stroke-width: 0.5; stroke-linecap: round"/>
    <path d="M 214.569903 181.824 
L 224.169903 186.624 
L 214.569903 191.424 
" style="fill: none; stroke: #000000; stroke-width: 0.5; stroke-linecap: round"/>
   </g>
   <g id="patch_6">
    <path d="M 29.359139 42.149508 
Q 29.359139 34.925783 29.359139 28.261076 
" style="fill: none; stroke: #000000; stroke-width: 0.5; stroke-linecap: round"/>
    <path d="M 24.559139 37.861076 
L 29.359139 28.261076 
L 34.159139 37.861076 
" style="fill: none; stroke: #000000; stroke-width: 0.5; stroke-linecap: round"/>
   </g>
   <g id="text_3">
    <!-- $q_c^{ k_{ \mathrm{min} } = 2 } \approx$0.68 -->
    <g style="fill: #f18f01" transform="translate(33.093909 181.067289) scale(0.12 -0.12)">
     <defs>
      <path id="CMMI12-6b" d="M 1798 4257 
C 1805 4283 1818 4321 1818 4352 
C 1818 4416 1754 4416 1741 4416 
C 1734 4416 1504 4393 1389 4377 
C 1280 4377 1184 4358 1069 4358 
C 915 4345 870 4339 870 4224 
C 870 4160 934 4160 998 4160 
C 1325 4160 1325 4103 1325 4040 
C 1325 4015 1325 4002 1293 3888 
L 378 248 
C 352 152 352 140 352 101 
C 352 -38 461 -64 525 -64 
C 704 -64 742 77 794 275 
L 1094 1469 
C 1555 1418 1830 1226 1830 920 
C 1830 881 1830 856 1811 760 
C 1786 664 1786 588 1786 556 
C 1786 185 2029 -64 2355 -64 
C 2650 -64 2803 204 2854 294 
C 2989 530 3072 888 3072 913 
C 3072 945 3046 971 3008 971 
C 2950 971 2944 945 2918 843 
C 2829 511 2694 64 2368 64 
C 2240 64 2157 128 2157 370 
C 2157 492 2182 632 2208 728 
C 2234 843 2234 849 2234 926 
C 2234 1303 1894 1514 1306 1590 
C 1536 1731 1766 1980 1856 2076 
C 2221 2484 2470 2689 2765 2689 
C 2912 2689 2950 2650 2995 2612 
C 2758 2586 2669 2420 2669 2293 
C 2669 2139 2790 2088 2880 2088 
C 3053 2088 3206 2235 3206 2440 
C 3206 2625 3059 2816 2771 2816 
C 2419 2816 2131 2567 1677 2056 
C 1613 1980 1376 1737 1139 1648 
L 1798 4257 
z
" transform="scale(0.015625)"/>
      <path id="CMR17-6d" d="M 4326 1933 
C 4326 2252 4269 2790 3507 2790 
C 3072 2790 2771 2496 2656 2151 
L 2650 2151 
C 2573 2676 2195 2790 1837 2790 
C 1331 2790 1069 2400 973 2144 
L 966 2144 
L 966 2790 
L 211 2720 
L 211 2554 
C 589 2554 646 2515 646 2208 
L 646 428 
C 646 184 621 153 211 153 
L 211 -13 
C 365 0 646 0 813 0 
C 979 0 1267 0 1421 -13 
L 1421 153 
C 1011 153 986 178 986 428 
L 986 1658 
C 986 2247 1344 2688 1792 2688 
C 2266 2688 2317 2266 2317 1958 
L 2317 428 
C 2317 184 2291 153 1882 153 
L 1882 -13 
C 2035 0 2317 0 2483 0 
C 2650 0 2938 0 3091 -13 
L 3091 153 
C 2682 153 2656 178 2656 428 
L 2656 1658 
C 2656 2247 3014 2688 3462 2688 
C 3936 2688 3987 2266 3987 1958 
L 3987 428 
C 3987 184 3962 153 3552 153 
L 3552 -13 
C 3706 0 3987 0 4154 0 
C 4320 0 4608 0 4762 -13 
L 4762 153 
C 4352 153 4326 178 4326 428 
L 4326 1933 
z
" transform="scale(0.015625)"/>
      <path id="CMR17-69" d="M 992 3909 
C 992 4049 877 4170 730 4170 
C 589 4170 467 4056 467 3909 
C 467 3769 582 3648 730 3648 
C 870 3648 992 3763 992 3909 
z
M 243 2706 
L 243 2541 
C 602 2541 653 2502 653 2197 
L 653 427 
C 653 184 627 153 218 153 
L 218 -13 
C 371 0 646 0 806 0 
C 960 0 1222 0 1370 -13 
L 1370 153 
C 992 153 979 191 979 420 
L 979 2776 
L 243 2706 
z
" transform="scale(0.015625)"/>
      <path id="CMR17-6e" d="M 2656 1933 
C 2656 2259 2592 2790 1837 2790 
C 1331 2790 1069 2400 973 2144 
L 966 2144 
L 966 2790 
L 211 2720 
L 211 2554 
C 589 2554 646 2515 646 2208 
L 646 428 
C 646 184 621 153 211 153 
L 211 -13 
C 365 0 646 0 813 0 
C 979 0 1267 0 1421 -13 
L 1421 153 
C 1011 153 986 178 986 428 
L 986 1658 
C 986 2247 1344 2688 1792 2688 
C 2266 2688 2317 2266 2317 1958 
L 2317 428 
C 2317 184 2291 153 1882 153 
L 1882 -13 
C 2035 0 2317 0 2483 0 
C 2650 0 2938 0 3091 -13 
L 3091 153 
C 2682 153 2656 178 2656 428 
L 2656 1933 
z
" transform="scale(0.015625)"/>
      <path id="CMR17-3d" d="M 4115 2017 
C 4211 2017 4307 2017 4307 2125 
C 4307 2240 4198 2240 4090 2240 
L 512 2240 
C 403 2240 294 2240 294 2125 
C 294 2017 390 2017 486 2017 
L 4115 2017 
z
M 4090 896 
C 4198 896 4307 896 4307 1011 
C 4307 1119 4211 1119 4115 1119 
L 486 1119 
C 390 1119 294 1119 294 1011 
C 294 896 403 896 512 896 
L 4090 896 
z
" transform="scale(0.015625)"/>
      <path id="CMR17-32" d="M 2669 989 
L 2554 989 
C 2490 536 2438 459 2413 420 
C 2381 369 1920 369 1830 369 
L 602 369 
C 832 619 1280 1072 1824 1597 
C 2214 1967 2669 2402 2669 3035 
C 2669 3790 2067 4224 1395 4224 
C 691 4224 262 3604 262 3030 
C 262 2780 448 2748 525 2748 
C 589 2748 781 2787 781 3010 
C 781 3207 614 3264 525 3264 
C 486 3264 448 3258 422 3245 
C 544 3790 915 4058 1306 4058 
C 1862 4058 2227 3617 2227 3035 
C 2227 2479 1901 2000 1536 1584 
L 262 146 
L 262 0 
L 2515 0 
L 2669 989 
z
" transform="scale(0.015625)"/>
      <path id="CMMI12-63" d="M 2502 2431 
C 2381 2431 2323 2431 2234 2355 
C 2195 2323 2125 2227 2125 2125 
C 2125 1997 2221 1920 2342 1920 
C 2496 1920 2669 2044 2669 2292 
C 2669 2588 2374 2816 1933 2816 
C 1094 2816 256 1903 256 996 
C 256 441 602 -64 1254 -64 
C 2125 -64 2675 622 2675 706 
C 2675 744 2637 776 2611 776 
C 2592 776 2586 770 2528 713 
C 2118 162 1510 64 1267 64 
C 826 64 685 446 685 764 
C 685 988 794 1605 1024 2039 
C 1190 2338 1536 2682 1939 2682 
C 2022 2682 2374 2682 2502 2431 
z
" transform="scale(0.015625)"/>
      <path id="CMSY10-19" d="M 4622 2890 
C 4622 3023 4577 3081 4533 3081 
C 4507 3081 4449 3055 4443 2909 
C 4417 2469 3969 2208 3553 2208 
C 3182 2208 2862 2405 2529 2628 
C 2183 2858 1837 3087 1421 3087 
C 826 3087 352 2634 352 2047 
C 352 1907 403 1856 442 1856 
C 506 1856 531 1977 531 2002 
C 563 2538 1088 2729 1421 2729 
C 1792 2729 2113 2531 2445 2308 
C 2791 2079 3137 1850 3553 1850 
C 4149 1850 4622 2303 4622 2890 
z
M 4622 1391 
C 4622 1577 4545 1590 4533 1590 
C 4507 1590 4449 1558 4443 1417 
C 4417 975 3969 713 3553 713 
C 3182 713 2862 912 2529 1137 
C 2183 1369 1837 1600 1421 1600 
C 826 1600 352 1145 352 554 
C 352 412 403 361 442 361 
C 506 361 531 483 531 509 
C 563 1049 1088 1242 1421 1242 
C 1792 1242 2113 1042 2445 817 
C 2791 586 3137 354 3553 354 
C 4161 354 4622 828 4622 1391 
z
" transform="scale(0.015625)"/>
      <path id="CMSS17-30" d="M 2758 2044 
C 2758 2405 2752 3077 2490 3596 
C 2227 4096 1805 4229 1504 4229 
C 1069 4229 698 3975 506 3570 
C 301 3146 243 2709 243 2044 
C 243 1589 262 1031 493 543 
C 755 5 1197 -128 1498 -128 
C 1894 -128 2278 81 2496 518 
C 2720 974 2758 1474 2758 2044 
z
M 1498 261 
C 1011 261 864 811 819 995 
C 742 1310 730 1614 730 2114 
C 730 2506 730 2948 851 3297 
C 998 3701 1254 3840 1498 3840 
C 1971 3840 2125 3372 2176 3208 
C 2272 2873 2272 2481 2272 2114 
C 2272 1526 2272 261 1498 261 
z
" transform="scale(0.015625)"/>
      <path id="CMSS17-2e" d="M 1088 510 
L 576 510 
L 576 0 
L 1088 0 
L 1088 510 
z
" transform="scale(0.015625)"/>
      <path id="CMSS17-36" d="M 2496 4101 
C 2227 4210 2035 4229 1856 4229 
C 1024 4229 250 3368 250 2006 
C 250 265 986 -128 1510 -128 
C 1798 -128 2086 -39 2362 280 
C 2643 617 2752 898 2752 1389 
C 2752 2179 2362 2880 1779 2880 
C 1357 2880 992 2657 768 2376 
C 832 3258 1254 3840 1862 3840 
C 2029 3840 2246 3816 2496 3710 
L 2496 4101 
z
M 774 1369 
C 774 1420 774 1452 781 1548 
C 781 2045 1069 2491 1536 2491 
C 1837 2491 1990 2332 2106 2135 
C 2240 1886 2246 1650 2246 1388 
C 2246 1140 2246 891 2099 637 
C 1978 439 1818 267 1510 267 
C 902 267 800 1114 774 1369 
z
" transform="scale(0.015625)"/>
      <path id="CMSS17-38" d="M 1933 2222 
C 2419 2380 2669 2760 2669 3134 
C 2669 3722 2157 4229 1504 4229 
C 826 4229 333 3708 333 3144 
C 333 2780 576 2403 1069 2241 
C 442 1997 250 1512 250 1149 
C 250 446 819 -128 1498 -128 
C 2202 -128 2752 455 2752 1138 
C 2752 1557 2502 2000 1933 2222 
z
M 1504 2432 
C 1075 2432 787 2712 787 3136 
C 787 3566 1075 3840 1504 3840 
C 1901 3840 2214 3591 2214 3136 
C 2214 2687 1907 2432 1504 2432 
z
M 1504 267 
C 1139 267 749 517 749 1156 
C 749 1813 1184 2043 1498 2043 
C 1843 2043 2253 1800 2253 1156 
C 2253 491 1830 267 1504 267 
z
" transform="scale(0.015625)"/>
     </defs>
     <use xlink:href="#CMMI12-71" transform="scale(0.996264)"/>
     <use xlink:href="#CMMI12-6b" transform="translate(46.826324 36.153639) scale(0.697382)"/>
     <use xlink:href="#CMR17-6d" transform="translate(82.340789 25.692943) scale(0.498132)"/>
     <use xlink:href="#CMR17-69" transform="translate(120.800584 25.692943) scale(0.498132)"/>
     <use xlink:href="#CMR17-6e" transform="translate(133.236113 25.692943) scale(0.498132)"/>
     <use xlink:href="#CMR17-3d" transform="translate(159.181922 36.153639) scale(0.697382)"/>
     <use xlink:href="#CMR17-32" transform="translate(209.382054 36.153639) scale(0.697382)"/>
     <use xlink:href="#CMMI12-63" transform="translate(43.251731 -24.62935) scale(0.697382)"/>
     <use xlink:href="#CMSY10-19" transform="translate(269.537376 0) scale(0.996264)"/>
     <use xlink:href="#CMSS17-30" transform="translate(347.024844 0) scale(0.996264)"/>
     <use xlink:href="#CMSS17-2e" transform="translate(393.868467 0) scale(0.996264)"/>
     <use xlink:href="#CMSS17-36" transform="translate(419.892672 0) scale(0.996264)"/>
     <use xlink:href="#CMSS17-38" transform="translate(466.736296 0) scale(0.996264)"/>
    </g>
   </g>
   <g id="text_4">
    <!-- $q_c^{ k_{ \mathrm{min} } = 3 } \approx$0.82 -->
    <g style="fill: #a23b72" transform="translate(33.093909 167.175511) scale(0.12 -0.12)">
     <defs>
      <path id="CMR17-33" d="M 1414 2157 
C 1984 2157 2234 1662 2234 1090 
C 2234 320 1824 25 1453 25 
C 1114 25 563 194 390 693 
C 422 680 454 680 486 680 
C 640 680 755 782 755 948 
C 755 1133 614 1216 486 1216 
C 378 1216 211 1165 211 926 
C 211 335 787 -128 1466 -128 
C 2176 -128 2720 430 2720 1085 
C 2720 1707 2208 2157 1600 2227 
C 2086 2328 2554 2756 2554 3329 
C 2554 3820 2048 4179 1472 4179 
C 890 4179 378 3829 378 3329 
C 378 3110 544 3072 627 3072 
C 762 3072 877 3155 877 3321 
C 877 3486 762 3569 627 3569 
C 602 3569 570 3569 544 3557 
C 730 3959 1235 4032 1459 4032 
C 1683 4032 2106 3925 2106 3320 
C 2106 3143 2080 2828 1862 2550 
C 1670 2304 1453 2304 1242 2284 
C 1210 2284 1062 2269 1037 2269 
C 992 2263 966 2257 966 2208 
C 966 2163 973 2157 1101 2157 
L 1414 2157 
z
" transform="scale(0.015625)"/>
      <path id="CMSS17-32" d="M 1651 1357 
C 1830 1541 2099 1764 2285 1987 
C 2464 2204 2701 2511 2701 2957 
C 2701 3657 2227 4288 1421 4288 
C 787 4288 422 3893 250 3274 
L 499 2929 
C 640 3510 838 3880 1338 3880 
C 1888 3880 2195 3433 2195 2942 
C 2195 2355 1747 1901 1408 1563 
C 1030 1187 659 804 301 408 
L 301 0 
L 2701 0 
L 2701 433 
L 1613 433 
C 1536 433 1459 433 1382 433 
L 742 433 
L 742 439 
L 1651 1357 
z
" transform="scale(0.015625)"/>
     </defs>
     <use xlink:href="#CMMI12-71" transform="scale(0.996264)"/>
     <use xlink:href="#CMMI12-6b" transform="translate(46.826324 36.153639) scale(0.697382)"/>
     <use xlink:href="#CMR17-6d" transform="translate(82.340789 25.692943) scale(0.498132)"/>
     <use xlink:href="#CMR17-69" transform="translate(120.800584 25.692943) scale(0.498132)"/>
     <use xlink:href="#CMR17-6e" transform="translate(133.236113 25.692943) scale(0.498132)"/>
     <use xlink:href="#CMR17-3d" transform="translate(159.181922 36.153639) scale(0.697382)"/>
     <use xlink:href="#CMR17-33" transform="translate(209.382054 36.153639) scale(0.697382)"/>
     <use xlink:href="#CMMI12-63" transform="translate(43.251731 -24.62935) scale(0.697382)"/>
     <use xlink:href="#CMSY10-19" transform="translate(269.537376 0) scale(0.996264)"/>
     <use xlink:href="#CMSS17-30" transform="translate(347.024844 0) scale(0.996264)"/>
     <use xlink:href="#CMSS17-2e" transform="translate(393.868467 0) scale(0.996264)"/>
     <use xlink:href="#CMSS17-38" transform="translate(419.892672 0) scale(0.996264)"/>
     <use xlink:href="#CMSS17-32" transform="translate(466.736296 0) scale(0.996264)"/>
    </g>
   </g>
   <g id="text_5">
    <!-- $q_c^{ k_{ \mathrm{min} } = 4 } \approx$0.87 -->
    <g style="fill: #2e86ab" transform="translate(33.093909 153.283733) scale(0.12 -0.12)">
     <defs>
      <path id="CMR17-34" d="M 2150 4122 
C 2150 4256 2144 4256 2029 4256 
L 128 1254 
L 128 1088 
L 1779 1088 
L 1779 457 
C 1779 224 1766 160 1318 160 
L 1197 160 
L 1197 0 
C 1402 0 1747 0 1965 0 
C 2182 0 2528 0 2733 0 
L 2733 160 
L 2611 160 
C 2163 160 2150 224 2150 457 
L 2150 1088 
L 2803 1088 
L 2803 1254 
L 2150 1254 
L 2150 4122 
z
M 1798 3703 
L 1798 1254 
L 256 1254 
L 1798 3703 
z
" transform="scale(0.015625)"/>
      <path id="CMSS17-37" d="M 1389 3776 
C 1466 3776 1542 3776 1619 3776 
L 2355 3776 
C 1440 2711 915 1365 915 -32 
L 1427 -32 
C 1427 1323 1875 2696 2752 3795 
L 2752 4209 
L 250 4209 
L 250 3776 
L 1389 3776 
z
" transform="scale(0.015625)"/>
     </defs>
     <use xlink:href="#CMMI12-71" transform="scale(0.996264)"/>
     <use xlink:href="#CMMI12-6b" transform="translate(46.826324 36.153639) scale(0.697382)"/>
     <use xlink:href="#CMR17-6d" transform="translate(82.340789 25.692943) scale(0.498132)"/>
     <use xlink:href="#CMR17-69" transform="translate(120.800584 25.692943) scale(0.498132)"/>
     <use xlink:href="#CMR17-6e" transform="translate(133.236113 25.692943) scale(0.498132)"/>
     <use xlink:href="#CMR17-3d" transform="translate(159.181922 36.153639) scale(0.697382)"/>
     <use xlink:href="#CMR17-34" transform="translate(209.382054 36.153639) scale(0.697382)"/>
     <use xlink:href="#CMMI12-63" transform="translate(43.251731 -24.62935) scale(0.697382)"/>
     <use xlink:href="#CMSY10-19" transform="translate(269.537376 0) scale(0.996264)"/>
     <use xlink:href="#CMSS17-30" transform="translate(347.024844 0) scale(0.996264)"/>
     <use xlink:href="#CMSS17-2e" transform="translate(393.868467 0) scale(0.996264)"/>
     <use xlink:href="#CMSS17-38" transform="translate(419.892672 0) scale(0.996264)"/>
     <use xlink:href="#CMSS17-37" transform="translate(466.736296 0) scale(0.996264)"/>
    </g>
   </g>
   <g id="text_6">
    <!-- $\beta = 2$ -->
    <g transform="translate(57.484724 97.71662) scale(0.12 -0.12)">
     <defs>
      <path id="CMMI12-c" d="M 3622 3701 
C 3622 4081 3296 4480 2714 4480 
C 1888 4480 1363 3477 1197 2816 
L 186 -1172 
C 173 -1223 211 -1236 243 -1236 
C 288 -1236 320 -1230 326 -1198 
L 774 586 
C 838 229 1190 -64 1568 -64 
C 2483 -64 3347 650 3347 1599 
C 3347 1841 3290 2083 3155 2287 
C 3078 2408 2982 2497 2880 2574 
C 3341 2815 3622 3200 3622 3701 
z
M 2509 2580 
C 2406 2542 2304 2529 2182 2529 
C 2093 2529 2010 2523 1894 2561 
C 1958 2606 2054 2618 2189 2618 
C 2304 2618 2419 2606 2509 2580 
z
M 3290 3758 
C 3290 3410 3117 2903 2701 2669 
C 2579 2718 2413 2752 2272 2752 
C 2138 2752 1754 2752 1754 2555 
C 1754 2389 2106 2389 2214 2389 
C 2381 2389 2528 2432 2682 2484 
C 2886 2318 2976 2101 2976 1783 
C 2976 1413 2874 1115 2752 841 
C 2541 369 2042 64 1600 64 
C 1133 64 890 432 890 864 
C 890 922 890 1005 915 1099 
L 1331 2771 
C 1542 3603 2080 4353 2701 4353 
C 3162 4353 3290 4036 3290 3758 
z
" transform="scale(0.015625)"/>
     </defs>
     <use xlink:href="#CMMI12-c" transform="scale(0.996264)"/>
     <use xlink:href="#CMR17-3d" transform="translate(88.268024 0) scale(0.996264)"/>
     <use xlink:href="#CMR17-32" transform="translate(187.656822 0) scale(0.996264)"/>
    </g>
   </g>
   <g id="text_7">
    <!-- $\nu =   5$ -->
    <g transform="translate(57.851399 111.608398) scale(0.12 -0.12)">
     <defs>
      <path id="CMMI12-17" d="M 1408 2753 
C 1408 2778 1389 2816 1338 2816 
C 1293 2816 691 2751 595 2751 
C 525 2744 461 2738 461 2623 
C 461 2560 512 2560 602 2560 
C 902 2560 922 2515 922 2445 
C 922 2419 909 2343 902 2318 
L 339 64 
C 339 38 358 0 403 0 
L 538 0 
C 627 0 1600 230 2349 996 
C 3174 1846 3290 2632 3290 2657 
C 3290 2759 3206 2816 3123 2816 
C 2938 2816 2893 2644 2880 2599 
C 2502 1264 1626 473 774 192 
L 1408 2753 
z
" transform="scale(0.015625)"/>
      <path id="CMR17-35" d="M 730 3692 
C 794 3666 1056 3584 1325 3584 
C 1920 3584 2246 3911 2432 4100 
C 2432 4157 2432 4192 2394 4192 
C 2387 4192 2374 4192 2323 4163 
C 2099 4058 1837 3973 1517 3973 
C 1325 3973 1037 3999 723 4139 
C 653 4171 640 4171 634 4171 
C 602 4171 595 4164 595 4037 
L 595 2203 
C 595 2089 595 2057 659 2057 
C 691 2057 704 2070 736 2114 
C 941 2401 1222 2522 1542 2522 
C 1766 2522 2246 2382 2246 1289 
C 2246 1085 2246 715 2054 421 
C 1894 159 1645 25 1370 25 
C 947 25 518 320 403 814 
C 429 807 480 795 506 795 
C 589 795 749 840 749 1038 
C 749 1210 627 1280 506 1280 
C 358 1280 262 1190 262 1011 
C 262 454 704 -128 1382 -128 
C 2042 -128 2669 440 2669 1264 
C 2669 2030 2170 2624 1549 2624 
C 1222 2624 947 2503 730 2274 
L 730 3692 
z
" transform="scale(0.015625)"/>
     </defs>
     <use xlink:href="#CMMI12-17" transform="scale(0.996264)"/>
     <use xlink:href="#CMR17-3d" transform="translate(82.156802 0) scale(0.996264)"/>
     <use xlink:href="#CMR17-35" transform="translate(181.545599 0) scale(0.996264)"/>
    </g>
   </g>
   <g id="text_8">
    <!-- $\beta/\nu = 2/5$ -->
    <g transform="translate(45.436278 125.500176) scale(0.12 -0.12)">
     <defs>
      <path id="CMMI12-3d" d="M 2746 4562 
C 2746 4569 2784 4666 2784 4678 
C 2784 4755 2720 4800 2669 4800 
C 2637 4800 2579 4800 2528 4659 
L 384 -1363 
C 384 -1370 346 -1465 346 -1478 
C 346 -1555 410 -1600 461 -1600 
C 499 -1600 557 -1593 602 -1459 
L 2746 4562 
z
" transform="scale(0.015625)"/>
     </defs>
     <use xlink:href="#CMMI12-c" transform="scale(0.996264)"/>
     <use xlink:href="#CMMI12-3d" transform="translate(60.594016 0) scale(0.996264)"/>
     <use xlink:href="#CMMI12-17" transform="translate(109.368934 0) scale(0.996264)"/>
     <use xlink:href="#CMR17-3d" transform="translate(191.525736 0) scale(0.996264)"/>
     <use xlink:href="#CMR17-32" transform="translate(290.914533 0) scale(0.996264)"/>
     <use xlink:href="#CMMI12-3d" transform="translate(336.60501 0) scale(0.996264)"/>
     <use xlink:href="#CMR17-35" transform="translate(385.379929 0) scale(0.996264)"/>
    </g>
   </g>
   <g id="text_9">
    <!-- $\cdots$ $\cdots$ -->
    <g transform="translate(56.021347 139.391954) scale(0.12 -0.12)">
     <defs>
      <path id="CMSY10-1" d="M 1229 1619 
C 1229 1805 1075 1958 890 1958 
C 704 1958 550 1805 550 1619 
C 550 1433 704 1280 890 1280 
C 1075 1280 1229 1433 1229 1619 
z
" transform="scale(0.015625)"/>
     </defs>
     <use xlink:href="#CMSY10-1" transform="scale(0.996264)"/>
     <use xlink:href="#CMSY10-1" transform="translate(44.27849 0) scale(0.996264)"/>
     <use xlink:href="#CMSY10-1" transform="translate(88.55698 0) scale(0.996264)"/>
     <use xlink:href="#CMSY10-1" transform="translate(147.460177 0) scale(0.996264)"/>
     <use xlink:href="#CMSY10-1" transform="translate(191.738667 0) scale(0.996264)"/>
     <use xlink:href="#CMSY10-1" transform="translate(236.017157 0) scale(0.996264)"/>
    </g>
   </g>
  </g>
 </g>
 <defs>
  <clipPath id="p7d81eacab1">
   <rect x="29.188212" y="42.149508" width="177.764281" height="144.474492"/>
  </clipPath>
 </defs>
</svg>
