<?xml version="1.0" encoding="utf-8" standalone="no"?>
<!DOCTYPE svg PUBLIC "-//W3C//DTD SVG 1.1//EN"
  "http://www.w3.org/Graphics/SVG/1.1/DTD/svg11.dtd">
<svg xmlns:xlink="http://www.w3.org/1999/xlink" width="144pt" height="216pt" viewBox="0 0 144 216" xmlns="http://www.w3.org/2000/svg" version="1.1">
 <metadata>
  <rdf:RDF xmlns:dc="http://purl.org/dc/elements/1.1/" xmlns:cc="http://creativecommons.org/ns#" xmlns:rdf="http://www.w3.org/1999/02/22-rdf-syntax-ns#">
   <cc:Work>
    <dc:type rdf:resource="http://purl.org/dc/dcmitype/StillImage"/>
    <dc:date>2025-12-02T23:47:25.677649</dc:date>
    <dc:format>image/svg+xml</dc:format>
    <dc:creator>
     <cc:Agent>
      <dc:title>Matplotlib v3.10.7, https://matplotlib.org/</dc:title>
     </cc:Agent>
    </dc:creator>
   </cc:Work>
  </rdf:RDF>
 </metadata>
 <defs>
  <style type="text/css">*{stroke-linejoin: round; stroke-linecap: butt}</style>
 </defs>
 <g id="figure_1">
  <g id="patch_1">
   <path d="M 0 216 
L 144 216 
L 144 0 
L 0 0 
z
" style="fill: #ffffff"/>
  </g>
  <g id="axes_1">
   <g id="patch_2">
    <path d="M 0.1 71.966667 
L 143.9 71.966667 
L 143.9 0.1 
L 0.1 0.1 
z
" style="fill: #ffffff"/>
   </g>
   <g id="LineCollection_1">
    <path d="M 56.501804 61.551208 
L 98.617227 59.930353 
" clip-path="url(#pd1970a12ba)" style="fill: none; stroke: #666666; stroke-width: 1.25"/>
    <path d="M 56.501804 61.551208 
L 29.778625 47.109931 
" clip-path="url(#pd1970a12ba)" style="fill: none; stroke: #666666; stroke-width: 1.25"/>
    <path d="M 108.700509 58.628716 
L 121.225865 46.250074 
" clip-path="url(#pd1970a12ba)" style="fill: none; stroke: #666666; stroke-width: 1.25"/>
    <path d="M 108.700509 58.628716 
L 61.672195 48.395375 
" clip-path="url(#pd1970a12ba)" style="fill: none; stroke: #666666; stroke-width: 1.25"/>
    <path d="M 20.94058 36.715594 
L 45.646374 37.343994 
" clip-path="url(#pd1970a12ba)" style="fill: none; stroke: #666666; stroke-width: 1.25"/>
    <path d="M 20.94058 36.715594 
L 65.670805 38.660018 
" clip-path="url(#pd1970a12ba)" style="fill: none; stroke: #666666; stroke-width: 1.25"/>
    <path d="M 36.181749 17.101323 
L 55.237872 12.67341 
" clip-path="url(#pd1970a12ba)" style="fill: none; stroke: #666666; stroke-width: 1.25"/>
    <path d="M 36.181749 17.101323 
L 65.670805 38.660018 
" clip-path="url(#pd1970a12ba)" style="fill: none; stroke: #666666; stroke-width: 1.25"/>
    <path d="M 107.641065 32.608416 
L 63.482543 32.202394 
" clip-path="url(#pd1970a12ba)" style="fill: none; stroke: #666666; stroke-width: 1.25"/>
    <path d="M 107.641065 32.608416 
L 118.553308 21.188315 
" clip-path="url(#pd1970a12ba)" style="fill: none; stroke: #666666; stroke-width: 1.25"/>
    <path d="M 29.306125 31.985191 
L 64.198284 12.968269 
" clip-path="url(#pd1970a12ba)" style="fill: none; stroke: #666666; stroke-width: 1.25"/>
    <path d="M 29.306125 31.985191 
L 40.747918 22.948875 
" clip-path="url(#pd1970a12ba)" style="fill: none; stroke: #666666; stroke-width: 1.25"/>
    <path d="M 98.617227 59.930353 
L 119.634553 37.548128 
" clip-path="url(#pd1970a12ba)" style="fill: none; stroke: #666666; stroke-width: 1.25"/>
    <path d="M 121.225865 46.250074 
L 119.634553 37.548128 
" clip-path="url(#pd1970a12ba)" style="fill: none; stroke: #666666; stroke-width: 1.25"/>
    <path d="M 121.225865 46.250074 
L 87.681524 36.264021 
" clip-path="url(#pd1970a12ba)" style="fill: none; stroke: #666666; stroke-width: 1.25"/>
    <path d="M 121.225865 46.250074 
L 123.05942 52.100014 
" clip-path="url(#pd1970a12ba)" style="fill: none; stroke: #666666; stroke-width: 1.25"/>
    <path d="M 76.665941 35.402135 
L 79.382184 52.438921 
" clip-path="url(#pd1970a12ba)" style="fill: none; stroke: #666666; stroke-width: 1.25"/>
    <path d="M 76.665941 35.402135 
L 47.000052 28.323827 
" clip-path="url(#pd1970a12ba)" style="fill: none; stroke: #666666; stroke-width: 1.25"/>
    <path d="M 97.260824 12.335446 
L 55.237872 12.67341 
" clip-path="url(#pd1970a12ba)" style="fill: none; stroke: #666666; stroke-width: 1.25"/>
    <path d="M 97.260824 12.335446 
L 64.198284 12.968269 
" clip-path="url(#pd1970a12ba)" style="fill: none; stroke: #666666; stroke-width: 1.25"/>
    <path d="M 61.672195 48.395375 
L 30.521383 26.923584 
" clip-path="url(#pd1970a12ba)" style="fill: none; stroke: #666666; stroke-width: 1.25"/>
    <path d="M 87.681524 36.264021 
L 118.553308 21.188315 
" clip-path="url(#pd1970a12ba)" style="fill: none; stroke: #666666; stroke-width: 1.25"/>
    <path d="M 30.521383 26.923584 
L 67.712822 22.210386 
" clip-path="url(#pd1970a12ba)" style="fill: none; stroke: #666666; stroke-width: 1.25"/>
    <path d="M 79.382184 52.438921 
L 123.05942 52.100014 
" clip-path="url(#pd1970a12ba)" style="fill: none; stroke: #666666; stroke-width: 1.25"/>
    <path d="M 55.237872 12.67341 
L 63.482543 32.202394 
" clip-path="url(#pd1970a12ba)" style="fill: none; stroke: #666666; stroke-width: 1.25"/>
    <path d="M 69.890152 18.004476 
L 92.22133 10.515459 
" clip-path="url(#pd1970a12ba)" style="fill: none; stroke: #666666; stroke-width: 1.25"/>
    <path d="M 69.890152 18.004476 
L 47.000052 28.323827 
" clip-path="url(#pd1970a12ba)" style="fill: none; stroke: #666666; stroke-width: 1.25"/>
    <path d="M 69.890152 18.004476 
L 45.646374 37.343994 
" clip-path="url(#pd1970a12ba)" style="fill: none; stroke: #666666; stroke-width: 1.25"/>
    <path d="M 49.30412 21.679697 
L 40.747918 22.948875 
" clip-path="url(#pd1970a12ba)" style="fill: none; stroke: #666666; stroke-width: 1.25"/>
    <path d="M 49.30412 21.679697 
L 29.778625 47.109931 
" clip-path="url(#pd1970a12ba)" style="fill: none; stroke: #666666; stroke-width: 1.25"/>
    <path d="M 40.747918 22.948875 
L 67.712822 22.210386 
" clip-path="url(#pd1970a12ba)" style="fill: none; stroke: #666666; stroke-width: 1.25"/>
    <path d="M 92.22133 10.515459 
L 118.553308 21.188315 
" clip-path="url(#pd1970a12ba)" style="fill: none; stroke: #666666; stroke-width: 1.25"/>
   </g>
   <g id="matplotlib.axis_1"/>
   <g id="matplotlib.axis_2"/>
   <g id="PathCollection_1">
    <path d="M 56.501804 64.289821 
C 57.228092 64.289821 57.924732 64.001263 58.438295 63.487699 
C 58.951859 62.974136 59.240416 62.277496 59.240416 61.551208 
C 59.240416 60.824919 58.951859 60.12828 58.438295 59.614716 
C 57.924732 59.101152 57.228092 58.812595 56.501804 58.812595 
C 55.775515 58.812595 55.078876 59.101152 54.565312 59.614716 
C 54.051748 60.12828 53.763191 60.824919 53.763191 61.551208 
C 53.763191 62.277496 54.051748 62.974136 54.565312 63.487699 
C 55.078876 64.001263 55.775515 64.289821 56.501804 64.289821 
z
" clip-path="url(#pd1970a12ba)" style="fill: #f18f01; stroke: #ffffff; stroke-width: 0.5"/>
    <path d="M 108.700509 61.367329 
C 109.426797 61.367329 110.123437 61.078772 110.637 60.565208 
C 111.150564 60.051645 111.439121 59.355005 111.439121 58.628716 
C 111.439121 57.902428 111.150564 57.205788 110.637 56.692225 
C 110.123437 56.178661 109.426797 55.890104 108.700509 55.890104 
C 107.97422 55.890104 107.27758 56.178661 106.764017 56.692225 
C 106.250453 57.205788 105.961896 57.902428 105.961896 58.628716 
C 105.961896 59.355005 106.250453 60.051645 106.764017 60.565208 
C 107.27758 61.078772 107.97422 61.367329 108.700509 61.367329 
z
" clip-path="url(#pd1970a12ba)" style="fill: #f18f01; stroke: #ffffff; stroke-width: 0.5"/>
    <path d="M 20.94058 39.454207 
C 21.666868 39.454207 22.363508 39.165649 22.877071 38.652086 
C 23.390635 38.138522 23.679192 37.441883 23.679192 36.715594 
C 23.679192 35.989306 23.390635 35.292666 22.877071 34.779103 
C 22.363508 34.265539 21.666868 33.976981 20.94058 33.976981 
C 20.214291 33.976981 19.517652 34.265539 19.004088 34.779103 
C 18.490524 35.292666 18.201967 35.989306 18.201967 36.715594 
C 18.201967 37.441883 18.490524 38.138522 19.004088 38.652086 
C 19.517652 39.165649 20.214291 39.454207 20.94058 39.454207 
z
" clip-path="url(#pd1970a12ba)" style="fill: #f18f01; stroke: #ffffff; stroke-width: 0.5"/>
    <path d="M 36.181749 19.839936 
C 36.908038 19.839936 37.604678 19.551379 38.118241 19.037815 
C 38.631805 18.524251 38.920362 17.827612 38.920362 17.101323 
C 38.920362 16.375035 38.631805 15.678395 38.118241 15.164832 
C 37.604678 14.651268 36.908038 14.362711 36.181749 14.362711 
C 35.455461 14.362711 34.758821 14.651268 34.245258 15.164832 
C 33.731694 15.678395 33.443137 16.375035 33.443137 17.101323 
C 33.443137 17.827612 33.731694 18.524251 34.245258 19.037815 
C 34.758821 19.551379 35.455461 19.839936 36.181749 19.839936 
z
" clip-path="url(#pd1970a12ba)" style="fill: #f18f01; stroke: #ffffff; stroke-width: 0.5"/>
    <path d="M 107.641065 35.347029 
C 108.367354 35.347029 109.063993 35.058471 109.577557 34.544907 
C 110.09112 34.031344 110.379678 33.334704 110.379678 32.608416 
C 110.379678 31.882127 110.09112 31.185488 109.577557 30.671924 
C 109.063993 30.158361 108.367354 29.869803 107.641065 29.869803 
C 106.914776 29.869803 106.218137 30.158361 105.704573 30.671924 
C 105.19101 31.185488 104.902452 31.882127 104.902452 32.608416 
C 104.902452 33.334704 105.19101 34.031344 105.704573 34.544907 
C 106.218137 35.058471 106.914776 35.347029 107.641065 35.347029 
z
" clip-path="url(#pd1970a12ba)" style="fill: #f18f01; stroke: #ffffff; stroke-width: 0.5"/>
    <path d="M 77.245846 62.926658 
C 77.665169 62.926658 78.067374 62.760059 78.36388 62.463553 
C 78.660386 62.167047 78.826985 61.764842 78.826985 61.345519 
C 78.826985 60.926196 78.660386 60.523991 78.36388 60.227485 
C 78.067374 59.930979 77.665169 59.76438 77.245846 59.76438 
C 76.826523 59.76438 76.424318 59.930979 76.127812 60.227485 
C 75.831306 60.523991 75.664707 60.926196 75.664707 61.345519 
C 75.664707 61.764842 75.831306 62.167047 76.127812 62.463553 
C 76.424318 62.760059 76.826523 62.926658 77.245846 62.926658 
z
" clip-path="url(#pd1970a12ba)" style="fill: #f18f01; stroke: #ffffff; stroke-width: 0.5"/>
    <path d="M 29.306125 34.723804 
C 30.032413 34.723804 30.729053 34.435246 31.242616 33.921683 
C 31.75618 33.408119 32.044738 32.71148 32.044738 31.985191 
C 32.044738 31.258902 31.75618 30.562263 31.242616 30.048699 
C 30.729053 29.535136 30.032413 29.246578 29.306125 29.246578 
C 28.579836 29.246578 27.883197 29.535136 27.369633 30.048699 
C 26.85607 30.562263 26.567512 31.258902 26.567512 31.985191 
C 26.567512 32.71148 26.85607 33.408119 27.369633 33.921683 
C 27.883197 34.435246 28.579836 34.723804 29.306125 34.723804 
z
" clip-path="url(#pd1970a12ba)" style="fill: #f18f01; stroke: #ffffff; stroke-width: 0.5"/>
    <path d="M 98.617227 62.668966 
C 99.343516 62.668966 100.040155 62.380408 100.553719 61.866845 
C 101.067283 61.353281 101.35584 60.656642 101.35584 59.930353 
C 101.35584 59.204064 101.067283 58.507425 100.553719 57.993861 
C 100.040155 57.480298 99.343516 57.19174 98.617227 57.19174 
C 97.890939 57.19174 97.194299 57.480298 96.680736 57.993861 
C 96.167172 58.507425 95.878614 59.204064 95.878614 59.930353 
C 95.878614 60.656642 96.167172 61.353281 96.680736 61.866845 
C 97.194299 62.380408 97.890939 62.668966 98.617227 62.668966 
z
" clip-path="url(#pd1970a12ba)" style="fill: #f18f01; stroke: #ffffff; stroke-width: 0.5"/>
    <path d="M 121.225865 49.785607 
C 122.1635 49.785607 123.062857 49.413081 123.725865 48.750074 
C 124.388873 48.087066 124.761399 47.187708 124.761399 46.250074 
C 124.761399 45.312439 124.388873 44.413081 123.725865 43.750074 
C 123.062857 43.087066 122.1635 42.71454 121.225865 42.71454 
C 120.288231 42.71454 119.388873 43.087066 118.725865 43.750074 
C 118.062857 44.413081 117.690331 45.312439 117.690331 46.250074 
C 117.690331 47.187708 118.062857 48.087066 118.725865 48.750074 
C 119.388873 49.413081 120.288231 49.785607 121.225865 49.785607 
z
" clip-path="url(#pd1970a12ba)" style="fill: #f18f01; stroke: #ffffff; stroke-width: 0.5"/>
    <path d="M 76.665941 38.140748 
C 77.39223 38.140748 78.088869 37.85219 78.602433 37.338627 
C 79.115997 36.825063 79.404554 36.128423 79.404554 35.402135 
C 79.404554 34.675846 79.115997 33.979207 78.602433 33.465643 
C 78.088869 32.95208 77.39223 32.663522 76.665941 32.663522 
C 75.939653 32.663522 75.243013 32.95208 74.72945 33.465643 
C 74.215886 33.979207 73.927328 34.675846 73.927328 35.402135 
C 73.927328 36.128423 74.215886 36.825063 74.72945 37.338627 
C 75.243013 37.85219 75.939653 38.140748 76.665941 38.140748 
z
" clip-path="url(#pd1970a12ba)" style="fill: #f18f01; stroke: #ffffff; stroke-width: 0.5"/>
    <path d="M 97.260824 15.074059 
C 97.987113 15.074059 98.683752 14.785502 99.197316 14.271938 
C 99.71088 13.758375 99.999437 13.061735 99.999437 12.335446 
C 99.999437 11.609158 99.71088 10.912518 99.197316 10.398955 
C 98.683752 9.885391 97.987113 9.596834 97.260824 9.596834 
C 96.534536 9.596834 95.837896 9.885391 95.324333 10.398955 
C 94.810769 10.912518 94.522212 11.609158 94.522212 12.335446 
C 94.522212 13.061735 94.810769 13.758375 95.324333 14.271938 
C 95.837896 14.785502 96.534536 15.074059 97.260824 15.074059 
z
" clip-path="url(#pd1970a12ba)" style="fill: #f18f01; stroke: #ffffff; stroke-width: 0.5"/>
    <path d="M 61.672195 51.133988 
C 62.398483 51.133988 63.095123 50.84543 63.608686 50.331867 
C 64.12225 49.818303 64.410808 49.121664 64.410808 48.395375 
C 64.410808 47.669087 64.12225 46.972447 63.608686 46.458884 
C 63.095123 45.94532 62.398483 45.656762 61.672195 45.656762 
C 60.945906 45.656762 60.249267 45.94532 59.735703 46.458884 
C 59.222139 46.972447 58.933582 47.669087 58.933582 48.395375 
C 58.933582 49.121664 59.222139 49.818303 59.735703 50.331867 
C 60.249267 50.84543 60.945906 51.133988 61.672195 51.133988 
z
" clip-path="url(#pd1970a12ba)" style="fill: #f18f01; stroke: #ffffff; stroke-width: 0.5"/>
    <path d="M 87.681524 39.002634 
C 88.407813 39.002634 89.104452 38.714076 89.618016 38.200513 
C 90.131579 37.686949 90.420137 36.99031 90.420137 36.264021 
C 90.420137 35.537733 90.131579 34.841093 89.618016 34.32753 
C 89.104452 33.813966 88.407813 33.525408 87.681524 33.525408 
C 86.955235 33.525408 86.258596 33.813966 85.745032 34.32753 
C 85.231469 34.841093 84.942911 35.537733 84.942911 36.264021 
C 84.942911 36.99031 85.231469 37.686949 85.745032 38.200513 
C 86.258596 38.714076 86.955235 39.002634 87.681524 39.002634 
z
" clip-path="url(#pd1970a12ba)" style="fill: #f18f01; stroke: #ffffff; stroke-width: 0.5"/>
    <path d="M 64.198284 15.706882 
C 64.924573 15.706882 65.621212 15.418324 66.134776 14.904761 
C 66.648339 14.391197 66.936897 13.694558 66.936897 12.968269 
C 66.936897 12.241981 66.648339 11.545341 66.134776 11.031777 
C 65.621212 10.518214 64.924573 10.229656 64.198284 10.229656 
C 63.471995 10.229656 62.775356 10.518214 62.261792 11.031777 
C 61.748229 11.545341 61.459671 12.241981 61.459671 12.968269 
C 61.459671 13.694558 61.748229 14.391197 62.261792 14.904761 
C 62.775356 15.418324 63.471995 15.706882 64.198284 15.706882 
z
" clip-path="url(#pd1970a12ba)" style="fill: #f18f01; stroke: #ffffff; stroke-width: 0.5"/>
    <path d="M 30.521383 29.662197 
C 31.247672 29.662197 31.944311 29.373639 32.457875 28.860076 
C 32.971439 28.346512 33.259996 27.649873 33.259996 26.923584 
C 33.259996 26.197295 32.971439 25.500656 32.457875 24.987092 
C 31.944311 24.473529 31.247672 24.184971 30.521383 24.184971 
C 29.795095 24.184971 29.098455 24.473529 28.584892 24.987092 
C 28.071328 25.500656 27.78277 26.197295 27.78277 26.923584 
C 27.78277 27.649873 28.071328 28.346512 28.584892 28.860076 
C 29.098455 29.373639 29.795095 29.662197 30.521383 29.662197 
z
" clip-path="url(#pd1970a12ba)" style="fill: #f18f01; stroke: #ffffff; stroke-width: 0.5"/>
    <path d="M 79.382184 55.177534 
C 80.108473 55.177534 80.805112 54.888976 81.318676 54.375413 
C 81.832239 53.861849 82.120797 53.16521 82.120797 52.438921 
C 82.120797 51.712632 81.832239 51.015993 81.318676 50.502429 
C 80.805112 49.988866 80.108473 49.700308 79.382184 49.700308 
C 78.655895 49.700308 77.959256 49.988866 77.445692 50.502429 
C 76.932129 51.015993 76.643571 51.712632 76.643571 52.438921 
C 76.643571 53.16521 76.932129 53.861849 77.445692 54.375413 
C 77.959256 54.888976 78.655895 55.177534 79.382184 55.177534 
z
" clip-path="url(#pd1970a12ba)" style="fill: #f18f01; stroke: #ffffff; stroke-width: 0.5"/>
    <path d="M 55.237872 15.835688 
C 56.076518 15.835688 56.880928 15.502491 57.47394 14.909478 
C 58.066952 14.316466 58.40015 13.512056 58.40015 12.67341 
C 58.40015 11.834765 58.066952 11.030355 57.47394 10.437343 
C 56.880928 9.84433 56.076518 9.511133 55.237872 9.511133 
C 54.399226 9.511133 53.594816 9.84433 53.001804 10.437343 
C 52.408792 11.030355 52.075595 11.834765 52.075595 12.67341 
C 52.075595 13.512056 52.408792 14.316466 53.001804 14.909478 
C 53.594816 15.502491 54.399226 15.835688 55.237872 15.835688 
z
" clip-path="url(#pd1970a12ba)" style="fill: #f18f01; stroke: #ffffff; stroke-width: 0.5"/>
    <path d="M 123.05942 54.838627 
C 123.785709 54.838627 124.482348 54.55007 124.995912 54.036506 
C 125.509476 53.522942 125.798033 52.826303 125.798033 52.100014 
C 125.798033 51.373726 125.509476 50.677086 124.995912 50.163523 
C 124.482348 49.649959 123.785709 49.361401 123.05942 49.361401 
C 122.333132 49.361401 121.636492 49.649959 121.122929 50.163523 
C 120.609365 50.677086 120.320808 51.373726 120.320808 52.100014 
C 120.320808 52.826303 120.609365 53.522942 121.122929 54.036506 
C 121.636492 54.55007 122.333132 54.838627 123.05942 54.838627 
z
" clip-path="url(#pd1970a12ba)" style="fill: #f18f01; stroke: #ffffff; stroke-width: 0.5"/>
    <path d="M 69.890152 21.166754 
C 70.728798 21.166754 71.533208 20.833556 72.12622 20.240544 
C 72.719232 19.647532 73.05243 18.843122 73.05243 18.004476 
C 73.05243 17.16583 72.719232 16.36142 72.12622 15.768408 
C 71.533208 15.175396 70.728798 14.842199 69.890152 14.842199 
C 69.051506 14.842199 68.247096 15.175396 67.654084 15.768408 
C 67.061072 16.36142 66.727874 17.16583 66.727874 18.004476 
C 66.727874 18.843122 67.061072 19.647532 67.654084 20.240544 
C 68.247096 20.833556 69.051506 21.166754 69.890152 21.166754 
z
" clip-path="url(#pd1970a12ba)" style="fill: #f18f01; stroke: #ffffff; stroke-width: 0.5"/>
    <path d="M 65.670805 41.398631 
C 66.397093 41.398631 67.093733 41.110073 67.607296 40.59651 
C 68.12086 40.082946 68.409417 39.386307 68.409417 38.660018 
C 68.409417 37.93373 68.12086 37.23709 67.607296 36.723527 
C 67.093733 36.209963 66.397093 35.921405 65.670805 35.921405 
C 64.944516 35.921405 64.247876 36.209963 63.734313 36.723527 
C 63.220749 37.23709 62.932192 37.93373 62.932192 38.660018 
C 62.932192 39.386307 63.220749 40.082946 63.734313 40.59651 
C 64.247876 41.110073 64.944516 41.398631 65.670805 41.398631 
z
" clip-path="url(#pd1970a12ba)" style="fill: #f18f01; stroke: #ffffff; stroke-width: 0.5"/>
    <path d="M 49.30412 24.41831 
C 50.030409 24.41831 50.727048 24.129753 51.240612 23.616189 
C 51.754175 23.102626 52.042733 22.405986 52.042733 21.679697 
C 52.042733 20.953409 51.754175 20.256769 51.240612 19.743206 
C 50.727048 19.229642 50.030409 18.941085 49.30412 18.941085 
C 48.577831 18.941085 47.881192 19.229642 47.367628 19.743206 
C 46.854065 20.256769 46.565507 20.953409 46.565507 21.679697 
C 46.565507 22.405986 46.854065 23.102626 47.367628 23.616189 
C 47.881192 24.129753 48.577831 24.41831 49.30412 24.41831 
z
" clip-path="url(#pd1970a12ba)" style="fill: #f18f01; stroke: #ffffff; stroke-width: 0.5"/>
    <path d="M 40.747918 26.111153 
C 41.586564 26.111153 42.390974 25.777956 42.983986 25.184943 
C 43.576998 24.591931 43.910195 23.787521 43.910195 22.948875 
C 43.910195 22.11023 43.576998 21.30582 42.983986 20.712807 
C 42.390974 20.119795 41.586564 19.786598 40.747918 19.786598 
C 39.909272 19.786598 39.104862 20.119795 38.51185 20.712807 
C 37.918838 21.30582 37.58564 22.11023 37.58564 22.948875 
C 37.58564 23.787521 37.918838 24.591931 38.51185 25.184943 
C 39.104862 25.777956 39.909272 26.111153 40.747918 26.111153 
z
" clip-path="url(#pd1970a12ba)" style="fill: #f18f01; stroke: #ffffff; stroke-width: 0.5"/>
    <path d="M 29.778625 49.848544 
C 30.504914 49.848544 31.201553 49.559987 31.715117 49.046423 
C 32.22868 48.532859 32.517238 47.83622 32.517238 47.109931 
C 32.517238 46.383643 32.22868 45.687003 31.715117 45.17344 
C 31.201553 44.659876 30.504914 44.371319 29.778625 44.371319 
C 29.052336 44.371319 28.355697 44.659876 27.842133 45.17344 
C 27.32857 45.687003 27.040012 46.383643 27.040012 47.109931 
C 27.040012 47.83622 27.32857 48.532859 27.842133 49.046423 
C 28.355697 49.559987 29.052336 49.848544 29.778625 49.848544 
z
" clip-path="url(#pd1970a12ba)" style="fill: #f18f01; stroke: #ffffff; stroke-width: 0.5"/>
    <path d="M 119.634553 40.286741 
C 120.360842 40.286741 121.057481 39.998184 121.571045 39.48462 
C 122.084609 38.971056 122.373166 38.274417 122.373166 37.548128 
C 122.373166 36.82184 122.084609 36.1252 121.571045 35.611637 
C 121.057481 35.098073 120.360842 34.809516 119.634553 34.809516 
C 118.908265 34.809516 118.211625 35.098073 117.698062 35.611637 
C 117.184498 36.1252 116.895941 36.82184 116.895941 37.548128 
C 116.895941 38.274417 117.184498 38.971056 117.698062 39.48462 
C 118.211625 39.998184 118.908265 40.286741 119.634553 40.286741 
z
" clip-path="url(#pd1970a12ba)" style="fill: #f18f01; stroke: #ffffff; stroke-width: 0.5"/>
    <path d="M 63.482543 34.941007 
C 64.208831 34.941007 64.905471 34.652449 65.419034 34.138886 
C 65.932598 33.625322 66.221155 32.928683 66.221155 32.202394 
C 66.221155 31.476105 65.932598 30.779466 65.419034 30.265902 
C 64.905471 29.752339 64.208831 29.463781 63.482543 29.463781 
C 62.756254 29.463781 62.059615 29.752339 61.546051 30.265902 
C 61.032487 30.779466 60.74393 31.476105 60.74393 32.202394 
C 60.74393 32.928683 61.032487 33.625322 61.546051 34.138886 
C 62.059615 34.652449 62.756254 34.941007 63.482543 34.941007 
z
" clip-path="url(#pd1970a12ba)" style="fill: #f18f01; stroke: #ffffff; stroke-width: 0.5"/>
    <path d="M 92.22133 13.254072 
C 92.947619 13.254072 93.644259 12.965514 94.157822 12.451951 
C 94.671386 11.938387 94.959943 11.241748 94.959943 10.515459 
C 94.959943 9.78917 94.671386 9.092531 94.157822 8.578967 
C 93.644259 8.065404 92.947619 7.776846 92.22133 7.776846 
C 91.495042 7.776846 90.798402 8.065404 90.284839 8.578967 
C 89.771275 9.092531 89.482718 9.78917 89.482718 10.515459 
C 89.482718 11.241748 89.771275 11.938387 90.284839 12.451951 
C 90.798402 12.965514 91.495042 13.254072 92.22133 13.254072 
z
" clip-path="url(#pd1970a12ba)" style="fill: #f18f01; stroke: #ffffff; stroke-width: 0.5"/>
    <path d="M 67.712822 24.948999 
C 68.43911 24.948999 69.13575 24.660441 69.649313 24.146877 
C 70.162877 23.633314 70.451434 22.936674 70.451434 22.210386 
C 70.451434 21.484097 70.162877 20.787458 69.649313 20.273894 
C 69.13575 19.76033 68.43911 19.471773 67.712822 19.471773 
C 66.986533 19.471773 66.289893 19.76033 65.77633 20.273894 
C 65.262766 20.787458 64.974209 21.484097 64.974209 22.210386 
C 64.974209 22.936674 65.262766 23.633314 65.77633 24.146877 
C 66.289893 24.660441 66.986533 24.948999 67.712822 24.948999 
z
" clip-path="url(#pd1970a12ba)" style="fill: #f18f01; stroke: #ffffff; stroke-width: 0.5"/>
    <path d="M 45.646374 40.082607 
C 46.372662 40.082607 47.069302 39.79405 47.582866 39.280486 
C 48.096429 38.766922 48.384987 38.070283 48.384987 37.343994 
C 48.384987 36.617706 48.096429 35.921066 47.582866 35.407503 
C 47.069302 34.893939 46.372662 34.605381 45.646374 34.605381 
C 44.920085 34.605381 44.223446 34.893939 43.709882 35.407503 
C 43.196319 35.921066 42.907761 36.617706 42.907761 37.343994 
C 42.907761 38.070283 43.196319 38.766922 43.709882 39.280486 
C 44.223446 39.79405 44.920085 40.082607 45.646374 40.082607 
z
" clip-path="url(#pd1970a12ba)" style="fill: #f18f01; stroke: #ffffff; stroke-width: 0.5"/>
    <path d="M 47.000052 31.062439 
C 47.726341 31.062439 48.42298 30.773882 48.936544 30.260318 
C 49.450108 29.746755 49.738665 29.050115 49.738665 28.323827 
C 49.738665 27.597538 49.450108 26.900898 48.936544 26.387335 
C 48.42298 25.873771 47.726341 25.585214 47.000052 25.585214 
C 46.273764 25.585214 45.577124 25.873771 45.063561 26.387335 
C 44.549997 26.900898 44.26144 27.597538 44.26144 28.323827 
C 44.26144 29.050115 44.549997 29.746755 45.063561 30.260318 
C 45.577124 30.773882 46.273764 31.062439 47.000052 31.062439 
z
" clip-path="url(#pd1970a12ba)" style="fill: #f18f01; stroke: #ffffff; stroke-width: 0.5"/>
    <path d="M 118.553308 24.350593 
C 119.391954 24.350593 120.196364 24.017396 120.789376 23.424383 
C 121.382388 22.831371 121.715586 22.026961 121.715586 21.188315 
C 121.715586 20.34967 121.382388 19.54526 120.789376 18.952247 
C 120.196364 18.359235 119.391954 18.026038 118.553308 18.026038 
C 117.714662 18.026038 116.910252 18.359235 116.31724 18.952247 
C 115.724228 19.54526 115.39103 20.34967 115.39103 21.188315 
C 115.39103 22.026961 115.724228 22.831371 116.31724 23.424383 
C 116.910252 24.017396 117.714662 24.350593 118.553308 24.350593 
z
" clip-path="url(#pd1970a12ba)" style="fill: #f18f01; stroke: #ffffff; stroke-width: 0.5"/>
   </g>
  </g>
  <g id="axes_2">
   <g id="patch_3">
    <path d="M 0.1 143.933333 
L 143.9 143.933333 
L 143.9 72.066667 
L 0.1 72.066667 
z
" style="fill: #ffffff"/>
   </g>
   <g id="LineCollection_2">
    <path d="M 92.627151 114.100348 
L 47.914797 112.721902 
" clip-path="url(#p77b4688cdc)" style="fill: none; stroke: #666666; stroke-width: 1.25"/>
    <path d="M 92.627151 114.100348 
L 97.649951 125.542843 
" clip-path="url(#p77b4688cdc)" style="fill: none; stroke: #666666; stroke-width: 1.25"/>
    <path d="M 92.627151 114.100348 
L 76.255363 110.05782 
" clip-path="url(#p77b4688cdc)" style="fill: none; stroke: #666666; stroke-width: 1.25"/>
    <path d="M 92.627151 114.100348 
L 83.891677 113.102761 
" clip-path="url(#p77b4688cdc)" style="fill: none; stroke: #666666; stroke-width: 1.25"/>
    <path d="M 92.627151 114.100348 
L 122.782815 120.977283 
" clip-path="url(#p77b4688cdc)" style="fill: none; stroke: #666666; stroke-width: 1.25"/>
    <path d="M 92.627151 114.100348 
L 55.455363 102.592221 
" clip-path="url(#p77b4688cdc)" style="fill: none; stroke: #666666; stroke-width: 1.25"/>
    <path d="M 62.785325 124.060234 
L 113.439312 122.935542 
" clip-path="url(#p77b4688cdc)" style="fill: none; stroke: #666666; stroke-width: 1.25"/>
    <path d="M 62.785325 124.060234 
L 94.449791 133.666667 
" clip-path="url(#p77b4688cdc)" style="fill: none; stroke: #666666; stroke-width: 1.25"/>
    <path d="M 62.785325 124.060234 
L 83.891677 113.102761 
" clip-path="url(#p77b4688cdc)" style="fill: none; stroke: #666666; stroke-width: 1.25"/>
    <path d="M 94.449791 133.666667 
L 83.891677 113.102761 
" clip-path="url(#p77b4688cdc)" style="fill: none; stroke: #666666; stroke-width: 1.25"/>
    <path d="M 94.449791 133.666667 
L 84.410885 131.537085 
" clip-path="url(#p77b4688cdc)" style="fill: none; stroke: #666666; stroke-width: 1.25"/>
    <path d="M 20.642857 98.512858 
L 69.499493 96.149417 
" clip-path="url(#p77b4688cdc)" style="fill: none; stroke: #666666; stroke-width: 1.25"/>
    <path d="M 20.642857 98.512858 
L 47.914797 112.721902 
" clip-path="url(#p77b4688cdc)" style="fill: none; stroke: #666666; stroke-width: 1.25"/>
    <path d="M 20.642857 98.512858 
L 47.838369 93.325915 
" clip-path="url(#p77b4688cdc)" style="fill: none; stroke: #666666; stroke-width: 1.25"/>
    <path d="M 122.782815 120.977283 
L 95.874857 104.578904 
" clip-path="url(#p77b4688cdc)" style="fill: none; stroke: #666666; stroke-width: 1.25"/>
    <path d="M 122.782815 120.977283 
L 85.81993 122.934774 
" clip-path="url(#p77b4688cdc)" style="fill: none; stroke: #666666; stroke-width: 1.25"/>
    <path d="M 122.782815 120.977283 
L 97.649951 125.542843 
" clip-path="url(#p77b4688cdc)" style="fill: none; stroke: #666666; stroke-width: 1.25"/>
    <path d="M 47.838369 93.325915 
L 91.868817 89.99838 
" clip-path="url(#p77b4688cdc)" style="fill: none; stroke: #666666; stroke-width: 1.25"/>
    <path d="M 47.838369 93.325915 
L 95.874857 104.578904 
" clip-path="url(#p77b4688cdc)" style="fill: none; stroke: #666666; stroke-width: 1.25"/>
    <path d="M 118.68544 104.627725 
L 76.255363 110.05782 
" clip-path="url(#p77b4688cdc)" style="fill: none; stroke: #666666; stroke-width: 1.25"/>
    <path d="M 118.68544 104.627725 
L 69.499493 96.149417 
" clip-path="url(#p77b4688cdc)" style="fill: none; stroke: #666666; stroke-width: 1.25"/>
    <path d="M 118.68544 104.627725 
L 100.781058 83.670606 
" clip-path="url(#p77b4688cdc)" style="fill: none; stroke: #666666; stroke-width: 1.25"/>
    <path d="M 109.569911 100.977679 
L 87.515514 97.808365 
" clip-path="url(#p77b4688cdc)" style="fill: none; stroke: #666666; stroke-width: 1.25"/>
    <path d="M 109.569911 100.977679 
L 95.874857 104.578904 
" clip-path="url(#p77b4688cdc)" style="fill: none; stroke: #666666; stroke-width: 1.25"/>
    <path d="M 109.569911 100.977679 
L 118.67891 98.1833 
" clip-path="url(#p77b4688cdc)" style="fill: none; stroke: #666666; stroke-width: 1.25"/>
    <path d="M 109.569911 100.977679 
L 123.357143 86.278026 
" clip-path="url(#p77b4688cdc)" style="fill: none; stroke: #666666; stroke-width: 1.25"/>
    <path d="M 69.499493 96.149417 
L 55.455363 102.592221 
" clip-path="url(#p77b4688cdc)" style="fill: none; stroke: #666666; stroke-width: 1.25"/>
    <path d="M 69.499493 96.149417 
L 76.255363 110.05782 
" clip-path="url(#p77b4688cdc)" style="fill: none; stroke: #666666; stroke-width: 1.25"/>
    <path d="M 69.499493 96.149417 
L 123.357143 86.278026 
" clip-path="url(#p77b4688cdc)" style="fill: none; stroke: #666666; stroke-width: 1.25"/>
    <path d="M 69.499493 96.149417 
L 43.867619 101.482958 
" clip-path="url(#p77b4688cdc)" style="fill: none; stroke: #666666; stroke-width: 1.25"/>
    <path d="M 113.439312 122.935542 
L 97.649951 125.542843 
" clip-path="url(#p77b4688cdc)" style="fill: none; stroke: #666666; stroke-width: 1.25"/>
    <path d="M 113.439312 122.935542 
L 118.67891 98.1833 
" clip-path="url(#p77b4688cdc)" style="fill: none; stroke: #666666; stroke-width: 1.25"/>
    <path d="M 55.455363 102.592221 
L 76.255363 110.05782 
" clip-path="url(#p77b4688cdc)" style="fill: none; stroke: #666666; stroke-width: 1.25"/>
    <path d="M 78.611399 92.668673 
L 76.255363 110.05782 
" clip-path="url(#p77b4688cdc)" style="fill: none; stroke: #666666; stroke-width: 1.25"/>
    <path d="M 78.611399 92.668673 
L 110.2096 107.70935 
" clip-path="url(#p77b4688cdc)" style="fill: none; stroke: #666666; stroke-width: 1.25"/>
    <path d="M 78.611399 92.668673 
L 91.868817 89.99838 
" clip-path="url(#p77b4688cdc)" style="fill: none; stroke: #666666; stroke-width: 1.25"/>
    <path d="M 118.67891 98.1833 
L 73.438958 82.941383 
" clip-path="url(#p77b4688cdc)" style="fill: none; stroke: #666666; stroke-width: 1.25"/>
    <path d="M 118.67891 98.1833 
L 95.874857 104.578904 
" clip-path="url(#p77b4688cdc)" style="fill: none; stroke: #666666; stroke-width: 1.25"/>
    <path d="M 118.67891 98.1833 
L 87.515514 97.808365 
" clip-path="url(#p77b4688cdc)" style="fill: none; stroke: #666666; stroke-width: 1.25"/>
    <path d="M 66.089422 106.789197 
L 76.255363 110.05782 
" clip-path="url(#p77b4688cdc)" style="fill: none; stroke: #666666; stroke-width: 1.25"/>
    <path d="M 66.089422 106.789197 
L 105.478251 89.954268 
" clip-path="url(#p77b4688cdc)" style="fill: none; stroke: #666666; stroke-width: 1.25"/>
    <path d="M 115.690656 82.333333 
L 91.868817 89.99838 
" clip-path="url(#p77b4688cdc)" style="fill: none; stroke: #666666; stroke-width: 1.25"/>
    <path d="M 115.690656 82.333333 
L 105.478251 89.954268 
" clip-path="url(#p77b4688cdc)" style="fill: none; stroke: #666666; stroke-width: 1.25"/>
    <path d="M 115.690656 82.333333 
L 110.2096 107.70935 
" clip-path="url(#p77b4688cdc)" style="fill: none; stroke: #666666; stroke-width: 1.25"/>
    <path d="M 105.478251 89.954268 
L 87.515514 97.808365 
" clip-path="url(#p77b4688cdc)" style="fill: none; stroke: #666666; stroke-width: 1.25"/>
    <path d="M 110.2096 107.70935 
L 97.649951 125.542843 
" clip-path="url(#p77b4688cdc)" style="fill: none; stroke: #666666; stroke-width: 1.25"/>
    <path d="M 110.2096 107.70935 
L 85.81993 122.934774 
" clip-path="url(#p77b4688cdc)" style="fill: none; stroke: #666666; stroke-width: 1.25"/>
    <path d="M 43.867619 101.482958 
L 87.515514 97.808365 
" clip-path="url(#p77b4688cdc)" style="fill: none; stroke: #666666; stroke-width: 1.25"/>
    <path d="M 43.867619 101.482958 
L 73.438958 82.941383 
" clip-path="url(#p77b4688cdc)" style="fill: none; stroke: #666666; stroke-width: 1.25"/>
    <path d="M 84.410885 131.537085 
L 76.255363 110.05782 
" clip-path="url(#p77b4688cdc)" style="fill: none; stroke: #666666; stroke-width: 1.25"/>
    <path d="M 84.410885 131.537085 
L 85.81993 122.934774 
" clip-path="url(#p77b4688cdc)" style="fill: none; stroke: #666666; stroke-width: 1.25"/>
    <path d="M 123.357143 86.278026 
L 100.781058 83.670606 
" clip-path="url(#p77b4688cdc)" style="fill: none; stroke: #666666; stroke-width: 1.25"/>
    <path d="M 87.515514 97.808365 
L 91.868817 89.99838 
" clip-path="url(#p77b4688cdc)" style="fill: none; stroke: #666666; stroke-width: 1.25"/>
    <path d="M 87.515514 97.808365 
L 83.891677 113.102761 
" clip-path="url(#p77b4688cdc)" style="fill: none; stroke: #666666; stroke-width: 1.25"/>
    <path d="M 47.914797 112.721902 
L 85.81993 122.934774 
" clip-path="url(#p77b4688cdc)" style="fill: none; stroke: #666666; stroke-width: 1.25"/>
    <path d="M 100.781058 83.670606 
L 73.438958 82.941383 
" clip-path="url(#p77b4688cdc)" style="fill: none; stroke: #666666; stroke-width: 1.25"/>
   </g>
   <g id="matplotlib.axis_3"/>
   <g id="matplotlib.axis_4"/>
   <g id="PathCollection_2">
    <path d="M 92.627151 118.283648 
C 93.736575 118.283648 94.800709 117.842869 95.585191 117.058388 
C 96.369672 116.273906 96.810451 115.209772 96.810451 114.100348 
C 96.810451 112.990924 96.369672 111.926789 95.585191 111.142308 
C 94.800709 110.357827 93.736575 109.917048 92.627151 109.917048 
C 91.517727 109.917048 90.453592 110.357827 89.669111 111.142308 
C 88.88463 111.926789 88.443851 112.990924 88.443851 114.100348 
C 88.443851 115.209772 88.88463 116.273906 89.669111 117.058388 
C 90.453592 117.842869 91.517727 118.283648 92.627151 118.283648 
z
" clip-path="url(#p77b4688cdc)" style="fill: #a23b72; stroke: #ffffff; stroke-width: 0.5"/>
    <path d="M 62.785325 127.222512 
C 63.623971 127.222512 64.428381 126.889314 65.021393 126.296302 
C 65.614406 125.70329 65.947603 124.89888 65.947603 124.060234 
C 65.947603 123.221588 65.614406 122.417178 65.021393 121.824166 
C 64.428381 121.231154 63.623971 120.897956 62.785325 120.897956 
C 61.94668 120.897956 61.14227 121.231154 60.549258 121.824166 
C 59.956245 122.417178 59.623048 123.221588 59.623048 124.060234 
C 59.623048 124.89888 59.956245 125.70329 60.549258 126.296302 
C 61.14227 126.889314 61.94668 127.222512 62.785325 127.222512 
z
" clip-path="url(#p77b4688cdc)" style="fill: #a23b72; stroke: #ffffff; stroke-width: 0.5"/>
    <path d="M 94.449791 136.828944 
C 95.288437 136.828944 96.092847 136.495747 96.685859 135.902735 
C 97.278871 135.309722 97.612069 134.505313 97.612069 133.666667 
C 97.612069 132.828021 97.278871 132.023611 96.685859 131.430599 
C 96.092847 130.837587 95.288437 130.504389 94.449791 130.504389 
C 93.611145 130.504389 92.806735 130.837587 92.213723 131.430599 
C 91.620711 132.023611 91.287513 132.828021 91.287513 133.666667 
C 91.287513 134.505313 91.620711 135.309722 92.213723 135.902735 
C 92.806735 136.495747 93.611145 136.828944 94.449791 136.828944 
z
" clip-path="url(#p77b4688cdc)" style="fill: #a23b72; stroke: #ffffff; stroke-width: 0.5"/>
    <path d="M 20.642857 101.675136 
C 21.481503 101.675136 22.285913 101.341938 22.878925 100.748926 
C 23.471937 100.155914 23.805135 99.351504 23.805135 98.512858 
C 23.805135 97.674212 23.471937 96.869802 22.878925 96.27679 
C 22.285913 95.683778 21.481503 95.35058 20.642857 95.35058 
C 19.804211 95.35058 18.999801 95.683778 18.406789 96.27679 
C 17.813777 96.869802 17.480579 97.674212 17.480579 98.512858 
C 17.480579 99.351504 17.813777 100.155914 18.406789 100.748926 
C 18.999801 101.341938 19.804211 101.675136 20.642857 101.675136 
z
" clip-path="url(#p77b4688cdc)" style="fill: #a23b72; stroke: #ffffff; stroke-width: 0.5"/>
    <path d="M 122.782815 124.512817 
C 123.720449 124.512817 124.619807 124.14029 125.282815 123.477283 
C 125.945823 122.814275 126.318349 121.914917 126.318349 120.977283 
C 126.318349 120.039648 125.945823 119.14029 125.282815 118.477283 
C 124.619807 117.814275 123.720449 117.441749 122.782815 117.441749 
C 121.84518 117.441749 120.945823 117.814275 120.282815 118.477283 
C 119.619807 119.14029 119.247281 120.039648 119.247281 120.977283 
C 119.247281 121.914917 119.619807 122.814275 120.282815 123.477283 
C 120.945823 124.14029 121.84518 124.512817 122.782815 124.512817 
z
" clip-path="url(#p77b4688cdc)" style="fill: #a23b72; stroke: #ffffff; stroke-width: 0.5"/>
    <path d="M 47.838369 96.488193 
C 48.677015 96.488193 49.481425 96.154995 50.074437 95.561983 
C 50.667449 94.968971 51.000647 94.164561 51.000647 93.325915 
C 51.000647 92.48727 50.667449 91.68286 50.074437 91.089847 
C 49.481425 90.496835 48.677015 90.163638 47.838369 90.163638 
C 46.999723 90.163638 46.195313 90.496835 45.602301 91.089847 
C 45.009289 91.68286 44.676092 92.48727 44.676092 93.325915 
C 44.676092 94.164561 45.009289 94.968971 45.602301 95.561983 
C 46.195313 96.154995 46.999723 96.488193 47.838369 96.488193 
z
" clip-path="url(#p77b4688cdc)" style="fill: #a23b72; stroke: #ffffff; stroke-width: 0.5"/>
    <path d="M 118.68544 107.790003 
C 119.524086 107.790003 120.328496 107.456805 120.921508 106.863793 
C 121.51452 106.270781 121.847718 105.466371 121.847718 104.627725 
C 121.847718 103.789079 121.51452 102.984669 120.921508 102.391657 
C 120.328496 101.798645 119.524086 101.465448 118.68544 101.465448 
C 117.846794 101.465448 117.042384 101.798645 116.449372 102.391657 
C 115.85636 102.984669 115.523163 103.789079 115.523163 104.627725 
C 115.523163 105.466371 115.85636 106.270781 116.449372 106.863793 
C 117.042384 107.456805 117.846794 107.790003 118.68544 107.790003 
z
" clip-path="url(#p77b4688cdc)" style="fill: #a23b72; stroke: #ffffff; stroke-width: 0.5"/>
    <path d="M 109.569911 104.513213 
C 110.507546 104.513213 111.406903 104.140687 112.069911 103.477679 
C 112.732919 102.814671 113.105445 101.915314 113.105445 100.977679 
C 113.105445 100.040045 112.732919 99.140687 112.069911 98.477679 
C 111.406903 97.814671 110.507546 97.442145 109.569911 97.442145 
C 108.632277 97.442145 107.732919 97.814671 107.069911 98.477679 
C 106.406903 99.140687 106.034377 100.040045 106.034377 100.977679 
C 106.034377 101.915314 106.406903 102.814671 107.069911 103.477679 
C 107.732919 104.140687 108.632277 104.513213 109.569911 104.513213 
z
" clip-path="url(#p77b4688cdc)" style="fill: #a23b72; stroke: #ffffff; stroke-width: 0.5"/>
    <path d="M 69.499493 100.332717 
C 70.608917 100.332717 71.673051 99.891938 72.457533 99.107457 
C 73.242014 98.322976 73.682793 97.258841 73.682793 96.149417 
C 73.682793 95.039993 73.242014 93.975859 72.457533 93.191377 
C 71.673051 92.406896 70.608917 91.966117 69.499493 91.966117 
C 68.390069 91.966117 67.325934 92.406896 66.541453 93.191377 
C 65.756972 93.975859 65.316193 95.039993 65.316193 96.149417 
C 65.316193 97.258841 65.756972 98.322976 66.541453 99.107457 
C 67.325934 99.891938 68.390069 100.332717 69.499493 100.332717 
z
" clip-path="url(#p77b4688cdc)" style="fill: #a23b72; stroke: #ffffff; stroke-width: 0.5"/>
    <path d="M 113.439312 126.09782 
C 114.277958 126.09782 115.082368 125.764622 115.67538 125.17161 
C 116.268392 124.578598 116.60159 123.774188 116.60159 122.935542 
C 116.60159 122.096896 116.268392 121.292486 115.67538 120.699474 
C 115.082368 120.106462 114.277958 119.773264 113.439312 119.773264 
C 112.600666 119.773264 111.796256 120.106462 111.203244 120.699474 
C 110.610232 121.292486 110.277034 122.096896 110.277034 122.935542 
C 110.277034 123.774188 110.610232 124.578598 111.203244 125.17161 
C 111.796256 125.764622 112.600666 126.09782 113.439312 126.09782 
z
" clip-path="url(#p77b4688cdc)" style="fill: #a23b72; stroke: #ffffff; stroke-width: 0.5"/>
    <path d="M 55.455363 105.754499 
C 56.294009 105.754499 57.098419 105.421301 57.691431 104.828289 
C 58.284443 104.235277 58.61764 103.430867 58.61764 102.592221 
C 58.61764 101.753575 58.284443 100.949165 57.691431 100.356153 
C 57.098419 99.763141 56.294009 99.429943 55.455363 99.429943 
C 54.616717 99.429943 53.812307 99.763141 53.219295 100.356153 
C 52.626283 100.949165 52.293085 101.753575 52.293085 102.592221 
C 52.293085 103.430867 52.626283 104.235277 53.219295 104.828289 
C 53.812307 105.421301 54.616717 105.754499 55.455363 105.754499 
z
" clip-path="url(#p77b4688cdc)" style="fill: #a23b72; stroke: #ffffff; stroke-width: 0.5"/>
    <path d="M 78.611399 95.830951 
C 79.450045 95.830951 80.254455 95.497753 80.847467 94.904741 
C 81.440479 94.311729 81.773677 93.507319 81.773677 92.668673 
C 81.773677 91.830027 81.440479 91.025617 80.847467 90.432605 
C 80.254455 89.839593 79.450045 89.506395 78.611399 89.506395 
C 77.772753 89.506395 76.968343 89.839593 76.375331 90.432605 
C 75.782319 91.025617 75.449121 91.830027 75.449121 92.668673 
C 75.449121 93.507319 75.782319 94.311729 76.375331 94.904741 
C 76.968343 95.497753 77.772753 95.830951 78.611399 95.830951 
z
" clip-path="url(#p77b4688cdc)" style="fill: #a23b72; stroke: #ffffff; stroke-width: 0.5"/>
    <path d="M 118.67891 102.056283 
C 119.706037 102.056283 120.691234 101.648201 121.417523 100.921912 
C 122.143811 100.195624 122.551893 99.210427 122.551893 98.1833 
C 122.551893 97.156172 122.143811 96.170975 121.417523 95.444687 
C 120.691234 94.718398 119.706037 94.310316 118.67891 94.310316 
C 117.651783 94.310316 116.666586 94.718398 115.940297 95.444687 
C 115.214009 96.170975 114.805927 97.156172 114.805927 98.1833 
C 114.805927 99.210427 115.214009 100.195624 115.940297 100.921912 
C 116.666586 101.648201 117.651783 102.056283 118.67891 102.056283 
z
" clip-path="url(#p77b4688cdc)" style="fill: #a23b72; stroke: #ffffff; stroke-width: 0.5"/>
    <path d="M 66.089422 109.52781 
C 66.815711 109.52781 67.51235 109.239252 68.025914 108.725689 
C 68.539477 108.212125 68.828035 107.515486 68.828035 106.789197 
C 68.828035 106.062908 68.539477 105.366269 68.025914 104.852705 
C 67.51235 104.339142 66.815711 104.050584 66.089422 104.050584 
C 65.363133 104.050584 64.666494 104.339142 64.15293 104.852705 
C 63.639367 105.366269 63.350809 106.062908 63.350809 106.789197 
C 63.350809 107.515486 63.639367 108.212125 64.15293 108.725689 
C 64.666494 109.239252 65.363133 109.52781 66.089422 109.52781 
z
" clip-path="url(#p77b4688cdc)" style="fill: #a23b72; stroke: #ffffff; stroke-width: 0.5"/>
    <path d="M 115.690656 85.495611 
C 116.529301 85.495611 117.333711 85.162413 117.926724 84.569401 
C 118.519736 83.976389 118.852933 83.171979 118.852933 82.333333 
C 118.852933 81.494687 118.519736 80.690278 117.926724 80.097265 
C 117.333711 79.504253 116.529301 79.171056 115.690656 79.171056 
C 114.85201 79.171056 114.0476 79.504253 113.454588 80.097265 
C 112.861575 80.690278 112.528378 81.494687 112.528378 82.333333 
C 112.528378 83.171979 112.861575 83.976389 113.454588 84.569401 
C 114.0476 85.162413 114.85201 85.495611 115.690656 85.495611 
z
" clip-path="url(#p77b4688cdc)" style="fill: #a23b72; stroke: #ffffff; stroke-width: 0.5"/>
    <path d="M 105.478251 93.116546 
C 106.316897 93.116546 107.121307 92.783349 107.714319 92.190336 
C 108.307331 91.597324 108.640528 90.792914 108.640528 89.954268 
C 108.640528 89.115623 108.307331 88.311213 107.714319 87.7182 
C 107.121307 87.125188 106.316897 86.791991 105.478251 86.791991 
C 104.639605 86.791991 103.835195 87.125188 103.242183 87.7182 
C 102.649171 88.311213 102.315973 89.115623 102.315973 89.954268 
C 102.315973 90.792914 102.649171 91.597324 103.242183 92.190336 
C 103.835195 92.783349 104.639605 93.116546 105.478251 93.116546 
z
" clip-path="url(#p77b4688cdc)" style="fill: #a23b72; stroke: #ffffff; stroke-width: 0.5"/>
    <path d="M 110.2096 111.244884 
C 111.147234 111.244884 112.046592 110.872358 112.7096 110.20935 
C 113.372608 109.546342 113.745134 108.646985 113.745134 107.70935 
C 113.745134 106.771715 113.372608 105.872358 112.7096 105.20935 
C 112.046592 104.546342 111.147234 104.173816 110.2096 104.173816 
C 109.271965 104.173816 108.372608 104.546342 107.7096 105.20935 
C 107.046592 105.872358 106.674066 106.771715 106.674066 107.70935 
C 106.674066 108.646985 107.046592 109.546342 107.7096 110.20935 
C 108.372608 110.872358 109.271965 111.244884 110.2096 111.244884 
z
" clip-path="url(#p77b4688cdc)" style="fill: #a23b72; stroke: #ffffff; stroke-width: 0.5"/>
    <path d="M 43.867619 104.645236 
C 44.706265 104.645236 45.510675 104.312038 46.103687 103.719026 
C 46.696699 103.126014 47.029897 102.321604 47.029897 101.482958 
C 47.029897 100.644312 46.696699 99.839902 46.103687 99.24689 
C 45.510675 98.653878 44.706265 98.32068 43.867619 98.32068 
C 43.028973 98.32068 42.224563 98.653878 41.631551 99.24689 
C 41.038539 99.839902 40.705342 100.644312 40.705342 101.482958 
C 40.705342 102.321604 41.038539 103.126014 41.631551 103.719026 
C 42.224563 104.312038 43.028973 104.645236 43.867619 104.645236 
z
" clip-path="url(#p77b4688cdc)" style="fill: #a23b72; stroke: #ffffff; stroke-width: 0.5"/>
    <path d="M 97.649951 129.078377 
C 98.587586 129.078377 99.486944 128.705851 100.149951 128.042843 
C 100.812959 127.379835 101.185485 126.480477 101.185485 125.542843 
C 101.185485 124.605208 100.812959 123.705851 100.149951 123.042843 
C 99.486944 122.379835 98.587586 122.007309 97.649951 122.007309 
C 96.712317 122.007309 95.812959 122.379835 95.149951 123.042843 
C 94.486944 123.705851 94.114417 124.605208 94.114417 125.542843 
C 94.114417 126.480477 94.486944 127.379835 95.149951 128.042843 
C 95.812959 128.705851 96.712317 129.078377 97.649951 129.078377 
z
" clip-path="url(#p77b4688cdc)" style="fill: #a23b72; stroke: #ffffff; stroke-width: 0.5"/>
    <path d="M 84.410885 134.699363 
C 85.24953 134.699363 86.05394 134.366165 86.646953 133.773153 
C 87.239965 133.180141 87.573162 132.375731 87.573162 131.537085 
C 87.573162 130.698439 87.239965 129.894029 86.646953 129.301017 
C 86.05394 128.708005 85.24953 128.374807 84.410885 128.374807 
C 83.572239 128.374807 82.767829 128.708005 82.174817 129.301017 
C 81.581805 129.894029 81.248607 130.698439 81.248607 131.537085 
C 81.248607 132.375731 81.581805 133.180141 82.174817 133.773153 
C 82.767829 134.366165 83.572239 134.699363 84.410885 134.699363 
z
" clip-path="url(#p77b4688cdc)" style="fill: #a23b72; stroke: #ffffff; stroke-width: 0.5"/>
    <path d="M 123.357143 89.440304 
C 124.195789 89.440304 125.000199 89.107106 125.593211 88.514094 
C 126.186223 87.921082 126.519421 87.116672 126.519421 86.278026 
C 126.519421 85.43938 126.186223 84.63497 125.593211 84.041958 
C 125.000199 83.448946 124.195789 83.115749 123.357143 83.115749 
C 122.518497 83.115749 121.714087 83.448946 121.121075 84.041958 
C 120.528063 84.63497 120.194865 85.43938 120.194865 86.278026 
C 120.194865 87.116672 120.528063 87.921082 121.121075 88.514094 
C 121.714087 89.107106 122.518497 89.440304 123.357143 89.440304 
z
" clip-path="url(#p77b4688cdc)" style="fill: #a23b72; stroke: #ffffff; stroke-width: 0.5"/>
    <path d="M 87.515514 101.991665 
C 88.624938 101.991665 89.689073 101.550887 90.473554 100.766405 
C 91.258036 99.981924 91.698814 98.91779 91.698814 97.808365 
C 91.698814 96.698941 91.258036 95.634807 90.473554 94.850325 
C 89.689073 94.065844 88.624938 93.625065 87.515514 93.625065 
C 86.40609 93.625065 85.341956 94.065844 84.557474 94.850325 
C 83.772993 95.634807 83.332214 96.698941 83.332214 97.808365 
C 83.332214 98.91779 83.772993 99.981924 84.557474 100.766405 
C 85.341956 101.550887 86.40609 101.991665 87.515514 101.991665 
z
" clip-path="url(#p77b4688cdc)" style="fill: #a23b72; stroke: #ffffff; stroke-width: 0.5"/>
    <path d="M 47.914797 115.88418 
C 48.753443 115.88418 49.557853 115.550983 50.150865 114.95797 
C 50.743877 114.364958 51.077075 113.560548 51.077075 112.721902 
C 51.077075 111.883257 50.743877 111.078847 50.150865 110.485835 
C 49.557853 109.892822 48.753443 109.559625 47.914797 109.559625 
C 47.076152 109.559625 46.271742 109.892822 45.678729 110.485835 
C 45.085717 111.078847 44.75252 111.883257 44.75252 112.721902 
C 44.75252 113.560548 45.085717 114.364958 45.678729 114.95797 
C 46.271742 115.550983 47.076152 115.88418 47.914797 115.88418 
z
" clip-path="url(#p77b4688cdc)" style="fill: #a23b72; stroke: #ffffff; stroke-width: 0.5"/>
    <path d="M 83.891677 116.638294 
C 84.829311 116.638294 85.728669 116.265768 86.391677 115.602761 
C 87.054685 114.939753 87.427211 114.040395 87.427211 113.102761 
C 87.427211 112.165126 87.054685 111.265768 86.391677 110.602761 
C 85.728669 109.939753 84.829311 109.567227 83.891677 109.567227 
C 82.954042 109.567227 82.054685 109.939753 81.391677 110.602761 
C 80.728669 111.265768 80.356143 112.165126 80.356143 113.102761 
C 80.356143 114.040395 80.728669 114.939753 81.391677 115.602761 
C 82.054685 116.265768 82.954042 116.638294 83.891677 116.638294 
z
" clip-path="url(#p77b4688cdc)" style="fill: #a23b72; stroke: #ffffff; stroke-width: 0.5"/>
    <path d="M 95.874857 108.114437 
C 96.812491 108.114437 97.711849 107.741911 98.374857 107.078904 
C 99.037865 106.415896 99.410391 105.516538 99.410391 104.578904 
C 99.410391 103.641269 99.037865 102.741911 98.374857 102.078904 
C 97.711849 101.415896 96.812491 101.04337 95.874857 101.04337 
C 94.937222 101.04337 94.037865 101.415896 93.374857 102.078904 
C 92.711849 102.741911 92.339323 103.641269 92.339323 104.578904 
C 92.339323 105.516538 92.711849 106.415896 93.374857 107.078904 
C 94.037865 107.741911 94.937222 108.114437 95.874857 108.114437 
z
" clip-path="url(#p77b4688cdc)" style="fill: #a23b72; stroke: #ffffff; stroke-width: 0.5"/>
    <path d="M 85.81993 126.470308 
C 86.757565 126.470308 87.656922 126.097782 88.31993 125.434774 
C 88.982938 124.771766 89.355464 123.872409 89.355464 122.934774 
C 89.355464 121.99714 88.982938 121.097782 88.31993 120.434774 
C 87.656922 119.771766 86.757565 119.39924 85.81993 119.39924 
C 84.882296 119.39924 83.982938 119.771766 83.31993 120.434774 
C 82.656922 121.097782 82.284396 121.99714 82.284396 122.934774 
C 82.284396 123.872409 82.656922 124.771766 83.31993 125.434774 
C 83.982938 126.097782 84.882296 126.470308 85.81993 126.470308 
z
" clip-path="url(#p77b4688cdc)" style="fill: #a23b72; stroke: #ffffff; stroke-width: 0.5"/>
    <path d="M 100.781058 86.832884 
C 101.619704 86.832884 102.424114 86.499686 103.017126 85.906674 
C 103.610139 85.313662 103.943336 84.509252 103.943336 83.670606 
C 103.943336 82.83196 103.610139 82.02755 103.017126 81.434538 
C 102.424114 80.841526 101.619704 80.508329 100.781058 80.508329 
C 99.942413 80.508329 99.138003 80.841526 98.54499 81.434538 
C 97.951978 82.02755 97.618781 82.83196 97.618781 83.670606 
C 97.618781 84.509252 97.951978 85.313662 98.54499 85.906674 
C 99.138003 86.499686 99.942413 86.832884 100.781058 86.832884 
z
" clip-path="url(#p77b4688cdc)" style="fill: #a23b72; stroke: #ffffff; stroke-width: 0.5"/>
    <path d="M 73.438958 86.103661 
C 74.277604 86.103661 75.082014 85.770463 75.675026 85.177451 
C 76.268038 84.584439 76.601236 83.780029 76.601236 82.941383 
C 76.601236 82.102737 76.268038 81.298327 75.675026 80.705315 
C 75.082014 80.112303 74.277604 79.779105 73.438958 79.779105 
C 72.600312 79.779105 71.795902 80.112303 71.20289 80.705315 
C 70.609878 81.298327 70.27668 82.102737 70.27668 82.941383 
C 70.27668 83.780029 70.609878 84.584439 71.20289 85.177451 
C 71.795902 85.770463 72.600312 86.103661 73.438958 86.103661 
z
" clip-path="url(#p77b4688cdc)" style="fill: #a23b72; stroke: #ffffff; stroke-width: 0.5"/>
    <path d="M 91.868817 93.533914 
C 92.806452 93.533914 93.70581 93.161388 94.368817 92.49838 
C 95.031825 91.835372 95.404351 90.936015 95.404351 89.99838 
C 95.404351 89.060746 95.031825 88.161388 94.368817 87.49838 
C 93.70581 86.835372 92.806452 86.462846 91.868817 86.462846 
C 90.931183 86.462846 90.031825 86.835372 89.368817 87.49838 
C 88.70581 88.161388 88.333283 89.060746 88.333283 89.99838 
C 88.333283 90.936015 88.70581 91.835372 89.368817 92.49838 
C 90.031825 93.161388 90.931183 93.533914 91.868817 93.533914 
z
" clip-path="url(#p77b4688cdc)" style="fill: #a23b72; stroke: #ffffff; stroke-width: 0.5"/>
    <path d="M 76.255363 114.529956 
C 77.441388 114.529956 78.578995 114.058744 79.417641 113.220098 
C 80.256287 112.381452 80.727499 111.243844 80.727499 110.05782 
C 80.727499 108.871796 80.256287 107.734188 79.417641 106.895542 
C 78.578995 106.056897 77.441388 105.585684 76.255363 105.585684 
C 75.069339 105.585684 73.931732 106.056897 73.093086 106.895542 
C 72.25444 107.734188 71.783227 108.871796 71.783227 110.05782 
C 71.783227 111.243844 72.25444 112.381452 73.093086 113.220098 
C 73.931732 114.058744 75.069339 114.529956 76.255363 114.529956 
z
" clip-path="url(#p77b4688cdc)" style="fill: #a23b72; stroke: #ffffff; stroke-width: 0.5"/>
   </g>
  </g>
  <g id="axes_3">
   <g id="patch_4">
    <path d="M 0.1 215.9 
L 143.9 215.9 
L 143.9 144.033333 
L 0.1 144.033333 
z
" style="fill: #ffffff"/>
   </g>
   <g id="LineCollection_3">
    <path d="M 100.787635 172.043484 
L 58.431931 164.531573 
" clip-path="url(#p860cbc7ddd)" style="fill: none; stroke: #666666; stroke-width: 1.25"/>
    <path d="M 100.787635 172.043484 
L 86.203709 170.185902 
" clip-path="url(#p860cbc7ddd)" style="fill: none; stroke: #666666; stroke-width: 1.25"/>
    <path d="M 100.787635 172.043484 
L 56.198104 183.014523 
" clip-path="url(#p860cbc7ddd)" style="fill: none; stroke: #666666; stroke-width: 1.25"/>
    <path d="M 100.787635 172.043484 
L 91.926636 190.933713 
" clip-path="url(#p860cbc7ddd)" style="fill: none; stroke: #666666; stroke-width: 1.25"/>
    <path d="M 100.787635 172.043484 
L 86.172126 164.032657 
" clip-path="url(#p860cbc7ddd)" style="fill: none; stroke: #666666; stroke-width: 1.25"/>
    <path d="M 50.787716 176.90987 
L 74.235022 179.583945 
" clip-path="url(#p860cbc7ddd)" style="fill: none; stroke: #666666; stroke-width: 1.25"/>
    <path d="M 50.787716 176.90987 
L 58.431931 164.531573 
" clip-path="url(#p860cbc7ddd)" style="fill: none; stroke: #666666; stroke-width: 1.25"/>
    <path d="M 50.787716 176.90987 
L 67.704911 187.39494 
" clip-path="url(#p860cbc7ddd)" style="fill: none; stroke: #666666; stroke-width: 1.25"/>
    <path d="M 50.787716 176.90987 
L 94.929088 183.635566 
" clip-path="url(#p860cbc7ddd)" style="fill: none; stroke: #666666; stroke-width: 1.25"/>
    <path d="M 50.787716 176.90987 
L 86.203709 170.185902 
" clip-path="url(#p860cbc7ddd)" style="fill: none; stroke: #666666; stroke-width: 1.25"/>
    <path d="M 115.931974 165.215451 
L 92.545229 179.401189 
" clip-path="url(#p860cbc7ddd)" style="fill: none; stroke: #666666; stroke-width: 1.25"/>
    <path d="M 115.931974 165.215451 
L 62.814961 173.091408 
" clip-path="url(#p860cbc7ddd)" style="fill: none; stroke: #666666; stroke-width: 1.25"/>
    <path d="M 115.931974 165.215451 
L 80.086929 174.615727 
" clip-path="url(#p860cbc7ddd)" style="fill: none; stroke: #666666; stroke-width: 1.25"/>
    <path d="M 115.931974 165.215451 
L 99.850244 161.34864 
" clip-path="url(#p860cbc7ddd)" style="fill: none; stroke: #666666; stroke-width: 1.25"/>
    <path d="M 20.353521 175.297423 
L 58.431931 164.531573 
" clip-path="url(#p860cbc7ddd)" style="fill: none; stroke: #666666; stroke-width: 1.25"/>
    <path d="M 20.353521 175.297423 
L 42.048586 187.365541 
" clip-path="url(#p860cbc7ddd)" style="fill: none; stroke: #666666; stroke-width: 1.25"/>
    <path d="M 20.353521 175.297423 
L 67.704911 187.39494 
" clip-path="url(#p860cbc7ddd)" style="fill: none; stroke: #666666; stroke-width: 1.25"/>
    <path d="M 20.353521 175.297423 
L 62.814961 173.091408 
" clip-path="url(#p860cbc7ddd)" style="fill: none; stroke: #666666; stroke-width: 1.25"/>
    <path d="M 75.9881 197.826089 
L 91.926636 190.933713 
" clip-path="url(#p860cbc7ddd)" style="fill: none; stroke: #666666; stroke-width: 1.25"/>
    <path d="M 75.9881 197.826089 
L 47.216203 205.777934 
" clip-path="url(#p860cbc7ddd)" style="fill: none; stroke: #666666; stroke-width: 1.25"/>
    <path d="M 75.9881 197.826089 
L 120.293673 186.705023 
" clip-path="url(#p860cbc7ddd)" style="fill: none; stroke: #666666; stroke-width: 1.25"/>
    <path d="M 75.9881 197.826089 
L 67.704911 187.39494 
" clip-path="url(#p860cbc7ddd)" style="fill: none; stroke: #666666; stroke-width: 1.25"/>
    <path d="M 75.9881 197.826089 
L 62.814961 173.091408 
" clip-path="url(#p860cbc7ddd)" style="fill: none; stroke: #666666; stroke-width: 1.25"/>
    <path d="M 86.203709 170.185902 
L 35.159586 169.195989 
" clip-path="url(#p860cbc7ddd)" style="fill: none; stroke: #666666; stroke-width: 1.25"/>
    <path d="M 86.203709 170.185902 
L 58.431931 164.531573 
" clip-path="url(#p860cbc7ddd)" style="fill: none; stroke: #666666; stroke-width: 1.25"/>
    <path d="M 86.203709 170.185902 
L 120.293673 186.705023 
" clip-path="url(#p860cbc7ddd)" style="fill: none; stroke: #666666; stroke-width: 1.25"/>
    <path d="M 86.203709 170.185902 
L 123.646479 181.581746 
" clip-path="url(#p860cbc7ddd)" style="fill: none; stroke: #666666; stroke-width: 1.25"/>
    <path d="M 86.203709 170.185902 
L 62.814961 173.091408 
" clip-path="url(#p860cbc7ddd)" style="fill: none; stroke: #666666; stroke-width: 1.25"/>
    <path d="M 35.159586 169.195989 
L 36.430115 183.413636 
" clip-path="url(#p860cbc7ddd)" style="fill: none; stroke: #666666; stroke-width: 1.25"/>
    <path d="M 35.159586 169.195989 
L 56.198104 183.014523 
" clip-path="url(#p860cbc7ddd)" style="fill: none; stroke: #666666; stroke-width: 1.25"/>
    <path d="M 35.159586 169.195989 
L 80.086929 174.615727 
" clip-path="url(#p860cbc7ddd)" style="fill: none; stroke: #666666; stroke-width: 1.25"/>
    <path d="M 67.704911 187.39494 
L 74.235022 179.583945 
" clip-path="url(#p860cbc7ddd)" style="fill: none; stroke: #666666; stroke-width: 1.25"/>
    <path d="M 99.850244 161.34864 
L 74.235022 179.583945 
" clip-path="url(#p860cbc7ddd)" style="fill: none; stroke: #666666; stroke-width: 1.25"/>
    <path d="M 99.850244 161.34864 
L 92.545229 179.401189 
" clip-path="url(#p860cbc7ddd)" style="fill: none; stroke: #666666; stroke-width: 1.25"/>
    <path d="M 99.850244 161.34864 
L 58.431931 164.531573 
" clip-path="url(#p860cbc7ddd)" style="fill: none; stroke: #666666; stroke-width: 1.25"/>
    <path d="M 86.172126 164.032657 
L 94.929088 183.635566 
" clip-path="url(#p860cbc7ddd)" style="fill: none; stroke: #666666; stroke-width: 1.25"/>
    <path d="M 86.172126 164.032657 
L 92.545229 179.401189 
" clip-path="url(#p860cbc7ddd)" style="fill: none; stroke: #666666; stroke-width: 1.25"/>
    <path d="M 121.237792 194.436187 
L 123.646479 181.581746 
" clip-path="url(#p860cbc7ddd)" style="fill: none; stroke: #666666; stroke-width: 1.25"/>
    <path d="M 121.237792 194.436187 
L 109.387291 186.409394 
" clip-path="url(#p860cbc7ddd)" style="fill: none; stroke: #666666; stroke-width: 1.25"/>
    <path d="M 121.237792 194.436187 
L 92.545229 179.401189 
" clip-path="url(#p860cbc7ddd)" style="fill: none; stroke: #666666; stroke-width: 1.25"/>
    <path d="M 121.237792 194.436187 
L 91.926636 190.933713 
" clip-path="url(#p860cbc7ddd)" style="fill: none; stroke: #666666; stroke-width: 1.25"/>
    <path d="M 121.237792 194.436187 
L 94.929088 183.635566 
" clip-path="url(#p860cbc7ddd)" style="fill: none; stroke: #666666; stroke-width: 1.25"/>
    <path d="M 123.646479 181.581746 
L 76.688174 192.441423 
" clip-path="url(#p860cbc7ddd)" style="fill: none; stroke: #666666; stroke-width: 1.25"/>
    <path d="M 123.646479 181.581746 
L 94.929088 183.635566 
" clip-path="url(#p860cbc7ddd)" style="fill: none; stroke: #666666; stroke-width: 1.25"/>
    <path d="M 123.646479 181.581746 
L 74.235022 179.583945 
" clip-path="url(#p860cbc7ddd)" style="fill: none; stroke: #666666; stroke-width: 1.25"/>
    <path d="M 109.387291 186.409394 
L 36.430115 183.413636 
" clip-path="url(#p860cbc7ddd)" style="fill: none; stroke: #666666; stroke-width: 1.25"/>
    <path d="M 109.387291 186.409394 
L 120.293673 186.705023 
" clip-path="url(#p860cbc7ddd)" style="fill: none; stroke: #666666; stroke-width: 1.25"/>
    <path d="M 109.387291 186.409394 
L 91.926636 190.933713 
" clip-path="url(#p860cbc7ddd)" style="fill: none; stroke: #666666; stroke-width: 1.25"/>
    <path d="M 94.929088 183.635566 
L 89.908791 195.616179 
" clip-path="url(#p860cbc7ddd)" style="fill: none; stroke: #666666; stroke-width: 1.25"/>
    <path d="M 94.929088 183.635566 
L 92.545229 179.401189 
" clip-path="url(#p860cbc7ddd)" style="fill: none; stroke: #666666; stroke-width: 1.25"/>
    <path d="M 94.929088 183.635566 
L 42.048586 187.365541 
" clip-path="url(#p860cbc7ddd)" style="fill: none; stroke: #666666; stroke-width: 1.25"/>
    <path d="M 94.929088 183.635566 
L 120.293673 186.705023 
" clip-path="url(#p860cbc7ddd)" style="fill: none; stroke: #666666; stroke-width: 1.25"/>
    <path d="M 58.431931 164.531573 
L 74.235022 179.583945 
" clip-path="url(#p860cbc7ddd)" style="fill: none; stroke: #666666; stroke-width: 1.25"/>
    <path d="M 89.908791 195.616179 
L 92.545229 179.401189 
" clip-path="url(#p860cbc7ddd)" style="fill: none; stroke: #666666; stroke-width: 1.25"/>
    <path d="M 89.908791 195.616179 
L 74.235022 179.583945 
" clip-path="url(#p860cbc7ddd)" style="fill: none; stroke: #666666; stroke-width: 1.25"/>
    <path d="M 89.908791 195.616179 
L 56.198104 183.014523 
" clip-path="url(#p860cbc7ddd)" style="fill: none; stroke: #666666; stroke-width: 1.25"/>
    <path d="M 89.908791 195.616179 
L 47.216203 205.777934 
" clip-path="url(#p860cbc7ddd)" style="fill: none; stroke: #666666; stroke-width: 1.25"/>
    <path d="M 56.198104 183.014523 
L 42.048586 187.365541 
" clip-path="url(#p860cbc7ddd)" style="fill: none; stroke: #666666; stroke-width: 1.25"/>
    <path d="M 56.198104 183.014523 
L 76.688174 192.441423 
" clip-path="url(#p860cbc7ddd)" style="fill: none; stroke: #666666; stroke-width: 1.25"/>
    <path d="M 91.926636 190.933713 
L 120.293673 186.705023 
" clip-path="url(#p860cbc7ddd)" style="fill: none; stroke: #666666; stroke-width: 1.25"/>
    <path d="M 91.926636 190.933713 
L 48.38149 193.000629 
" clip-path="url(#p860cbc7ddd)" style="fill: none; stroke: #666666; stroke-width: 1.25"/>
    <path d="M 91.926636 190.933713 
L 80.086929 174.615727 
" clip-path="url(#p860cbc7ddd)" style="fill: none; stroke: #666666; stroke-width: 1.25"/>
    <path d="M 91.926636 190.933713 
L 41.660798 199.805456 
" clip-path="url(#p860cbc7ddd)" style="fill: none; stroke: #666666; stroke-width: 1.25"/>
    <path d="M 91.926636 190.933713 
L 76.688174 192.441423 
" clip-path="url(#p860cbc7ddd)" style="fill: none; stroke: #666666; stroke-width: 1.25"/>
    <path d="M 48.38149 193.000629 
L 92.545229 179.401189 
" clip-path="url(#p860cbc7ddd)" style="fill: none; stroke: #666666; stroke-width: 1.25"/>
    <path d="M 48.38149 193.000629 
L 74.235022 179.583945 
" clip-path="url(#p860cbc7ddd)" style="fill: none; stroke: #666666; stroke-width: 1.25"/>
    <path d="M 92.545229 179.401189 
L 42.048586 187.365541 
" clip-path="url(#p860cbc7ddd)" style="fill: none; stroke: #666666; stroke-width: 1.25"/>
    <path d="M 76.688174 192.441423 
L 80.086929 174.615727 
" clip-path="url(#p860cbc7ddd)" style="fill: none; stroke: #666666; stroke-width: 1.25"/>
    <path d="M 36.430115 183.413636 
L 41.660798 199.805456 
" clip-path="url(#p860cbc7ddd)" style="fill: none; stroke: #666666; stroke-width: 1.25"/>
    <path d="M 36.430115 183.413636 
L 80.086929 174.615727 
" clip-path="url(#p860cbc7ddd)" style="fill: none; stroke: #666666; stroke-width: 1.25"/>
    <path d="M 42.048586 187.365541 
L 41.660798 199.805456 
" clip-path="url(#p860cbc7ddd)" style="fill: none; stroke: #666666; stroke-width: 1.25"/>
    <path d="M 42.048586 187.365541 
L 74.235022 179.583945 
" clip-path="url(#p860cbc7ddd)" style="fill: none; stroke: #666666; stroke-width: 1.25"/>
    <path d="M 120.293673 186.705023 
L 80.086929 174.615727 
" clip-path="url(#p860cbc7ddd)" style="fill: none; stroke: #666666; stroke-width: 1.25"/>
    <path d="M 62.814961 173.091408 
L 80.086929 174.615727 
" clip-path="url(#p860cbc7ddd)" style="fill: none; stroke: #666666; stroke-width: 1.25"/>
    <path d="M 74.235022 179.583945 
L 80.086929 174.615727 
" clip-path="url(#p860cbc7ddd)" style="fill: none; stroke: #666666; stroke-width: 1.25"/>
    <path d="M 41.660798 199.805456 
L 47.216203 205.777934 
" clip-path="url(#p860cbc7ddd)" style="fill: none; stroke: #666666; stroke-width: 1.25"/>
    <path d="M 80.086929 174.615727 
L 81.174686 154.155399 
" clip-path="url(#p860cbc7ddd)" style="fill: none; stroke: #666666; stroke-width: 1.25"/>
   </g>
   <g id="matplotlib.axis_5"/>
   <g id="matplotlib.axis_6"/>
   <g id="PathCollection_3">
    <path d="M 100.787635 175.916467 
C 101.814762 175.916467 102.799959 175.508385 103.526248 174.782097 
C 104.252537 174.055808 104.660619 173.070611 104.660619 172.043484 
C 104.660619 171.016357 104.252537 170.03116 103.526248 169.304871 
C 102.799959 168.578583 101.814762 168.170501 100.787635 168.170501 
C 99.760508 168.170501 98.775311 168.578583 98.049022 169.304871 
C 97.322734 170.03116 96.914652 171.016357 96.914652 172.043484 
C 96.914652 173.070611 97.322734 174.055808 98.049022 174.782097 
C 98.775311 175.508385 99.760508 175.916467 100.787635 175.916467 
z
" clip-path="url(#p860cbc7ddd)" style="fill: #2e86ab; stroke: #ffffff; stroke-width: 0.5"/>
    <path d="M 50.787716 180.782854 
C 51.814844 180.782854 52.800041 180.374772 53.526329 179.648483 
C 54.252618 178.922194 54.6607 177.936997 54.6607 176.90987 
C 54.6607 175.882743 54.252618 174.897546 53.526329 174.171258 
C 52.800041 173.444969 51.814844 173.036887 50.787716 173.036887 
C 49.760589 173.036887 48.775392 173.444969 48.049104 174.171258 
C 47.322815 174.897546 46.914733 175.882743 46.914733 176.90987 
C 46.914733 177.936997 47.322815 178.922194 48.049104 179.648483 
C 48.775392 180.374772 49.760589 180.782854 50.787716 180.782854 
z
" clip-path="url(#p860cbc7ddd)" style="fill: #2e86ab; stroke: #ffffff; stroke-width: 0.5"/>
    <path d="M 115.931974 168.750985 
C 116.869609 168.750985 117.768966 168.378459 118.431974 167.715451 
C 119.094982 167.052443 119.467508 166.153086 119.467508 165.215451 
C 119.467508 164.277817 119.094982 163.378459 118.431974 162.715451 
C 117.768966 162.052443 116.869609 161.679917 115.931974 161.679917 
C 114.99434 161.679917 114.094982 162.052443 113.431974 162.715451 
C 112.768966 163.378459 112.39644 164.277817 112.39644 165.215451 
C 112.39644 166.153086 112.768966 167.052443 113.431974 167.715451 
C 114.094982 168.378459 114.99434 168.750985 115.931974 168.750985 
z
" clip-path="url(#p860cbc7ddd)" style="fill: #2e86ab; stroke: #ffffff; stroke-width: 0.5"/>
    <path d="M 20.353521 178.832957 
C 21.291156 178.832957 22.190513 178.460431 22.853521 177.797423 
C 23.516529 177.134416 23.889055 176.235058 23.889055 175.297423 
C 23.889055 174.359789 23.516529 173.460431 22.853521 172.797423 
C 22.190513 172.134416 21.291156 171.761889 20.353521 171.761889 
C 19.415887 171.761889 18.516529 172.134416 17.853521 172.797423 
C 17.190513 173.460431 16.817987 174.359789 16.817987 175.297423 
C 16.817987 176.235058 17.190513 177.134416 17.853521 177.797423 
C 18.516529 178.460431 19.415887 178.832957 20.353521 178.832957 
z
" clip-path="url(#p860cbc7ddd)" style="fill: #2e86ab; stroke: #ffffff; stroke-width: 0.5"/>
    <path d="M 75.9881 201.699072 
C 77.015228 201.699072 78.000425 201.29099 78.726713 200.564701 
C 79.453002 199.838413 79.861084 198.853216 79.861084 197.826089 
C 79.861084 196.798961 79.453002 195.813764 78.726713 195.087476 
C 78.000425 194.361187 77.015228 193.953105 75.9881 193.953105 
C 74.960973 193.953105 73.975776 194.361187 73.249488 195.087476 
C 72.523199 195.813764 72.115117 196.798961 72.115117 197.826089 
C 72.115117 198.853216 72.523199 199.838413 73.249488 200.564701 
C 73.975776 201.29099 74.960973 201.699072 75.9881 201.699072 
z
" clip-path="url(#p860cbc7ddd)" style="fill: #2e86ab; stroke: #ffffff; stroke-width: 0.5"/>
    <path d="M 86.203709 174.658038 
C 87.389734 174.658038 88.527341 174.186826 89.365987 173.34818 
C 90.204633 172.509534 90.675845 171.371927 90.675845 170.185902 
C 90.675845 168.999878 90.204633 167.86227 89.365987 167.023625 
C 88.527341 166.184979 87.389734 165.713766 86.203709 165.713766 
C 85.017685 165.713766 83.880078 166.184979 83.041432 167.023625 
C 82.202786 167.86227 81.731574 168.999878 81.731574 170.185902 
C 81.731574 171.371927 82.202786 172.509534 83.041432 173.34818 
C 83.880078 174.186826 85.017685 174.658038 86.203709 174.658038 
z
" clip-path="url(#p860cbc7ddd)" style="fill: #2e86ab; stroke: #ffffff; stroke-width: 0.5"/>
    <path d="M 35.159586 172.731523 
C 36.09722 172.731523 36.996578 172.358997 37.659586 171.695989 
C 38.322594 171.032981 38.69512 170.133624 38.69512 169.195989 
C 38.69512 168.258354 38.322594 167.358997 37.659586 166.695989 
C 36.996578 166.032981 36.09722 165.660455 35.159586 165.660455 
C 34.221951 165.660455 33.322594 166.032981 32.659586 166.695989 
C 31.996578 167.358997 31.624052 168.258354 31.624052 169.195989 
C 31.624052 170.133624 31.996578 171.032981 32.659586 171.695989 
C 33.322594 172.358997 34.221951 172.731523 35.159586 172.731523 
z
" clip-path="url(#p860cbc7ddd)" style="fill: #2e86ab; stroke: #ffffff; stroke-width: 0.5"/>
    <path d="M 67.704911 190.930474 
C 68.642545 190.930474 69.541903 190.557948 70.204911 189.89494 
C 70.867918 189.231933 71.240444 188.332575 71.240444 187.39494 
C 71.240444 186.457306 70.867918 185.557948 70.204911 184.89494 
C 69.541903 184.231933 68.642545 183.859407 67.704911 183.859407 
C 66.767276 183.859407 65.867918 184.231933 65.204911 184.89494 
C 64.541903 185.557948 64.169377 186.457306 64.169377 187.39494 
C 64.169377 188.332575 64.541903 189.231933 65.204911 189.89494 
C 65.867918 190.557948 66.767276 190.930474 67.704911 190.930474 
z
" clip-path="url(#p860cbc7ddd)" style="fill: #2e86ab; stroke: #ffffff; stroke-width: 0.5"/>
    <path d="M 99.850244 164.884174 
C 100.787878 164.884174 101.687236 164.511648 102.350244 163.84864 
C 103.013252 163.185632 103.385778 162.286275 103.385778 161.34864 
C 103.385778 160.411005 103.013252 159.511648 102.350244 158.84864 
C 101.687236 158.185632 100.787878 157.813106 99.850244 157.813106 
C 98.912609 157.813106 98.013252 158.185632 97.350244 158.84864 
C 96.687236 159.511648 96.31471 160.411005 96.31471 161.34864 
C 96.31471 162.286275 96.687236 163.185632 97.350244 163.84864 
C 98.013252 164.511648 98.912609 164.884174 99.850244 164.884174 
z
" clip-path="url(#p860cbc7ddd)" style="fill: #2e86ab; stroke: #ffffff; stroke-width: 0.5"/>
    <path d="M 86.172126 167.194934 
C 87.010772 167.194934 87.815182 166.861737 88.408194 166.268725 
C 89.001206 165.675712 89.334404 164.871302 89.334404 164.032657 
C 89.334404 163.194011 89.001206 162.389601 88.408194 161.796589 
C 87.815182 161.203576 87.010772 160.870379 86.172126 160.870379 
C 85.33348 160.870379 84.52907 161.203576 83.936058 161.796589 
C 83.343046 162.389601 83.009849 163.194011 83.009849 164.032657 
C 83.009849 164.871302 83.343046 165.675712 83.936058 166.268725 
C 84.52907 166.861737 85.33348 167.194934 86.172126 167.194934 
z
" clip-path="url(#p860cbc7ddd)" style="fill: #2e86ab; stroke: #ffffff; stroke-width: 0.5"/>
    <path d="M 121.237792 198.30917 
C 122.264919 198.30917 123.250116 197.901088 123.976404 197.174799 
C 124.702693 196.448511 125.110775 195.463314 125.110775 194.436187 
C 125.110775 193.409059 124.702693 192.423862 123.976404 191.697574 
C 123.250116 190.971285 122.264919 190.563203 121.237792 190.563203 
C 120.210664 190.563203 119.225467 190.971285 118.499179 191.697574 
C 117.77289 192.423862 117.364808 193.409059 117.364808 194.436187 
C 117.364808 195.463314 117.77289 196.448511 118.499179 197.174799 
C 119.225467 197.901088 120.210664 198.30917 121.237792 198.30917 
z
" clip-path="url(#p860cbc7ddd)" style="fill: #2e86ab; stroke: #ffffff; stroke-width: 0.5"/>
    <path d="M 123.646479 185.454729 
C 124.673606 185.454729 125.658803 185.046647 126.385092 184.320358 
C 127.11138 183.59407 127.519462 182.608873 127.519462 181.581746 
C 127.519462 180.554618 127.11138 179.569421 126.385092 178.843133 
C 125.658803 178.116844 124.673606 177.708762 123.646479 177.708762 
C 122.619352 177.708762 121.634155 178.116844 120.907866 178.843133 
C 120.181577 179.569421 119.773496 180.554618 119.773496 181.581746 
C 119.773496 182.608873 120.181577 183.59407 120.907866 184.320358 
C 121.634155 185.046647 122.619352 185.454729 123.646479 185.454729 
z
" clip-path="url(#p860cbc7ddd)" style="fill: #2e86ab; stroke: #ffffff; stroke-width: 0.5"/>
    <path d="M 109.387291 189.944928 
C 110.324926 189.944928 111.224283 189.572402 111.887291 188.909394 
C 112.550299 188.246386 112.922825 187.347028 112.922825 186.409394 
C 112.922825 185.471759 112.550299 184.572402 111.887291 183.909394 
C 111.224283 183.246386 110.324926 182.87386 109.387291 182.87386 
C 108.449656 182.87386 107.550299 183.246386 106.887291 183.909394 
C 106.224283 184.572402 105.851757 185.471759 105.851757 186.409394 
C 105.851757 187.347028 106.224283 188.246386 106.887291 188.909394 
C 107.550299 189.572402 108.449656 189.944928 109.387291 189.944928 
z
" clip-path="url(#p860cbc7ddd)" style="fill: #2e86ab; stroke: #ffffff; stroke-width: 0.5"/>
    <path d="M 94.929088 188.378982 
C 96.187057 188.378982 97.393672 187.879186 98.28319 186.989667 
C 99.172709 186.100149 99.672505 184.893534 99.672505 183.635566 
C 99.672505 182.377597 99.172709 181.170982 98.28319 180.281464 
C 97.393672 179.391945 96.187057 178.892149 94.929088 178.892149 
C 93.67112 178.892149 92.464505 179.391945 91.574986 180.281464 
C 90.685468 181.170982 90.185672 182.377597 90.185672 183.635566 
C 90.185672 184.893534 90.685468 186.100149 91.574986 186.989667 
C 92.464505 187.879186 93.67112 188.378982 94.929088 188.378982 
z
" clip-path="url(#p860cbc7ddd)" style="fill: #2e86ab; stroke: #ffffff; stroke-width: 0.5"/>
    <path d="M 58.431931 168.714873 
C 59.541355 168.714873 60.60549 168.274094 61.389971 167.489613 
C 62.174452 166.705131 62.615231 165.640997 62.615231 164.531573 
C 62.615231 163.422149 62.174452 162.358014 61.389971 161.573533 
C 60.60549 160.789052 59.541355 160.348273 58.431931 160.348273 
C 57.322507 160.348273 56.258372 160.789052 55.473891 161.573533 
C 54.68941 162.358014 54.248631 163.422149 54.248631 164.531573 
C 54.248631 165.640997 54.68941 166.705131 55.473891 167.489613 
C 56.258372 168.274094 57.322507 168.714873 58.431931 168.714873 
z
" clip-path="url(#p860cbc7ddd)" style="fill: #2e86ab; stroke: #ffffff; stroke-width: 0.5"/>
    <path d="M 89.908791 199.489162 
C 90.935918 199.489162 91.921115 199.08108 92.647404 198.354792 
C 93.373692 197.628503 93.781774 196.643306 93.781774 195.616179 
C 93.781774 194.589052 93.373692 193.603855 92.647404 192.877566 
C 91.921115 192.151278 90.935918 191.743196 89.908791 191.743196 
C 88.881664 191.743196 87.896467 192.151278 87.170178 192.877566 
C 86.44389 193.603855 86.035808 194.589052 86.035808 195.616179 
C 86.035808 196.643306 86.44389 197.628503 87.170178 198.354792 
C 87.896467 199.08108 88.881664 199.489162 89.908791 199.489162 
z
" clip-path="url(#p860cbc7ddd)" style="fill: #2e86ab; stroke: #ffffff; stroke-width: 0.5"/>
    <path d="M 56.198104 186.887506 
C 57.225231 186.887506 58.210428 186.479424 58.936717 185.753136 
C 59.663006 185.026847 60.071088 184.04165 60.071088 183.014523 
C 60.071088 181.987396 59.663006 181.002199 58.936717 180.27591 
C 58.210428 179.549621 57.225231 179.141539 56.198104 179.141539 
C 55.170977 179.141539 54.18578 179.549621 53.459491 180.27591 
C 52.733203 181.002199 52.325121 181.987396 52.325121 183.014523 
C 52.325121 184.04165 52.733203 185.026847 53.459491 185.753136 
C 54.18578 186.479424 55.170977 186.887506 56.198104 186.887506 
z
" clip-path="url(#p860cbc7ddd)" style="fill: #2e86ab; stroke: #ffffff; stroke-width: 0.5"/>
    <path d="M 91.926636 195.933713 
C 93.252652 195.933713 94.524536 195.406881 95.46217 194.469247 
C 96.399805 193.531612 96.926636 192.259728 96.926636 190.933713 
C 96.926636 189.607697 96.399805 188.335814 95.46217 187.398179 
C 94.524536 186.460544 93.252652 185.933713 91.926636 185.933713 
C 90.600621 185.933713 89.328737 186.460544 88.391103 187.398179 
C 87.453468 188.335814 86.926636 189.607697 86.926636 190.933713 
C 86.926636 192.259728 87.453468 193.531612 88.391103 194.469247 
C 89.328737 195.406881 90.600621 195.933713 91.926636 195.933713 
z
" clip-path="url(#p860cbc7ddd)" style="fill: #2e86ab; stroke: #ffffff; stroke-width: 0.5"/>
    <path d="M 48.38149 196.162907 
C 49.220135 196.162907 50.024545 195.829709 50.617558 195.236697 
C 51.21057 194.643685 51.543767 193.839275 51.543767 193.000629 
C 51.543767 192.161983 51.21057 191.357573 50.617558 190.764561 
C 50.024545 190.171549 49.220135 189.838351 48.38149 189.838351 
C 47.542844 189.838351 46.738434 190.171549 46.145422 190.764561 
C 45.552409 191.357573 45.219212 192.161983 45.219212 193.000629 
C 45.219212 193.839275 45.552409 194.643685 46.145422 195.236697 
C 46.738434 195.829709 47.542844 196.162907 48.38149 196.162907 
z
" clip-path="url(#p860cbc7ddd)" style="fill: #2e86ab; stroke: #ffffff; stroke-width: 0.5"/>
    <path d="M 92.545229 184.144605 
C 93.803197 184.144605 95.009812 183.644809 95.899331 182.755291 
C 96.788849 181.865772 97.288645 180.659157 97.288645 179.401189 
C 97.288645 178.14322 96.788849 176.936605 95.899331 176.047087 
C 95.009812 175.157568 93.803197 174.657772 92.545229 174.657772 
C 91.28726 174.657772 90.080645 175.157568 89.191127 176.047087 
C 88.301608 176.936605 87.801812 178.14322 87.801812 179.401189 
C 87.801812 180.659157 88.301608 181.865772 89.191127 182.755291 
C 90.080645 183.644809 91.28726 184.144605 92.545229 184.144605 
z
" clip-path="url(#p860cbc7ddd)" style="fill: #2e86ab; stroke: #ffffff; stroke-width: 0.5"/>
    <path d="M 76.688174 195.976957 
C 77.625809 195.976957 78.525167 195.604431 79.188174 194.941423 
C 79.851182 194.278416 80.223708 193.379058 80.223708 192.441423 
C 80.223708 191.503789 79.851182 190.604431 79.188174 189.941423 
C 78.525167 189.278416 77.625809 188.905889 76.688174 188.905889 
C 75.75054 188.905889 74.851182 189.278416 74.188174 189.941423 
C 73.525167 190.604431 73.152641 191.503789 73.152641 192.441423 
C 73.152641 193.379058 73.525167 194.278416 74.188174 194.941423 
C 74.851182 195.604431 75.75054 195.976957 76.688174 195.976957 
z
" clip-path="url(#p860cbc7ddd)" style="fill: #2e86ab; stroke: #ffffff; stroke-width: 0.5"/>
    <path d="M 36.430115 186.949169 
C 37.367749 186.949169 38.267107 186.576643 38.930115 185.913636 
C 39.593123 185.250628 39.965649 184.35127 39.965649 183.413636 
C 39.965649 182.476001 39.593123 181.576643 38.930115 180.913636 
C 38.267107 180.250628 37.367749 179.878102 36.430115 179.878102 
C 35.49248 179.878102 34.593123 180.250628 33.930115 180.913636 
C 33.267107 181.576643 32.894581 182.476001 32.894581 183.413636 
C 32.894581 184.35127 33.267107 185.250628 33.930115 185.913636 
C 34.593123 186.576643 35.49248 186.949169 36.430115 186.949169 
z
" clip-path="url(#p860cbc7ddd)" style="fill: #2e86ab; stroke: #ffffff; stroke-width: 0.5"/>
    <path d="M 42.048586 191.548841 
C 43.158011 191.548841 44.222145 191.108062 45.006626 190.323581 
C 45.791108 189.5391 46.231887 188.474965 46.231887 187.365541 
C 46.231887 186.256117 45.791108 185.191982 45.006626 184.407501 
C 44.222145 183.62302 43.158011 183.182241 42.048586 183.182241 
C 40.939162 183.182241 39.875028 183.62302 39.090547 184.407501 
C 38.306065 185.191982 37.865286 186.256117 37.865286 187.365541 
C 37.865286 188.474965 38.306065 189.5391 39.090547 190.323581 
C 39.875028 191.108062 40.939162 191.548841 42.048586 191.548841 
z
" clip-path="url(#p860cbc7ddd)" style="fill: #2e86ab; stroke: #ffffff; stroke-width: 0.5"/>
    <path d="M 120.293673 190.888323 
C 121.403098 190.888323 122.467232 190.447544 123.251713 189.663063 
C 124.036195 188.878581 124.476974 187.814447 124.476974 186.705023 
C 124.476974 185.595599 124.036195 184.531464 123.251713 183.746983 
C 122.467232 182.962502 121.403098 182.521723 120.293673 182.521723 
C 119.184249 182.521723 118.120115 182.962502 117.335634 183.746983 
C 116.551152 184.531464 116.110373 185.595599 116.110373 186.705023 
C 116.110373 187.814447 116.551152 188.878581 117.335634 189.663063 
C 118.120115 190.447544 119.184249 190.888323 120.293673 190.888323 
z
" clip-path="url(#p860cbc7ddd)" style="fill: #2e86ab; stroke: #ffffff; stroke-width: 0.5"/>
    <path d="M 62.814961 176.964391 
C 63.842088 176.964391 64.827285 176.556309 65.553574 175.830021 
C 66.279862 175.103732 66.687944 174.118535 66.687944 173.091408 
C 66.687944 172.064281 66.279862 171.079084 65.553574 170.352795 
C 64.827285 169.626506 63.842088 169.218425 62.814961 169.218425 
C 61.787834 169.218425 60.802637 169.626506 60.076348 170.352795 
C 59.35006 171.079084 58.941978 172.064281 58.941978 173.091408 
C 58.941978 174.118535 59.35006 175.103732 60.076348 175.830021 
C 60.802637 176.556309 61.787834 176.964391 62.814961 176.964391 
z
" clip-path="url(#p860cbc7ddd)" style="fill: #2e86ab; stroke: #ffffff; stroke-width: 0.5"/>
    <path d="M 74.235022 184.583945 
C 75.561037 184.583945 76.832921 184.057114 77.770556 183.119479 
C 78.70819 182.181844 79.235022 180.909961 79.235022 179.583945 
C 79.235022 178.25793 78.70819 176.986046 77.770556 176.048411 
C 76.832921 175.110777 75.561037 174.583945 74.235022 174.583945 
C 72.909006 174.583945 71.637122 175.110777 70.699488 176.048411 
C 69.761853 176.986046 69.235022 178.25793 69.235022 179.583945 
C 69.235022 180.909961 69.761853 182.181844 70.699488 183.119479 
C 71.637122 184.057114 72.909006 184.583945 74.235022 184.583945 
z
" clip-path="url(#p860cbc7ddd)" style="fill: #2e86ab; stroke: #ffffff; stroke-width: 0.5"/>
    <path d="M 41.660798 203.34099 
C 42.598432 203.34099 43.49779 202.968464 44.160798 202.305456 
C 44.823806 201.642449 45.196332 200.743091 45.196332 199.805456 
C 45.196332 198.867822 44.823806 197.968464 44.160798 197.305456 
C 43.49779 196.642449 42.598432 196.269923 41.660798 196.269923 
C 40.723163 196.269923 39.823806 196.642449 39.160798 197.305456 
C 38.49779 197.968464 38.125264 198.867822 38.125264 199.805456 
C 38.125264 200.743091 38.49779 201.642449 39.160798 202.305456 
C 39.823806 202.968464 40.723163 203.34099 41.660798 203.34099 
z
" clip-path="url(#p860cbc7ddd)" style="fill: #2e86ab; stroke: #ffffff; stroke-width: 0.5"/>
    <path d="M 80.086929 179.615727 
C 81.412944 179.615727 82.684828 179.088896 83.622463 178.151261 
C 84.560097 177.213626 85.086929 175.941743 85.086929 174.615727 
C 85.086929 173.289712 84.560097 172.017828 83.622463 171.080193 
C 82.684828 170.142559 81.412944 169.615727 80.086929 169.615727 
C 78.760913 169.615727 77.48903 170.142559 76.551395 171.080193 
C 75.61376 172.017828 75.086929 173.289712 75.086929 174.615727 
C 75.086929 175.941743 75.61376 177.213626 76.551395 178.151261 
C 77.48903 179.088896 78.760913 179.615727 80.086929 179.615727 
z
" clip-path="url(#p860cbc7ddd)" style="fill: #2e86ab; stroke: #ffffff; stroke-width: 0.5"/>
    <path d="M 81.174686 156.391467 
C 81.767698 156.391467 82.336501 156.155861 82.755824 155.736538 
C 83.175147 155.317215 83.410753 154.748411 83.410753 154.155399 
C 83.410753 153.562387 83.175147 152.993583 82.755824 152.57426 
C 82.336501 152.154937 81.767698 151.919331 81.174686 151.919331 
C 80.581673 151.919331 80.01287 152.154937 79.593547 152.57426 
C 79.174224 152.993583 78.938618 153.562387 78.938618 154.155399 
C 78.938618 154.748411 79.174224 155.317215 79.593547 155.736538 
C 80.01287 156.155861 80.581673 156.391467 81.174686 156.391467 
z
" clip-path="url(#p860cbc7ddd)" style="fill: #2e86ab; stroke: #ffffff; stroke-width: 0.5"/>
    <path d="M 47.216203 208.940212 
C 48.054849 208.940212 48.859259 208.607014 49.452271 208.014002 
C 50.045283 207.42099 50.378481 206.61658 50.378481 205.777934 
C 50.378481 204.939288 50.045283 204.134878 49.452271 203.541866 
C 48.859259 202.948854 48.054849 202.615657 47.216203 202.615657 
C 46.377557 202.615657 45.573147 202.948854 44.980135 203.541866 
C 44.387123 204.134878 44.053926 204.939288 44.053926 205.777934 
C 44.053926 206.61658 44.387123 207.42099 44.980135 208.014002 
C 45.573147 208.607014 46.377557 208.940212 47.216203 208.940212 
z
" clip-path="url(#p860cbc7ddd)" style="fill: #2e86ab; stroke: #ffffff; stroke-width: 0.5"/>
   </g>
  </g>
 </g>
 <defs>
  <clipPath id="pd1970a12ba">
   <rect x="0.1" y="0.1" width="143.8" height="71.866667"/>
  </clipPath>
  <clipPath id="p77b4688cdc">
   <rect x="0.1" y="72.066667" width="143.8" height="71.866667"/>
  </clipPath>
  <clipPath id="p860cbc7ddd">
   <rect x="0.1" y="144.033333" width="143.8" height="71.866667"/>
  </clipPath>
 </defs>
</svg>
